<?xml version="1.0" encoding="utf-8"?>
<!-- Generator: Adobe Illustrator 25.2.3, SVG Export Plug-In . SVG Version: 6.00 Build 0)  -->
<svg version="1.1" id="Lager_1" xmlns="http://www.w3.org/2000/svg" xmlns:xlink="http://www.w3.org/1999/xlink" x="0px" y="0px"
	 viewBox="0 0 267.18 113.64" style="enable-background:new 0 0 267.18 113.64;" xml:space="preserve">
<style type="text/css">
	.st0{fill:#FFFFFF;}
</style>
<g>
	<g>
		<g>
			<path class="st0" d="M14.54,36.09v51.65c0.01,0.26,0.26,6.4,6.81,7.51l1.58,0.26c5.95,0.98,14.93,2.47,17.86,5.94
				c0.21,0.24,0.43,0.51,0.64,0.82c0.62-0.87,1.34-1.59,2.05-2.04c3.71-2.61,11.09-3.82,16.48-4.71l1.6-0.26
				c6.68-1.13,6.81-7.45,6.81-7.51V36.09H14.54z M15.64,37.19h51.63V71.4H15.64V37.19z M62.62,85.99h1.31v1.9c0,0,0,0,0,0v0
				c0,0-0.01-0.01-0.01-0.01c-0.4-0.65-0.83-1.27-1.3-1.88C62.62,86,62.62,86,62.62,85.99L62.62,85.99
				C62.62,85.99,62.62,85.99,62.62,85.99z M61.59,84.15L61.59,84.15v-2.57v0h5.68v0v2.57v0H61.59z M51.15,82.1l0.78-1.72l0.36-0.8
				c1.58,0.72,3.08,1.59,4.45,2.6l0,0c0,0,0,0,0,0l-0.6,0.81l-1.04,1.42c-0.37-0.27-0.77-0.51-1.15-0.76
				c-0.25-0.16-0.49-0.34-0.75-0.49C52.55,82.78,51.86,82.42,51.15,82.1L51.15,82.1C51.15,82.1,51.15,82.1,51.15,82.1z M50.18,77.42
				v-0.26h0v0h6.04v0h0v2.58h-0.75l-0.1-0.06c-0.41-0.22-0.8-0.41-1.17-0.59c-1.82-0.89-3.07-1.35-3.65-1.55c0,0,0,0,0,0
				c-0.06-0.02-0.1-0.03-0.14-0.05c0,0-0.01,0-0.01,0C50.26,77.44,50.18,77.42,50.18,77.42z M50.7,78.92l-0.61,1.63l-0.36,0.97
				c-0.7-0.27-1.43-0.5-2.17-0.69c-0.33-0.09-0.68-0.14-1.02-0.22c-0.42-0.09-0.83-0.2-1.26-0.27l0.44-2.73
				c0.25,0.04,0.5,0.09,0.75,0.14c0.17,0.03,0.34,0.06,0.52,0.1c0.15,0.03,0.3,0.07,0.44,0.11c0.27,0.06,0.55,0.12,0.82,0.19
				c0.1,0.03,0.19,0.06,0.29,0.08C49.27,78.43,49.99,78.65,50.7,78.92z M46.17,75.56L46.17,75.56v-2.58v0h6.05v0v2.58v0H46.17z
				 M53.88,75.56L53.88,75.56v-2.58v0h6.04v0v2.58v0H53.88z M56.94,84.62l1.16-1.37c0,0,0,0,0.01,0.01
				c0.66,0.56,1.28,1.15,1.88,1.77c0,0,0,0.01,0.01,0.01c0.59,0.62,1.15,1.27,1.67,1.95c0,0,0.01,0.01,0.01,0.01l-2.2,1.68
				c0,0,0,0,0,0l0,0c-0.46-0.6-0.96-1.18-1.49-1.74c-0.06-0.06-0.13-0.12-0.19-0.18c-0.47-0.48-0.96-0.95-1.48-1.39L56.94,84.62z
				 M58.21,81.57h1.7v1.45c0,0,0,0,0,0v0C59.38,82.52,58.81,82.03,58.21,81.57L58.21,81.57C58.21,81.57,58.21,81.57,58.21,81.57z
				 M63.93,79.74h-6.04v-2.58h6.04V79.74z M61.59,75.56L61.59,75.56v-2.58v0h5.68v0v2.58v0H61.59z M44.51,72.98v2.53l-0.39,2.43
				l-0.35,2.2c-0.02,0-0.03,0-0.05,0c-0.7-0.06-1.41-0.09-2.13-0.09c-0.33,0-0.66,0.01-0.99,0.02c-0.02,0-0.05,0-0.08,0
				c-0.03,0-0.06,0-0.09,0.01c-0.43,0.02-0.85,0.05-1.27,0.09l-0.69-4.66v-2.53h0v0L44.51,72.98L44.51,72.98L44.51,72.98z
				 M21.28,87.11c0.41-0.53,0.86-1.03,1.31-1.53c0.13-0.14,0.24-0.29,0.37-0.43c0.31-0.32,0.65-0.61,0.97-0.92
				c0.31-0.29,0.59-0.59,0.92-0.87l1.36,1.6l0.43,0.5c0,0,0,0,0,0l0,0c-0.48,0.41-0.93,0.86-1.38,1.31
				c-0.63,0.64-1.23,1.31-1.78,2.01l-1.46-1.12L21.28,87.11C21.28,87.11,21.28,87.11,21.28,87.11L21.28,87.11z M25.39,77.16v2.58
				h-6.04v-2.58H25.39z M23.05,75.56L23.05,75.56v-2.58v0h6.04v0v2.58v0H23.05z M23.05,83.1v-1.52h1.8c0,0,0,0,0,0h0
				C24.22,82.06,23.62,82.56,23.05,83.1L23.05,83.1C23.05,83.1,23.05,83.1,23.05,83.1z M26.19,82.29
				C26.19,82.29,26.19,82.29,26.19,82.29L26.19,82.29c0.68-0.51,1.39-0.98,2.13-1.41c0.01,0,0.01-0.01,0.01-0.01
				c0.74-0.44,1.51-0.84,2.3-1.21l1.16,2.52c-0.37,0.17-0.73,0.38-1.09,0.57c-0.32,0.17-0.64,0.32-0.95,0.5
				c-0.43,0.26-0.84,0.55-1.26,0.83c-0.22,0.15-0.45,0.28-0.66,0.43L26.19,82.29z M27.7,79.67l-0.1,0.06h0h-0.53v-2.58h6.04v0.19
				C33.07,77.35,30.91,77.97,27.7,79.67z M30.76,75.56L30.76,75.56v-2.58v0h6.04v0v2.58v0H30.76z M33.42,78.57
				c0.24-0.08,0.49-0.15,0.74-0.22c0.17-0.05,0.33-0.1,0.5-0.15c0.24-0.06,0.48-0.12,0.72-0.18c0.18-0.04,0.36-0.09,0.54-0.13
				c0.3-0.07,0.61-0.12,0.91-0.18c0.12-0.02,0.23-0.05,0.35-0.07l0,0c0,0,0,0,0,0l0.46,2.73c0,0-0.01,0-0.01,0
				c-0.76,0.13-1.51,0.29-2.24,0.49c-0.02,0.01-0.04,0.01-0.05,0.02c-0.73,0.2-1.44,0.43-2.13,0.69l0,0c0,0,0,0,0,0L32.21,79
				c0.21-0.08,0.42-0.15,0.64-0.22C33.04,78.71,33.22,78.63,33.42,78.57z M15.64,75.56v-2.58v0h5.75h0v0v2.58v0L15.64,75.56
				L15.64,75.56z M15.64,77.16h2.04v2.58h-2.04V77.16z M15.64,84.15v-2.57v0h5.75h0v0v2.57v0L15.64,84.15L15.64,84.15z M19.35,87.54
				v-1.55h1.09c0,0,0,0,0,0h0C20.05,86.5,19.68,87.02,19.35,87.54L19.35,87.54C19.35,87.54,19.35,87.54,19.35,87.54z M17.18,91.81
				C17.18,91.81,17.18,91.81,17.18,91.81C17.18,91.81,17.18,91.81,17.18,91.81c-0.03-0.04-0.06-0.08-0.09-0.13
				c-0.11-0.14-0.22-0.29-0.32-0.44c-0.13-0.2-0.25-0.4-0.35-0.6h1.24c0,0,0,0,0,0h0C17.48,91.06,17.32,91.44,17.18,91.81z
				 M17.68,88.57L17.68,88.57L17.68,88.57l-1.96,0c-0.02-0.12-0.04-0.23-0.05-0.33c0-0.04-0.01-0.07-0.01-0.1
				c-0.01-0.06-0.01-0.11-0.02-0.16c0-0.02,0-0.04,0-0.06c-0.01-0.09-0.01-0.16-0.01-0.18v-1.75h0v0h2.04V88.57z M20.53,93.94
				c-0.01,0-0.01,0-0.02-0.01c-0.23-0.06-0.45-0.12-0.66-0.21c-0.07-0.03-0.14-0.06-0.21-0.09c-0.14-0.06-0.28-0.12-0.41-0.19
				c-0.1-0.05-0.19-0.11-0.29-0.17c-0.1-0.06-0.19-0.11-0.29-0.17c-0.19-0.13-0.37-0.26-0.54-0.39c0,0,0,0-0.01,0
				c0.17-0.43,0.38-0.83,0.57-1.24c0.14-0.31,0.27-0.62,0.42-0.92c0.37-0.71,0.76-1.39,1.19-2.04l1.05,0.69l1.26,0.83
				c-0.07,0.1-0.13,0.21-0.19,0.31c-0.14,0.22-0.28,0.44-0.41,0.65c-0.11,0.19-0.22,0.38-0.32,0.57c-0.08,0.14-0.16,0.28-0.23,0.41
				c-0.12,0.22-0.23,0.45-0.34,0.67c-0.05,0.1-0.1,0.21-0.15,0.31C20.8,93.28,20.66,93.61,20.53,93.94z M59.8,94.43l-0.02,0
				c-1.02,0.17-2.1,0.35-3.21,0.55c-5.75,1.02-12.28,2.52-15.12,5.57c-3.37-3.63-11.99-5.06-18.27-6.11l-1.16-0.2
				c0.07-0.16,0.15-0.31,0.23-0.47c0.15-0.31,0.3-0.63,0.46-0.93c0.09-0.17,0.19-0.33,0.29-0.5c0.16-0.28,0.32-0.57,0.49-0.84
				c0.14-0.22,0.29-0.44,0.44-0.66c0.14-0.21,0.27-0.42,0.41-0.62c0.17-0.24,0.36-0.48,0.55-0.71c0.13-0.17,0.25-0.34,0.38-0.5
				c0.22-0.26,0.45-0.51,0.67-0.76c0.11-0.12,0.22-0.25,0.33-0.37c0.26-0.27,0.53-0.53,0.8-0.79c0.09-0.09,0.18-0.18,0.27-0.27
				c0.34-0.31,0.68-0.6,1.04-0.89c0.04-0.03,0.07-0.06,0.11-0.09c0.39-0.31,0.8-0.61,1.21-0.9c0.03-0.02,0.07-0.04,0.1-0.06
				c0.39-0.27,0.79-0.52,1.21-0.76c0.12-0.07,0.24-0.12,0.35-0.19c0.33-0.19,0.67-0.37,1.02-0.54c0.1-0.05,0.2-0.09,0.3-0.13
				c0.37-0.17,0.74-0.34,1.12-0.49c0.08-0.03,0.16-0.06,0.24-0.09c0.4-0.15,0.81-0.3,1.22-0.43c0.08-0.03,0.17-0.04,0.25-0.07
				c0.41-0.12,0.82-0.24,1.25-0.33c0.13-0.03,0.26-0.05,0.39-0.08c0.38-0.08,0.75-0.16,1.13-0.21c0.3-0.05,0.6-0.07,0.9-0.1
				c0.22-0.02,0.43-0.06,0.66-0.07c0.54-0.04,1.07-0.06,1.62-0.06h0c0.54,0,1.07,0.02,1.6,0.06c0.01,0,0.02,0,0.04,0
				c0.1,0.01,0.2,0.02,0.3,0.03c0.43,0.04,0.86,0.08,1.29,0.14c0.21,0.03,0.41,0.08,0.61,0.11c0.32,0.06,0.64,0.11,0.95,0.18
				c0.23,0.05,0.46,0.12,0.69,0.18c0.28,0.07,0.56,0.14,0.84,0.22c0.23,0.07,0.45,0.15,0.68,0.23c0.27,0.09,0.54,0.18,0.81,0.28
				c0.21,0.08,0.42,0.18,0.63,0.27c0.27,0.12,0.55,0.22,0.82,0.35c0.18,0.09,0.36,0.18,0.54,0.28c0.29,0.14,0.58,0.28,0.86,0.44
				c0.09,0.05,0.17,0.1,0.25,0.15c0.36,0.21,0.72,0.42,1.07,0.65c2.6,1.71,4.79,3.94,6.45,6.55c0.55,0.87,1.04,1.78,1.47,2.72h0
				c0,0,0,0,0,0l-1.16,0.19L59.8,94.43z M62.52,93.94C62.52,93.94,62.52,93.94,62.52,93.94C62.52,93.94,62.52,93.94,62.52,93.94
				c-0.01-0.04-0.03-0.07-0.04-0.1c-0.13-0.34-0.27-0.67-0.42-0.99c-0.07-0.15-0.15-0.3-0.23-0.45c-0.1-0.2-0.2-0.4-0.31-0.59
				c-0.13-0.23-0.26-0.46-0.4-0.68c-0.06-0.09-0.11-0.2-0.17-0.29c-0.19-0.31-0.39-0.62-0.59-0.93l0,0c0,0,0,0,0,0l2.31-1.52
				c0,0,0,0,0,0l0,0c0.66,1,1.24,2.06,1.73,3.17c0.16,0.37,0.32,0.74,0.46,1.11c-0.14,0.12-0.29,0.24-0.46,0.36
				c-0.06,0.04-0.13,0.08-0.19,0.13c-0.11,0.07-0.21,0.15-0.34,0.22c-0.12,0.07-0.25,0.13-0.38,0.19c-0.09,0.04-0.16,0.09-0.25,0.12
				c-0.17,0.07-0.36,0.13-0.55,0.18C62.64,93.9,62.59,93.92,62.52,93.94z M65.83,91.69C65.83,91.69,65.83,91.69,65.83,91.69
				C65.83,91.69,65.83,91.7,65.83,91.69l-0.02-0.04c-0.14-0.34-0.27-0.67-0.42-1l0,0c0,0,0,0,0,0h1.1c0,0,0,0.01-0.01,0.01
				C66.32,91.01,66.1,91.36,65.83,91.69z M67.27,87.74c0,0.02,0,0.1-0.01,0.2c0,0.01,0,0.02,0,0.03c0,0.06-0.01,0.12-0.02,0.19
				c0,0.02,0,0.04-0.01,0.07c-0.01,0.1-0.03,0.21-0.05,0.34h-1.66v0h0v-2.58h1.75v0h0V87.74z M67.27,79.73L67.27,79.73L67.27,79.73
				l-1.75,0v-2.58h0v0h1.75V79.73z"/>
		</g>
	</g>
	<g>
		<path class="st0" d="M69.94,12.91h-2.57v0.78h-0.7l-0.53-1.09h-1.2l-0.53,1.09h-0.75v-0.78h-2.5v3.43l0.82,0.79v1.39h-1.24v1.3
			h-2.48v-1.3H57.1l0.01-1.58l0.73-0.6v-3.42h-2.4v0.78h-0.89l-0.53-1.09h-1.2l-0.53,1.09h-0.77v-0.78h-2.47v3.43l0.83,0.79v1.39
			h-1.25v1.3h-2.54v-1.3h-1.16l0-1.58l0.73-0.6v-3.42h-2.38v0.78h-0.9l-0.53-1.09h-1.2l-0.53,1.09h-0.79v-0.78h-2.44v3.43l0.83,0.79
			v1.39h-1.26v1.3h-2.51v-1.3h-1.16l0-1.58l0.73-0.6v-3.42H31v0.78h-0.78l-0.53-1.09h-1.2l-0.52,1.09h-0.79v-0.78h-2.46v3.43
			l0.84,0.79v1.39H24.3v1.3h-2.53v-1.3h-1.17v-1.58l0.73-0.6v-3.42h-2.56v0.78h-0.72l-0.53-1.09h-1.2l-0.53,1.09h-0.75v-0.78h-2.5
			v3.43l0.83,0.79v3.51l3.3,4.65l0.05,5.98h-1.54v3.75H67.8v-3.79h-1.96l0.03-5.86l3.25-4.83l0-3.53l0.82-0.68V12.91z M61.2,19
			L61.2,19L61.2,19l0.46,0v0h0v0.47H61.2V19z M57.34,19h0.46v0h0v0.47h-0.46v0h0V19z M57.59,20.78h3.82l1.69,2.26l0.69,0.92h0l0,0
			h-8.6l0,0h0l1.32-1.74L57.59,20.78z M64.7,25.21v1.82v0h-10.3v0v-1.82v0L64.7,25.21L64.7,25.21z M64.71,28.38v2.5h-4.08v-2.5
			H64.71z M17.85,27.02L17.85,27.02v-1.82v0h10.33v0v1.82v0H17.85z M22.21,28.38v2.5h-4.37v-2.5H22.21z M24.09,28.38h10.32v2.5
			H24.09V28.38z M26.7,20.22v-3.05h0h4.95h0v3.05l-2.49,3.52l0,0l0,0l-0.7-1L26.7,20.22z M30.03,27.02L30.03,27.02L30.03,27.02
			l0-1.82h0v0h10.33v0v1.82v0H30.03z M36.27,28.38L36.27,28.38H46.6h0v2.5h0H36.27h0V28.38z M38.78,20.22v-3.05h0h4.95h0v3.05
			l-2.49,3.52l0,0l0,0l-0.25-0.36L38.78,20.22z M42.21,27.02L42.21,27.02L42.21,27.02l0-1.82h0v0h10.33v0v1.82v0H42.21z
			 M48.45,28.38h10.32h0v2.5h0H48.45V28.38z M50.96,20.22v-3.05h0h4.95h0v3.05l-2.49,3.52l0,0l0,0L50.96,20.22z M50.13,14.01h0.83
			v0.75h1.56l0.46-1.06h0l0,0h0.88l0.26,0.64l0.18,0.42h1.61l0-0.3l0-0.46h0v0h0.82v0h0v2.06h0v0h-6.6V14.01z M49.09,19.47V19v0
			h0.46v0v0.47v0L49.09,19.47L49.09,19.47z M45.19,19h0.46v0h0v0.47h-0.46v0h0V19z M45.42,20.78h3.88l2.38,3.17h-8.67l0,0h0
			l1.23-1.62L45.42,20.78z M37.96,14.01L37.96,14.01L37.96,14.01l0.83,0v0.75h1.57l0.45-1.06h0l0,0h0.88l0.44,1.06h1.61V14h0v0h0.82
			v2.06h-6.6v0h0V14.01z M36.93,19h0.46v0h0v0.47h-0.45v0h0V19z M33.04,19.47V19v0h0.45v0v0.47v0L33.04,19.47L33.04,19.47z
			 M33.27,20.78L33.27,20.78L33.27,20.78l3.86,0l1.42,1.9l0.96,1.27h0l0,0h-8.65l1-1.31L33.27,20.78z M25.75,13.89h1.07v0.75h1.36
			l0.46-1.06h1.04l0.44,1.06h1.43l0-0.76h1.05v2.29h-6.83V13.89z M24.76,19.01L24.76,19.01L24.76,19.01l0.45,0v0h0v0.47h-0.46V19.01
			z M20.87,19h0.46v0h0v0.47h-0.45v0h0V19z M21.09,20.78h3.88l2.38,3.17h0h-8.67h0l0.33-0.43L21.09,20.78z M13.64,16.06v-2.05h0v0
			h0.83v0h0v0.75h1.56l0.45-1.06h0.88l0,0l0,0l0.44,1.06h1.62l0-0.13l0-0.62h0.81v2.06L13.64,16.06L13.64,16.06L13.64,16.06z
			 M14.47,20.22v-3.05h0v0h4.95v3.05l0,0v0l-1.32,1.86l-1.17,1.65l0,0l0,0L14.47,20.22z M28.18,34.06H16.16v-1.81h12.02V34.06z
			 M40.36,34.06H30.03v-1.81h10.33V34.06z M52.54,34.06H42.21v-1.81h10.33V34.06z M66.76,32.24L66.76,32.24l0,1.81h0H54.39v-1.81
			H66.76z M68.11,20.22l-2.49,3.52l0,0l0,0l-0.72-1.03l-1.74-2.49v-3.05h0v0h4.95v0h0V20.22z M68.94,16.06h-6.6v0h0v-2.05h0v0h0.83
			v0.75h1.56l0.19-0.44l0.26-0.62h0l0,0h0.88l0,0l0,0l0.44,1.06h1.62l-0.01-0.6l0-0.16h0v0h0.82V16.06z"/>
	</g>
	<g>
		<g>
			<path class="st0" d="M41.12,42.48c-0.09,0-0.16,0.07-0.16,0.16c0,0.08,0.07,0.16,0.16,0.16c0.09,0,0.16-0.07,0.16-0.16
				C41.28,42.55,41.21,42.48,41.12,42.48z"/>
			<path class="st0" d="M41.18,41.81c-0.22,0-0.42,0.09-0.56,0.23c-0.14,0.14-0.23,0.34-0.23,0.56c0,0.4,0.31,0.73,0.71,0.77
				c0.03,0,0.06,0.02,0.09,0.02c0.06,0,0.12-0.02,0.17-0.04c0.35-0.08,0.61-0.38,0.61-0.75c0-0.23-0.1-0.43-0.26-0.58
				C41.57,41.89,41.38,41.81,41.18,41.81z M41.18,43.16c-0.31,0-0.57-0.25-0.57-0.56c0-0.31,0.26-0.56,0.57-0.56
				c0.31,0,0.56,0.25,0.56,0.56C41.74,42.91,41.49,43.16,41.18,43.16z"/>
			<path class="st0" d="M63.17,45.28c-1.13-0.2-2.84-0.22-3.61-0.04c0.02-0.07,0.05-0.28,0.05-0.28c-0.28,0.02-7.48,0.03-10.4,0.75
				c-0.04,0.01-1.12,0.23-1.69,1.2l-0.31,0.58c-0.23,0.46-0.27,0.56-0.89,0.53c0,0-0.78-0.09-0.99-0.12
				c-0.03-0.08-0.13-0.35-0.13-0.35c-0.17-0.37-0.52-2.55-0.59-3.73c-0.1-1.6-0.42-2.14-0.44-2.17c-1.34-2.25-4.56-1.61-4.88-1.47
				c-0.39,0.18-0.73,0.47-0.74,0.48c-2.25,0.85-2.79,2.17-2.82,2.23l-0.06,0.17c0,0,2.15-0.28,2.44,0.04
				c-1.31,0.42-3.46,0.42-3.46,0.42c0.39,1.08,2.93,0.46,3.5,0.3c0.27-0.04,0.07,0.12,0.07,0.13c-0.9,0.54-2.13,0.78-2.13,0.78
				c0.17,0.39,0.64,0.56,0.72,0.59c0.71,0.77,1.88,0.92,2.24,0.94c-0.23,1.23-0.78,1.54-1.2,1.67c-0.32,0.09-1.26,0.11-1.26,0.11
				c0,0,0,0,0,0c0,0,0,0,0,0h0h0c-0.62,0.03-0.66-0.07-0.89-0.53l-0.31-0.58c-0.57-0.97-1.64-1.19-1.69-1.2
				C30.78,45.01,23.32,45,23.25,45c0,0,0.1,0.2,0.11,0.27c-0.76-0.17-2.47-0.17-3.6,0.04c-1.16,0.2-2.88-0.5-2.9-0.51l-0.14-0.06
				l0.01,0.15c0.13,2.39,1.42,2.95,1.61,3.03c0.97,1.93,2.62,2.2,2.88,2.24c0.92,1.86,2.89,2.12,3.09,2.14
				c1.3,1.45,2.57,1.54,2.75,1.55c1.2,1.02,2.79,1.11,2.85,1.12c1.66,0.82,3.22,0.42,3.64,0.29c0.02,0.12,0.12,0.4,0.12,0.4
				c1.02,0.13,2.68-0.12,3.47-0.47c0.44-0.19,0.46-0.17,0.54,0.08c0,0,0.21,0.71,0.21,0.96c0,1.44-1.18,2.75-1.75,3.3
				c-0.29,0.28-0.44,0.58-0.45,0.88c-1.01,0.7-1.86,1.26-1.86,1.26c-0.24,0.13-0.44,0.22-0.66,0.15c-0.33-0.1-0.47-0.19-0.47-0.19
				c-0.13-0.17-0.48-0.56-1.05-0.62c-0.28-0.04-0.71,0-1.17,0.37l-0.03,0.03c0,0-0.08,0.1-0.15,0.19c-0.11,0.01-0.22,0.02-0.32,0.07
				c-0.93,0.39-1.13,1.51-1.14,1.64c-0.01,0.04-0.01,0.07-0.01,0.11c0,0.29,0.18,0.56,0.48,0.71c0.08,0.04,0.18,0.05,0.27,0.06
				c-0.03,0.15-0.04,0.3-0.04,0.44c0,0.36,0.07,0.68,0.11,0.84c0.09,0.34,0.38,0.58,0.74,0.61c0.35,0.02,0.67-0.19,0.79-0.52
				c0,0,0.15-0.08,0.22-0.11c0.01,0.07,0.05,0.13,0.08,0.2c-0.03,0.15-0.06,0.31-0.06,0.31c0,1.02,1.02,1.54,1.62,1.69
				c0.31,0.08,0.64-0.04,0.84-0.3c0.11-0.14,0.16-0.3,0.16-0.48l-0.11-0.42c0,0-0.03-0.06-0.05-0.1c0.03-0.15,0.07-0.3,0.07-0.45
				l0.05-0.27c0.05-0.1,0.19-0.41,0.23-0.75c0.14-0.22,0.64-0.74,0.9-0.77c0.09-0.01,0.15-0.01,0.18,0.01
				c0.01,0.04-0.09,0.63,0.07,1.06c-0.01,0.01-0.02,0.03-0.02,0.03c-0.15,0.15-0.26,0.41-0.26,0.62l0.11,0.34
				c0.17,0.32,0.54,0.48,0.89,0.4c0.71-0.17,1.22-0.5,1.51-1c0.19-0.33,0.24-0.66,0.24-0.91c0-0.2-0.04-0.36-0.05-0.41
				c0.05-0.14,0.1-0.28,0.1-0.43c0-0.31-0.09-0.64-0.28-0.99c-0.05-0.09-0.22-0.34-0.59-0.54c0.05-0.03,0.08-0.06,0.12-0.08
				c0.33,0.07,0.74-0.01,1.17-0.24c0.42-0.23,1.21-0.72,1.57-0.95c-0.34,1.61-0.93,4.84-0.93,4.87l-0.01,0.03l0.02,0.03
				c0.56,1,2.48,2.09,2.56,2.14l0.05,0.02l0.05-0.02c1.21-0.65,2.22-2.41,2.26-2.48c0.04-0.21,0.05-0.53,0.05-0.93
				c0-1.4-0.18-3.66-0.24-4.33c0.37,0.24,0.88,0.74,0.89,0.74c0.5,0.41,0.88,0.59,1.2,0.63c0.07,0.17,0.18,0.31,0.33,0.42
				c0.01,0,0.1,0.07,0.21,0.14c-0.36,0.2-0.54,0.45-0.59,0.55c-0.18,0.33-0.27,0.67-0.27,0.98c0,0.15,0.06,0.29,0.1,0.43v0.01v0
				c-0.02,0.07-0.04,0.22-0.04,0.41c0,0.25,0.05,0.58,0.24,0.91c0.29,0.5,0.8,0.83,1.5,1c0.35,0.08,0.71-0.08,0.89-0.39l0.1-0.39
				c0-0.22-0.09-0.43-0.24-0.58l0.03-0.41c0,0-0.03-0.4-0.04-0.42c0.02-0.12,0.05-0.22,0.05-0.26c0.04-0.01,0.09-0.02,0.18-0.01
				c0.26,0.03,0.75,0.54,0.9,0.77c0.03,0.34,0.18,0.66,0.23,0.75l0.05,0.08c0,0.01-0.01,0.2-0.01,0.2c0,0.2,0.03,0.35,0.06,0.47
				c-0.02,0.05-0.02,0.05-0.1,0.26c0.01-0.01-0.05,0.23-0.05,0.23c-0.04,0.18,0.05,0.34,0.16,0.48c0.2,0.26,0.53,0.37,0.84,0.3
				c0.6-0.15,1.62-0.67,1.62-1.69c0,0-0.04-0.15-0.06-0.31c0.03-0.07,0.07-0.13,0.08-0.2c0.06,0.03,0.21,0.11,0.21,0.11
				c0.13,0.33,0.45,0.53,0.8,0.52c0.35-0.02,0.64-0.26,0.73-0.6c0.04-0.16,0.11-0.48,0.11-0.84c0-0.14-0.02-0.29-0.05-0.44
				c0.1-0.01,0.19-0.02,0.28-0.06c0.3-0.15,0.47-0.42,0.47-0.71c0-0.04-0.01-0.07-0.01-0.11c-0.04-0.21-0.25-1.26-1.15-1.64
				c-0.1-0.04-0.21-0.06-0.32-0.07c-0.07-0.09-0.18-0.22-0.18-0.22c-0.46-0.37-0.89-0.41-1.17-0.37c-0.55,0.07-0.91,0.45-1.04,0.62
				c0,0.01-0.14,0.1-0.47,0.2c-0.23,0.07-0.42-0.02-0.66-0.15c0,0-2-1.36-2.01-1.36c0.01-0.06,0.03-0.25,0.03-0.28
				c0-0.31-0.11-0.59-0.32-0.84c-0.57-0.65-1.46-3.26-1.52-3.41c0.04-0.12,0.07-0.32,0.11-0.61c0.83,0.28,2.44,0.6,3.45,0.47
				c0,0,0.11-0.27,0.12-0.39c0.42,0.13,1.98,0.52,3.68-0.3c0.03,0.01,1.61-0.09,2.82-1.1c0.18-0.01,1.45-0.1,2.75-1.55
				c0.19-0.02,2.17-0.28,3.09-2.14c0.25-0.03,1.91-0.3,2.88-2.24c0.2-0.07,1.49-0.65,1.62-3.03v-0.15
				C66.18,44.72,64.33,45.48,63.17,45.28z M29.74,63.47l-0.29,0.45l0.08-0.53c0.01-0.04,0.14-0.86,0.73-1.11
				c0.15-0.06,0.25-0.03,0.3,0.01c0.11,0.08,0.13,0.22,0.13,0.28c0.04,0.09,0.14,0.28,0.26,0.35l0.13,0.08l-0.11,0.11
				c-0.01,0.01-0.24,0.23-0.6,0.23c-0.01,0-0.03,0-0.04,0C30.11,63.31,29.81,63.37,29.74,63.47z M31.29,64.5
				c-0.01,0.02-0.01,0.03-0.02,0.05c-0.01,0.01-0.01,0.02-0.01,0.03c-0.03,0.04-0.07,0.07-0.11,0.1c-0.01,0-0.01,0.01-0.02,0.01
				c-0.05,0.03-0.09,0.05-0.13,0.06c-0.01,0-0.01,0-0.02,0.01c-0.03,0.01-0.06,0.01-0.06,0.01c0,0-0.02,0.01-0.06,0.02
				c-0.11,0.05-0.34,0.17-0.46,0.5l0,0c0,0,0,0,0,0c0,0-0.29-1.14,0.23-1.37c0,0,0.1-0.03,0.22-0.04c0.01,0,0.01,0,0.01,0
				c0,0,0.01,0,0.01,0c0.02,0,0.04,0,0.07,0c0,0,0.01,0,0.01,0c0.04,0.01,0.09,0.02,0.13,0.04c0.01,0,0.02,0,0.02,0.01
				c0.01,0,0.01,0.01,0.02,0.02c0.04,0.02,0.07,0.06,0.1,0.1c0.01,0.01,0.02,0.02,0.03,0.03c0.03,0.05,0.06,0.11,0.07,0.19
				c0,0.01,0,0.01,0,0.01C31.32,64.36,31.31,64.43,31.29,64.5z M33.23,66.83c0,0-0.04-0.01-0.1-0.03c-0.21-0.07-0.72-0.28-0.87-0.66
				c-0.03-0.07-0.04-0.14-0.04-0.22c0,0,0,0,0,0s0,0,0,0c0-0.22,0.1-0.34,0.23-0.41c0.01-0.01,0.03-0.02,0.04-0.02
				c0.02-0.01,0.05-0.01,0.08-0.02c0.02,0,0.05-0.01,0.07-0.01c0.01,0,0.02,0,0.03,0c0.05,0,0.09,0.01,0.14,0.02
				c0.01,0,0.01,0,0.02,0c0.13,0.04,0.24,0.12,0.28,0.23c0.01,0.02,0.02,0.04,0.02,0.06c0,0,0,0,0,0c0.02,0.19-0.02,0.35-0.04,0.44
				c-0.01,0.03-0.01,0.05-0.02,0.06c0,0,0,0.01,0,0.01c0,0,0,0.01-0.01,0.03c0,0.01,0,0.02,0,0.03c0,0.02,0,0.04,0,0.07
				c0,0.01,0,0.01,0.01,0.02c0.01,0.04,0.02,0.09,0.04,0.15C33.14,66.65,33.17,66.73,33.23,66.83L33.23,66.83
				C33.23,66.83,33.23,66.83,33.23,66.83z M36.94,65.12c-0.01,0.02-0.03,0.04-0.04,0.05c-0.02,0.03-0.05,0.06-0.07,0.1
				c-0.04,0.04-0.08,0.08-0.12,0.11c-0.03,0.02-0.06,0.05-0.09,0.07c-0.06,0.04-0.13,0.08-0.21,0.12c-0.03,0.02-0.06,0.03-0.1,0.05
				c-0.12,0.05-0.26,0.1-0.41,0.13c0,0,0.34-0.33,0.27-0.58l-0.02-0.09c-0.02-0.07-0.03-0.12-0.04-0.17c0-0.01,0-0.03-0.01-0.04
				c0-0.02,0-0.05,0-0.08c0-0.01,0-0.02,0-0.03c0-0.04,0.01-0.09,0.01-0.15c0,0,0,0,0,0c0,0,0,0,0,0c0,0,0.01,0.01,0.04,0.03
				c0.01,0.01,0.02,0.02,0.04,0.02c0.02,0.01,0.05,0.03,0.08,0.04c0,0,0,0,0.01,0c0.16,0.07,0.44,0.11,0.75-0.14
				c0,0,0,0.02,0.01,0.05c0,0.01,0,0.03,0,0.04c0,0.02,0,0.04,0,0.07c0,0.02,0,0.04,0,0.06c0,0.03-0.01,0.07-0.01,0.1
				c-0.01,0.03-0.01,0.05-0.02,0.08c-0.01,0.04-0.02,0.07-0.04,0.11C36.95,65.09,36.95,65.1,36.94,65.12z M37.11,64.15
				c-0.18,0.3-0.55,0.39-0.7,0.39c-0.12,0-0.24-0.05-0.32-0.15c-0.1-0.12-0.14-0.28-0.11-0.46c0.01-0.09-0.04-0.21-0.13-0.31
				c-0.18-0.19-0.48-0.27-0.83-0.23c-0.68,0.09-1.45,1.09-1.48,1.25c0.02,0.17-0.01,0.33-0.09,0.5c-0.11,0.21-0.3,0.24-0.32,0.25
				l-0.06,0.01l-0.04-0.04c-0.08-0.08-0.35-0.05-0.56-0.04l-0.07,0.01c-0.13,0.01-0.21-0.04-0.25-0.08
				c-0.1-0.11-0.07-0.28-0.05-0.39c0-0.02,0.01-0.04,0.01-0.05c0.02-0.17,0.25-0.34,0.36-0.38c0.04-0.01,0.12-0.08,0.18-0.15
				c0,0,0.39-0.6,0.77-0.87c-0.13-0.02-0.36-0.01-0.66,0.03c-0.36,0.05-0.56,0.27-0.71,0.44c-0.06,0.06-0.11,0.12-0.16,0.16
				c-0.08,0.07-0.16,0.09-0.25,0.08c-0.13-0.03-0.2-0.16-0.24-0.23c-0.04-0.08-0.15-0.16-0.29-0.17c-0.12-0.01-0.18-0.07-0.21-0.11
				c-0.06-0.11-0.01-0.23,0-0.25c0.07-0.33,0.37-0.4,0.47-0.43c0.11-0.03,0.29-0.09,0.34-0.21c-0.05,0.02-0.15,0.07-0.33,0.18
				c-0.21,0.13-0.33-0.01-0.37-0.06c-0.07-0.07-0.09-0.13-0.14-0.24l-0.06-0.14c-0.14-0.29,0.17-0.58,0.18-0.6
				c0.21-0.17,0.42-0.24,0.61-0.22c0.26,0.03,0.44,0.22,0.56,0.38c0.13,0.17,0.21,0.25,0.82,0.44c0.52,0.16,0.94-0.07,1.19-0.21
				l0.05-0.03c0.18-0.1,1.37-0.93,1.98-1.35l0.01-0.01c0.35-0.2,0.61-0.05,0.7,0.09c0.09,0.14,0.11,0.46-0.09,0.6
				c-0.08,0.06-0.36,0.26-0.62,0.43c-0.21,0.15-0.41,0.28-0.45,0.32c-0.08,0.06-0.19,0.2-0.17,0.26c0,0,0.03,0.08,0.36,0.09
				c0.87,0.03,1.07,0.44,1.08,0.46C37.24,63.53,37.27,63.88,37.11,64.15z M38.22,42.27c-0.15-0.04-0.32-0.05-0.5-0.06
				c-0.04,0-0.09,0-0.13,0c-0.17,0-0.36,0.02-0.55,0.07c0,0,0.01-0.01,0.03-0.03c0.08-0.09,0.38-0.38,1.09-0.68
				c0.18-0.08,0.38-0.15,0.62-0.23c0,0,0,0,0,0c0,0,0,0,0,0c0,0-0.02,0.03-0.04,0.07c-0.01,0.01-0.01,0.02-0.02,0.04c0,0,0,0,0,0
				c-0.08,0.2-0.17,0.67,0.36,1.2c0,0,0,0,0,0c0,0,0,0,0,0c0,0-0.01-0.01-0.02-0.01c-0.01-0.01-0.03-0.02-0.05-0.03
				c-0.01-0.01-0.03-0.02-0.05-0.03c0,0,0,0-0.01,0c-0.06-0.04-0.15-0.09-0.26-0.14c-0.02-0.01-0.04-0.02-0.06-0.03
				c-0.1-0.05-0.23-0.09-0.36-0.12C38.27,42.29,38.25,42.28,38.22,42.27z M39.02,45.37c0,0-0.01,0-0.01,0
				c-0.07,0-0.14-0.01-0.23-0.01c-0.02,0-0.03,0-0.05,0c-0.09-0.01-0.19-0.03-0.29-0.05c-0.02,0-0.04-0.01-0.06-0.01
				c-0.12-0.03-0.24-0.07-0.38-0.11c-0.02-0.01-0.03-0.01-0.05-0.02c-0.16-0.06-0.32-0.12-0.51-0.21l0,0c0,0,0,0,0,0
				c0.02-0.01,1.25-0.38,1.91-0.78c0,0,0.01,0,0.01-0.01c0.05-0.03,0.08-0.06,0.12-0.09c0.05-0.04,0.12-0.08,0.16-0.12
				c0.07-0.07,0.11-0.13,0.12-0.2l0,0c0,0,0,0,0,0c0,0,0.01,0.04,0.02,0.1c0,0.01,0.01,0.02,0.01,0.04c0,0,0,0,0,0
				c0.02,0.13,0.04,0.35,0,0.6c0,0,0,0,0,0c-0.01,0.08-0.03,0.16-0.06,0.25c0,0,0,0,0,0c-0.02,0.05-0.05,0.11-0.07,0.16
				c0,0,0,0.01,0,0.01c-0.02,0.03-0.02,0.06-0.04,0.1c0,0,0,0,0,0c-0.05,0.09-0.11,0.18-0.18,0.27c0,0,0,0,0,0c0,0,0,0,0,0
				c0,0-0.13,0.05-0.4,0.06C39.03,45.37,39.03,45.37,39.02,45.37z M18.67,46.89c-0.02-0.01-0.04-0.02-0.05-0.03
				c-0.05-0.04-0.09-0.08-0.13-0.13c-0.05-0.05-0.09-0.1-0.13-0.15c-0.02-0.03-0.04-0.07-0.06-0.11c-0.05-0.1-0.09-0.21-0.11-0.3h0
				c0,0,0,0,0,0c0,0,0.02,0,0.05,0c0.21,0.02,1.21,0.08,2.13-0.03c0.12-0.01,0.23-0.03,0.35-0.05c0.14-0.03,0.3-0.05,0.46-0.06
				c0.31-0.02,0.64-0.01,0.99,0.03c0.04,0,0.09,0.01,0.13,0.01c0.1,0.01,0.2,0.04,0.31,0.06c0.1,0.02,0.2,0.03,0.3,0.06
				c0.05,0.01,0.1,0.03,0.15,0.05c0.15,0.04,0.3,0.09,0.44,0.15c0.01,0,0.01,0.01,0.02,0.01c0.36,0.15,0.69,0.35,0.96,0.62
				c0.07,0.07,0.12,0.16,0.19,0.23c0.06,0.07,0.12,0.13,0.17,0.21l0,0c0,0,0,0,0,0c0,0-0.1,0.01-0.26,0.03c-0.01,0-0.03,0-0.04,0
				c-0.07,0.01-0.14,0.01-0.23,0.02c-0.04,0-0.09,0.01-0.13,0.01c-0.07,0.01-0.14,0.01-0.22,0.02c-0.07,0.01-0.13,0.01-0.2,0.01
				c-0.08,0.01-0.15,0.01-0.23,0.01c-0.07,0-0.15,0.01-0.22,0.01c-0.1,0-0.2,0.01-0.3,0.01c-0.07,0-0.14,0.01-0.21,0.01
				c-0.17,0-0.35,0.01-0.54,0.01c0,0,0,0,0,0c-0.1,0-0.2,0-0.3-0.01c-0.1,0-0.2,0-0.3-0.01c0,0,0,0-0.01,0
				c-0.27-0.01-0.54-0.03-0.8-0.06c-0.07-0.01-0.13-0.01-0.2-0.02c-0.19-0.02-0.38-0.05-0.56-0.09c-0.04-0.01-0.08-0.01-0.12-0.02
				C19.44,47.3,18.99,47.13,18.67,46.89z M21.96,49.45c-0.03-0.01-0.06-0.01-0.09-0.01c-0.18-0.03-0.35-0.07-0.52-0.12
				c-0.05-0.01-0.09-0.02-0.13-0.04c-0.15-0.04-0.29-0.09-0.42-0.14c-0.01,0-0.01,0-0.02-0.01c-0.02-0.01-0.03-0.01-0.05-0.02
				c-0.03-0.01-0.05-0.02-0.07-0.03c-0.04-0.02-0.09-0.04-0.13-0.06c-0.02-0.01-0.05-0.02-0.08-0.04c-0.06-0.03-0.11-0.07-0.17-0.1
				c-0.03-0.02-0.05-0.03-0.08-0.05c-0.01-0.01-0.02-0.02-0.04-0.02c-0.05-0.04-0.1-0.09-0.15-0.13c-0.03-0.02-0.06-0.05-0.08-0.07
				c-0.02-0.02-0.03-0.04-0.04-0.06c-0.02-0.02-0.03-0.05-0.05-0.07c-0.02-0.03-0.04-0.05-0.06-0.08c0-0.01-0.01-0.01-0.01-0.02
				c-0.04-0.08-0.08-0.17-0.1-0.27l0,0c0,0,0,0,0,0c0,0,0.07,0.01,0.18,0.03c0.43,0.06,1.63,0.21,2.86,0.14
				c0.56-0.03,1.09-0.06,1.58-0.01c0.06,0,0.11,0.02,0.16,0.02c0.1,0.01,0.2,0.02,0.3,0.04c0.12,0.02,0.24,0.06,0.35,0.1
				c0.03,0.01,0.06,0.01,0.09,0.03c0.14,0.05,0.27,0.12,0.4,0.19c0.01,0,0.01,0.01,0.02,0.01c0.13,0.07,0.25,0.16,0.36,0.27
				c0.01,0.01,0.03,0.02,0.04,0.03c0.11,0.09,0.21,0.21,0.31,0.33c0.02,0.03,0.04,0.04,0.06,0.07l0,0c0,0,0,0,0,0
				c0,0-1.42,0.13-2.06,0.21c-0.04,0.01-0.1,0.01-0.16,0.02c-0.02,0-0.05,0-0.08,0c-0.04,0-0.07,0-0.11,0.01
				c-0.1,0-0.2,0.01-0.32,0.01c-0.01,0-0.02,0-0.03,0c-0.02,0-0.04,0-0.05,0c-0.13,0-0.26,0-0.4-0.01c-0.04,0-0.08,0-0.13-0.01
				c-0.16-0.01-0.33-0.02-0.5-0.04c-0.04,0-0.08-0.01-0.13-0.01C22.28,49.5,22.12,49.48,21.96,49.45z M23.97,51.3
				c-0.01,0-0.02-0.01-0.04-0.01c-0.13-0.05-0.25-0.1-0.38-0.16c-0.03-0.01-0.06-0.03-0.09-0.05c-0.1-0.05-0.2-0.11-0.3-0.18
				c-0.04-0.02-0.07-0.05-0.11-0.07c-0.09-0.07-0.18-0.14-0.26-0.22c-0.03-0.03-0.07-0.06-0.1-0.09c-0.01-0.01-0.03-0.02-0.04-0.03
				c-0.1-0.1-0.19-0.21-0.27-0.34c0.01,0,1.21,0.25,2.27,0.13l0.15-0.02c0.06-0.01,0.13-0.02,0.2-0.02c0.03,0,0.06-0.01,0.09-0.01
				c0.11-0.01,0.22-0.02,0.34-0.03c0.05,0,0.09-0.01,0.14-0.01c0.11-0.01,0.22-0.01,0.34-0.01c0.05,0,0.1,0,0.15,0
				c0.12,0,0.24,0.01,0.36,0.01c0.05,0,0.09,0,0.14,0.01c0.12,0.01,0.24,0.03,0.37,0.06c0.05,0.01,0.09,0.01,0.14,0.03
				c0.12,0.03,0.24,0.07,0.36,0.11c0.05,0.02,0.1,0.03,0.14,0.05c0.11,0.05,0.22,0.11,0.33,0.17c0.05,0.03,0.1,0.05,0.15,0.08
				c0.11,0.07,0.21,0.16,0.31,0.25c0.05,0.04,0.1,0.07,0.14,0.12c0,0,0,0,0,0c0,0,0,0,0,0c0,0-0.3,0.08-0.62,0.16
				c-0.07,0.02-0.14,0.04-0.21,0.06c-0.01,0-0.03,0.01-0.04,0.01c-0.03,0.01-0.06,0.02-0.08,0.03c-0.03,0.01-0.07,0.02-0.1,0.03
				c0,0,0,0-0.01,0c-0.05,0.02-0.1,0.03-0.14,0.05c-0.03,0.01-0.09,0.03-0.16,0.04c-0.02,0.01-0.04,0.01-0.07,0.02
				c-0.06,0.01-0.12,0.02-0.19,0.03c-0.02,0-0.03,0.01-0.05,0.01c-0.01,0-0.02,0-0.03,0c-0.03,0.01-0.07,0.01-0.11,0.01
				c-0.11,0.02-0.24,0.03-0.37,0.04c-0.01,0-0.01,0-0.02,0c-0.16,0.01-0.34,0.02-0.52,0.02c-0.01,0-0.01,0-0.02,0
				c-0.01,0-0.01,0-0.02,0C25.2,51.58,24.57,51.51,23.97,51.3z M27.9,52.95c-0.03,0-0.06,0.01-0.09,0.01
				c-0.16,0.02-0.32,0.03-0.48,0.03H27.3c-0.02,0-0.03,0-0.05,0c-0.05,0-0.1-0.01-0.15-0.01c-0.16-0.01-0.31-0.03-0.45-0.06
				c-0.05-0.01-0.1-0.03-0.16-0.04c-0.15-0.04-0.29-0.1-0.43-0.16c-0.05-0.02-0.1-0.05-0.14-0.08c-0.18-0.11-0.35-0.23-0.5-0.38
				c0,0,0,0,0,0c0,0,0,0,0,0c0,0,0.1,0.02,0.27,0.03c0.34,0.03,1.01,0.04,2.03-0.14c0.22-0.04,0.46-0.09,0.71-0.15
				c0,0,0.12-0.05,0.32-0.12c0.01,0,0.02-0.01,0.03-0.01c0.06-0.02,0.12-0.04,0.19-0.05c0.33-0.08,0.79-0.14,1.3-0.08c0,0,0,0,0,0
				c0,0,0,0,0,0c0,0-0.51,0.34-0.81,0.64c0,0-0.01,0.01-0.01,0.01c-0.03,0.03-0.09,0.07-0.17,0.11c-0.02,0.01-0.03,0.02-0.05,0.03
				c-0.09,0.05-0.19,0.09-0.31,0.14c-0.02,0.01-0.05,0.02-0.07,0.03c-0.12,0.05-0.26,0.09-0.41,0.14c-0.01,0-0.02,0.01-0.03,0.01
				C28.24,52.89,28.07,52.92,27.9,52.95z M29.35,54.02c-0.01,0-0.01,0-0.02,0c-0.1-0.02-0.21-0.04-0.31-0.07
				c-0.02-0.01-0.04-0.02-0.06-0.03c-0.08-0.03-0.17-0.06-0.25-0.11c-0.04-0.02-0.07-0.05-0.1-0.07c-0.06-0.04-0.12-0.08-0.18-0.13
				l0,0c0,0,0,0,0,0c0.01,0,0.95-0.22,1.85-0.54c0.3-0.11,0.59-0.23,0.85-0.35c0,0,0.06,0.02,0.14,0.04c0.01,0,0.03,0.01,0.05,0.01
				c0.02,0.01,0.05,0.01,0.08,0.02c0.04,0.01,0.08,0.02,0.12,0.03c0.01,0,0.02,0,0.03,0.01c0.17,0.03,0.37,0.07,0.58,0.08
				c0.01,0,0.02,0,0.03,0c0.05,0,0.11,0,0.16,0.01c0.03,0,0.06,0,0.09,0c0.13,0,0.26-0.01,0.38-0.03c0,0-0.03,0.02-0.06,0.04
				c0,0-0.01,0-0.01,0.01c-0.01,0-0.01,0-0.02,0.01C32.34,53.19,30.69,54.22,29.35,54.02z M34.05,53.83
				c-0.01,0.01-0.02,0.01-0.03,0.02c-0.05,0.03-0.09,0.07-0.16,0.11c-0.02,0.02-0.05,0.03-0.07,0.05c-0.06,0.04-0.12,0.08-0.2,0.13
				c-0.03,0.02-0.06,0.03-0.09,0.05c-0.12,0.07-0.24,0.13-0.38,0.18c-0.07,0.03-0.13,0.06-0.2,0.08c-0.06,0.02-0.13,0.03-0.19,0.05
				c-0.08,0.02-0.16,0.04-0.25,0.05c-0.06,0.01-0.12,0.01-0.19,0.02c-0.04,0-0.08,0.01-0.11,0.01c-0.06,0-0.12-0.01-0.18-0.02
				c-0.04,0-0.08,0-0.12-0.01c-0.01,0-0.03-0.01-0.04-0.01c-0.15-0.03-0.3-0.07-0.44-0.15c-0.01,0-0.01,0-0.02-0.01
				c0,0,0.06-0.03,0.13-0.07c0.4-0.2,1.63-0.85,1.88-1.13v0c0,0,0,0,0,0c0,0,0,0.05,0,0.11c0,0.11,0.01,0.28,0.04,0.44
				c0.01,0,0.31,0.08,0.77-0.04l0,0c0,0,0,0,0,0C34.2,53.71,34.14,53.76,34.05,53.83z M41.04,66.64
				C41.04,66.64,41.04,66.64,41.04,66.64L41.04,66.64c-0.06-0.02-0.12-0.07-0.19-0.11c-0.17-0.12-0.37-0.29-0.55-0.49
				c-0.11-0.11-0.22-0.23-0.32-0.34v0c0-0.03,0.02-0.18,0.06-0.43c0-0.02,0-0.03,0.01-0.05c0-0.03,0.01-0.07,0.01-0.1
				c0.01-0.05,0.02-0.11,0.03-0.17c0-0.01,0-0.03,0.01-0.04c0.05-0.35,0.12-0.79,0.21-1.28c0,0,0-0.01,0-0.01
				c0.02-0.12,0.04-0.24,0.07-0.37c0.01-0.04,0.02-0.08,0.02-0.12c0.02-0.09,0.03-0.18,0.05-0.27c0.02-0.09,0.04-0.18,0.05-0.27
				c0.01-0.05,0.02-0.1,0.03-0.15c0.12-0.58,0.25-1.17,0.4-1.75l0,0c0,0,0,0,0,0c0,0,0.14,0.29,0.38,0.51L41.04,66.64z M42.92,65.33
				c0,0-0.02,0.04-0.05,0.09c-0.12,0.19-0.43,0.67-0.75,1.03c-0.01,0.01-0.02,0.03-0.03,0.04c-0.01,0.01-0.03,0.03-0.04,0.04
				c-0.05,0.05-0.09,0.1-0.14,0.14v0c0,0,0,0,0,0l0.15-5.44c0.33-0.24,0.66-0.66,0.71-0.76l0,0c0,0,0,0,0,0
				C42.77,60.47,43.09,62.72,42.92,65.33z M42.21,59.88c-0.01,0.01-0.02,0.03-0.04,0.04c0,0,0,0-0.01,0.01
				c-0.05,0.05-0.1,0.09-0.13,0.12c-0.07,0.06-0.14,0.1-0.22,0.12c-0.44,0.12-0.95-0.37-1.11-0.53c0,0-0.01-0.01-0.01-0.01
				c-0.01-0.01-0.01-0.01-0.01-0.01c-0.01-0.01-0.03-0.03-0.03-0.03c-0.43,0.08-2.95,1.24-2.95,1.24c0,0,0,0,0,0l0,0
				c0-0.36-0.48-0.57-0.64-0.63c-0.03-0.01-0.05-0.02-0.05-0.02l0,0l0,0c0.2-0.15,0.38-0.32,0.54-0.49c0.05-0.06,0.1-0.12,0.14-0.18
				c0.1-0.12,0.2-0.24,0.28-0.37c0.05-0.07,0.09-0.14,0.13-0.21c0.07-0.12,0.14-0.24,0.2-0.36c0.03-0.07,0.06-0.13,0.09-0.2
				c0.06-0.13,0.11-0.25,0.15-0.38c0.02-0.05,0.03-0.1,0.05-0.14c0.05-0.14,0.08-0.28,0.12-0.4c0.01-0.02,0.01-0.04,0.02-0.07
				c0.03-0.13,0.06-0.26,0.07-0.36c0-0.01,0.01-0.03,0.01-0.04c0.01-0.08,0.02-0.14,0.03-0.2c0.01-0.06,0.01-0.12,0.02-0.17
				c0.01-0.2,0-0.41-0.02-0.61c-0.01-0.07-0.02-0.14-0.03-0.21c-0.02-0.13-0.04-0.25-0.07-0.37c-0.03-0.1-0.06-0.21-0.09-0.32
				c-0.03-0.08-0.05-0.17-0.08-0.24c-0.06-0.18-0.13-0.37-0.22-0.56c-0.01-0.01-0.01-0.02-0.02-0.03c-0.03-0.06-0.05-0.12-0.08-0.16
				c-0.02-0.03-0.04-0.05-0.05-0.07c-0.02-0.02-0.03-0.05-0.05-0.06c-0.02-0.02-0.05-0.03-0.08-0.05c-0.01-0.01-0.03-0.02-0.04-0.03
				c-0.03-0.01-0.06-0.01-0.09-0.02c-0.02,0-0.04-0.01-0.06-0.01c-0.06,0-0.12,0.01-0.18,0.03c-0.03,0.01-0.05,0.02-0.07,0.03
				c-0.03,0.01-0.06,0.02-0.08,0.03c0,0-0.01,0-0.01,0.01c-0.08,0.04-0.13,0.07-0.13,0.07c-0.17,0.07-0.31,0.12-0.46,0.18
				c-0.07,0.02-0.15,0.06-0.21,0.08c-0.14,0.05-0.27,0.08-0.39,0.12c-0.06,0.02-0.12,0.04-0.17,0.05c-0.64,0.17-1.03,0.18-1.23,0.16
				c-0.01,0-0.03,0-0.04,0c0,0,0,0,0,0c-0.01,0-0.02,0-0.03,0c-0.07-0.01-0.11-0.02-0.12-0.02c0,0,0,0,0,0l0,0
				c0.03-0.09,0.52-0.66,0.96-1.16c0.38-0.43,0.73-0.81,0.74-0.82c-1.11,0.47-2.23,0.56-2.23,0.56c0,0,0,0,0,0l0,0
				c-0.04-0.34,0.34-1.06,0.34-1.07c-0.47,0.06-0.92,0.08-1.32,0.07c-0.01,0-0.03,0-0.04,0c-0.19,0-0.37-0.01-0.54-0.03
				c-0.01,0-0.03,0-0.04,0c-0.14-0.01-0.26-0.03-0.38-0.04c-0.04,0-0.09-0.01-0.13-0.01c-0.07-0.01-0.13-0.02-0.2-0.03
				c-0.08-0.01-0.16-0.02-0.22-0.03c-0.01,0-0.01,0-0.02,0c-0.35-0.06-0.55-0.12-0.55-0.13c-0.02-0.12-0.02-0.24-0.01-0.35
				c0-0.02,0.01-0.04,0.02-0.07c0.01-0.08,0.03-0.17,0.05-0.23c0.01-0.05,0.03-0.07,0.04-0.11c0.04-0.11,0.08-0.18,0.08-0.18
				c-2.38,0-3.81-1.66-3.91-1.78c0,0-0.02-0.02-0.02-0.02c0.27-0.03,0.53-0.21,0.66-0.31c0.01-0.01,0.02-0.02,0.03-0.02c0,0,0,0,0,0
				c0.04-0.03,0.06-0.05,0.06-0.05c-1.71-0.43-2.05-1.05-2.05-1.05l0.62-0.25l0.5-0.2c-1.59-0.15-2.08-0.84-2.19-1.05
				c-0.02-0.04-0.03-0.06-0.03-0.07c0.45-0.05,0.9-0.06,1.36-0.07c0.15,0,0.29,0,0.44,0c0.36,0.01,0.72,0.02,1.08,0.04
				c0.11,0.01,0.21,0.01,0.32,0.02c0.41,0.03,0.82,0.06,1.23,0.09c0.65,0.05,1.32,0.1,2.03,0.14c0.3,0.02,0.57,0.04,0.81,0.07
				c0.12,0.01,0.2,0.03,0.31,0.05c0.1,0.02,0.22,0.03,0.3,0.05c0.7,0.15,0.97,0.36,1.08,0.48c0,0,0.01,0,0.01,0.01
				c0.01,0.01,0.02,0.02,0.02,0.04c0.03,0.04,0.04,0.07,0.04,0.07c0,0.01,0.3,0.57,0.72,1.16c0.06,0.08,0.12,0.17,0.18,0.25
				c0.02,0.02,0.04,0.04,0.05,0.06c0.52,0.61,1.35,0.62,1.36,0.62c0.02,0,0.04,0,0.07,0c0.27,0.01,0.53,0,0.77-0.01
				c0.25-0.02,0.48-0.05,0.7-0.1c0.01,0,0.01,0,0.02-0.01c0.24-0.06,0.46-0.13,0.65-0.22c0.06-0.03,0.11-0.06,0.17-0.09
				c0.13-0.07,0.25-0.14,0.36-0.22c0.05-0.04,0.1-0.09,0.15-0.13c0.09-0.08,0.18-0.17,0.26-0.26c0.04-0.05,0.08-0.1,0.11-0.15
				c0.07-0.1,0.13-0.2,0.19-0.3c0.03-0.05,0.05-0.1,0.08-0.15c0.05-0.11,0.1-0.23,0.14-0.35c0.02-0.05,0.03-0.09,0.05-0.14
				c0.05-0.14,0.08-0.29,0.12-0.43c0-0.02,0.01-0.04,0.02-0.06c0.08-0.35,0.14-0.69,0.22-1.01c0.12-0.49,0.16-0.9,0.15-1.26
				c0-0.02,0-0.03,0-0.05c-0.01-0.16-0.02-0.31-0.05-0.44c0-0.02-0.01-0.04-0.02-0.06c-0.03-0.13-0.06-0.25-0.1-0.35
				c-0.01-0.03-0.02-0.05-0.03-0.08c-0.04-0.1-0.08-0.19-0.13-0.28c-0.02-0.03-0.04-0.06-0.06-0.09c-0.04-0.07-0.09-0.15-0.14-0.22
				c-0.03-0.04-0.05-0.07-0.08-0.1c-0.05-0.06-0.09-0.12-0.14-0.18c-0.02-0.03-0.05-0.05-0.07-0.08c-0.05-0.06-0.11-0.12-0.16-0.18
				c-0.01-0.01-0.01-0.02-0.02-0.03c-0.06-0.07-0.11-0.13-0.15-0.2c-0.01-0.02-0.02-0.03-0.02-0.04c-0.01-0.03-0.02-0.05-0.03-0.07
				c-0.01-0.03-0.03-0.06-0.04-0.1c-0.01-0.02-0.01-0.05-0.02-0.07c0-0.02-0.01-0.04-0.01-0.06c0-0.02,0-0.04,0-0.06
				c0-0.02,0-0.05,0.01-0.07c0-0.02,0.01-0.03,0.01-0.05c0-0.01,0-0.01,0-0.02c0.01-0.01,0.02-0.02,0.02-0.03
				c0.01-0.01,0.01-0.03,0.02-0.04c0-0.01,0.01-0.01,0.02-0.02c0.01-0.02,0.03-0.03,0.04-0.04c0.01-0.01,0.02-0.02,0.03-0.03
				c0.01-0.01,0.02-0.02,0.04-0.03c0.02-0.01,0.03-0.02,0.05-0.03c0.01,0,0.01-0.01,0.02-0.01c0.01,0,0.01-0.01,0.02-0.01
				c0.09-0.05,0.16-0.07,0.16-0.07c0,0,0.01,0,0.01,0c0.31-0.06,0.59-0.09,0.86-0.12c0.05,0,0.1-0.01,0.15-0.01
				c0.25-0.02,0.47-0.02,0.67-0.01c0.04,0,0.08,0.01,0.13,0.01c0.2,0.02,0.38,0.05,0.54,0.1c0.02,0.01,0.04,0.02,0.06,0.03
				c0.16,0.06,0.31,0.13,0.43,0.22c0,0,0.01,0,0.01,0c0,0,0,0,0,0c0.17,0.13,0.3,0.29,0.41,0.48c0.01,0.01,0.01,0.03,0.02,0.04
				c0.1,0.19,0.19,0.4,0.25,0.64c0.01,0.02,0.01,0.04,0.01,0.06c0.06,0.25,0.12,0.52,0.16,0.83c0,0.02,0,0.03,0.01,0.05
				c0.04,0.32,0.08,0.67,0.11,1.05c0.02,0.17,0.03,0.34,0.05,0.51c0.29,2.4,1.02,4.6,1.09,4.82c0,0.01,0.01,0.02,0.01,0.02
				c0,0.02,0,0.03,0.01,0.05c0.07,0.33,0.12,0.66,0.16,0.99c0.01,0.08,0.02,0.17,0.02,0.25c0.03,0.26,0.05,0.52,0.06,0.77
				c0,0.08,0,0.15,0,0.23c0,0.17,0.01,0.33,0.01,0.5c0,0.09-0.01,0.17-0.01,0.26c0,0.07-0.01,0.13-0.01,0.2
				c-0.01,0.24-0.03,0.49-0.06,0.73c-0.01,0.07-0.02,0.13-0.03,0.2c-0.03,0.22-0.07,0.44-0.11,0.66c-0.02,0.08-0.04,0.16-0.05,0.25
				c-0.04,0.19-0.08,0.37-0.14,0.56c-0.03,0.13-0.07,0.25-0.11,0.37c-0.04,0.13-0.08,0.27-0.13,0.4
				C43.68,58.16,42.67,59.41,42.21,59.88z M47.44,65.75c-0.15-0.04-0.28-0.08-0.41-0.14c-0.04-0.02-0.07-0.03-0.1-0.05
				c-0.07-0.04-0.14-0.08-0.2-0.12c-0.03-0.02-0.06-0.05-0.09-0.07c-0.04-0.04-0.08-0.08-0.12-0.12c-0.02-0.03-0.05-0.06-0.07-0.09
				c-0.01-0.02-0.02-0.03-0.03-0.04c-0.01-0.02-0.02-0.05-0.03-0.07c-0.02-0.04-0.04-0.08-0.05-0.12c-0.01-0.03-0.02-0.06-0.02-0.09
				c-0.01-0.04-0.01-0.08-0.01-0.11c0-0.02,0-0.05,0-0.07c0-0.04,0-0.06,0.01-0.09c0-0.01,0-0.02,0-0.03c0-0.01,0,0,0-0.01
				c0-0.03,0.01-0.05,0.01-0.05c0.1,0.11,0.21,0.17,0.32,0.21c0.29,0.1,0.56-0.03,0.61-0.05c0,0,0.01-0.01,0.01-0.01
				c0.01,0.08,0.01,0.14,0,0.18c0,0.01,0,0.03-0.01,0.04c-0.01,0.04-0.02,0.08-0.03,0.12c-0.01,0.03-0.03,0.08-0.04,0.14
				c-0.01,0.02-0.01,0.03-0.02,0.06c0,0.02,0,0.03,0,0.05c0,0.05-0.01,0.1,0.01,0.15c0.04,0.12,0.12,0.22,0.18,0.3
				c0.01,0.01,0.02,0.02,0.02,0.03c0.01,0.01,0,0.01,0.01,0.01C47.42,65.73,47.44,65.75,47.44,65.75
				C47.44,65.75,47.44,65.75,47.44,65.75L47.44,65.75z M50.17,66.92c-0.01,0-0.03,0.01-0.03,0.01c0,0,0,0,0,0l0,0
				c0.04-0.06,0.05-0.11,0.08-0.15c0.11-0.24,0.1-0.36,0.09-0.39c0,0,0-0.01,0-0.01s0-0.01-0.01-0.02c-0.01-0.04-0.05-0.14-0.06-0.3
				c0-0.04,0-0.08,0-0.13c0-0.03,0-0.05,0-0.07c0-0.01,0.01-0.02,0.02-0.02c0.01-0.02,0.01-0.03,0.03-0.05
				c0.02-0.01,0.04-0.03,0.07-0.04c0.01-0.01,0.02-0.01,0.04-0.02c0.02-0.01,0.05-0.01,0.08-0.02c0.02-0.01,0.04-0.01,0.07-0.02
				c0.02,0,0.05,0,0.07-0.01c0.03,0,0.05-0.01,0.08-0.01c0.01,0,0.02,0,0.02,0c0,0,0,0,0.01,0c0.01,0,0.02,0,0.03,0
				c0.02,0,0.04,0.01,0.06,0.01c0.03,0,0.06,0.01,0.09,0.02c0.03,0.01,0.05,0.02,0.07,0.03c0.02,0.01,0.04,0.02,0.06,0.03
				c0.02,0.02,0.04,0.04,0.05,0.06c0.01,0.02,0.03,0.03,0.04,0.05c0.02,0.04,0.04,0.09,0.04,0.14c0,0.08-0.02,0.16-0.04,0.22
				c0,0,0,0,0,0C50.94,66.69,50.28,66.89,50.17,66.92z M52.52,63.04c0.05-0.06,0.1-0.16,0.14-0.26c0-0.01,0-0.01,0.01-0.02
				c0.03-0.09,0.05-0.17,0.05-0.17s0.01-0.03,0.03-0.07c0-0.01,0.01-0.01,0.01-0.02c0.02-0.03,0.04-0.06,0.08-0.09
				c0.01-0.01,0.01-0.02,0.02-0.03c0,0,0.01,0,0.01,0c0.05-0.02,0.11-0.03,0.19,0.01c0.13,0.06,0.24,0.14,0.32,0.25c0,0,0,0,0,0
				c0.26,0.32,0.31,0.76,0.31,0.76c0,0,0,0,0,0c0,0,0,0,0,0c-0.03-0.04-0.07-0.08-0.13-0.1c-0.01,0-0.02,0-0.03-0.01
				c-0.13-0.05-0.29-0.07-0.42-0.08c-0.04,0-0.08,0-0.11,0c0,0,0,0-0.01,0c-0.01,0-0.02,0-0.03,0c-0.05,0-0.08-0.01-0.12-0.02
				c-0.02,0-0.05,0-0.07-0.01c0,0,0,0,0,0c-0.04-0.01-0.08-0.03-0.11-0.05c-0.03-0.02-0.06-0.03-0.08-0.05
				c-0.01-0.01-0.02-0.02-0.03-0.02c-0.01-0.01-0.01-0.01-0.02-0.02C52.53,63.05,52.52,63.04,52.52,63.04c0,0,0.01,0.01,0.01,0.01
				C52.53,63.05,52.52,63.04,52.52,63.04z M52.56,63.89c0,0,0.01,0,0.01,0c0.09,0.01,0.15,0.03,0.15,0.03
				c0.01,0,0.01,0.01,0.02,0.02c0.05,0.03,0.1,0.06,0.13,0.1c0,0,0,0,0,0c0.03,0.04,0.05,0.09,0.07,0.15
				c0.01,0.01,0.02,0.02,0.02,0.04c0.07,0.2,0.06,0.44,0.04,0.65c0,0.01,0,0.02,0,0.03c0,0.04-0.01,0.06-0.01,0.1
				c-0.02,0.16-0.05,0.28-0.05,0.28c0,0,0,0,0,0l0,0c-0.02-0.07-0.06-0.11-0.09-0.16c-0.11-0.18-0.25-0.28-0.34-0.32
				c-0.05-0.02-0.09-0.04-0.09-0.04s-0.04-0.01-0.09-0.03c-0.03-0.01-0.06-0.03-0.1-0.05c-0.01-0.01-0.02-0.01-0.04-0.02
				c-0.04-0.03-0.08-0.06-0.1-0.1c-0.01-0.01-0.01-0.02-0.01-0.03c-0.01-0.01-0.01-0.03-0.02-0.04c-0.03-0.07-0.04-0.14-0.03-0.22
				c0,0,0,0,0,0c0,0,0,0,0,0c0,0,0,0,0,0c0,0,0,0,0,0c0.01-0.08,0.04-0.14,0.07-0.19c0.01-0.02,0.02-0.03,0.03-0.04
				c0.03-0.04,0.06-0.07,0.09-0.09c0.01-0.01,0.01-0.02,0.02-0.02c0.01-0.01,0.02,0,0.03-0.01c0.04-0.02,0.08-0.03,0.12-0.04
				c0.01,0,0.01,0,0.02-0.01c0.02,0,0.04,0,0.07,0c0,0,0.01,0,0.01,0c0,0,0.01,0,0.01,0C52.52,63.89,52.54,63.89,52.56,63.89z
				 M47.67,62.21c-0.04-0.03-0.19-0.13-0.37-0.25c-0.28-0.19-0.62-0.43-0.71-0.49c-0.15-0.11-0.12-0.35-0.06-0.45c0,0,0,0,0,0
				c0.02-0.02,0.04-0.05,0.07-0.07c0.09-0.06,0.23-0.08,0.41,0c0.02,0.01,0.03,0.01,0.05,0.02c0,0,0.03,0.02,0.07,0.05
				c0.28,0.2,1.37,0.95,1.78,1.22c0.06,0.04,0.11,0.07,0.14,0.08c0.04,0.02,0.09,0.05,0.13,0.07c0.03,0.02,0.06,0.03,0.1,0.05
				c0.05,0.02,0.11,0.04,0.16,0.07c0.05,0.02,0.09,0.04,0.15,0.05c0.06,0.02,0.12,0.02,0.19,0.03c0.06,0.01,0.12,0.02,0.18,0.03
				c0.1,0,0.21-0.02,0.32-0.04c0.03-0.01,0.06,0,0.09-0.01c0.31-0.09,0.49-0.16,0.61-0.23c0.12-0.07,0.19-0.14,0.27-0.25
				c0.05-0.07,0.12-0.15,0.21-0.21c0.01-0.01,0.01-0.01,0.02-0.02c0.06-0.04,0.14-0.07,0.22-0.08c0.01,0,0.01-0.01,0.02-0.01
				c0,0,0.01,0,0.01,0c0.07-0.01,0.14,0,0.22,0.03c0.02,0.01,0.04,0.02,0.07,0.02c0.07,0.03,0.14,0.07,0.21,0.12
				c0.01,0.01,0.02,0.01,0.03,0.02c0,0,0.15,0.14,0.18,0.3c0.01,0.03-0.01,0.06-0.01,0.1c0,0.02,0,0.05-0.01,0.07
				c-0.01,0.01-0.01,0.02-0.01,0.04c-0.02,0.04-0.03,0.08-0.04,0.11c0,0.01-0.01,0.02-0.01,0.04c-0.01,0.02-0.01,0.05-0.02,0.06
				c-0.01,0.03-0.01,0.06-0.02,0.09c-0.02,0.03-0.06,0.07-0.12,0.08c0,0,0,0-0.01,0c0,0-0.01,0-0.01,0c-0.05,0.01-0.1,0-0.16-0.04
				c0,0,0,0,0,0L52,62.79c-0.05-0.03-0.11-0.07-0.17-0.1c-0.02-0.01-0.05-0.03-0.07-0.04c-0.06-0.03-0.11-0.04-0.15-0.05
				c-0.01,0-0.02-0.01-0.03-0.01c-0.01,0-0.02,0-0.03,0c-0.03,0.01-0.05,0.03-0.04,0.09c0.01,0.06,0.04,0.11,0.07,0.15
				c0.01,0.02,0.03,0.03,0.05,0.05c0.02,0.02,0.04,0.04,0.07,0.06c0.03,0.02,0.06,0.03,0.09,0.04c0.02,0.01,0.03,0.02,0.05,0.02
				c0.03,0.01,0.06,0.02,0.09,0.03c0.01,0,0.02,0.01,0.03,0.01c0.02,0.01,0.06,0.01,0.1,0.03c0.02,0.01,0.04,0.02,0.06,0.03
				c0.02,0.01,0.04,0.01,0.06,0.03c0.03,0.02,0.06,0.05,0.08,0.08c0.01,0.01,0.02,0.02,0.03,0.03c0.03,0.04,0.04,0.08,0.06,0.14
				c0,0.01,0.01,0.02,0.01,0.03c0,0,0.01,0.02,0.01,0.04c0,0.01,0,0.01,0,0.02c0,0.02,0,0.04-0.01,0.07c0,0.01,0,0.01,0,0.02
				c0,0-0.01,0-0.01,0c-0.02,0.03-0.05,0.05-0.1,0.05c-0.1,0.01-0.18,0.04-0.24,0.08c-0.03,0.02-0.05,0.05-0.07,0.07
				c-0.02,0.02-0.06,0.05-0.07,0.07c-0.01,0.03-0.03,0.06-0.05,0.09c-0.01,0.01-0.01,0.02-0.02,0.03c-0.02,0.02-0.04,0.04-0.07,0.05
				c-0.01,0-0.01,0.01-0.02,0.02c0,0-0.01,0-0.01,0c-0.04,0.01-0.08,0-0.14-0.05c-0.04-0.03-0.09-0.09-0.14-0.14c0,0,0,0-0.01-0.01
				c0,0,0,0,0,0c-0.05-0.05-0.1-0.11-0.16-0.16c-0.02-0.02-0.04-0.03-0.06-0.05c-0.05-0.04-0.11-0.08-0.17-0.12
				c-0.03-0.02-0.05-0.03-0.08-0.05c-0.09-0.04-0.19-0.08-0.31-0.1c0,0-0.01,0-0.01,0c-0.09-0.01-0.18-0.02-0.27-0.03
				c-0.01,0-0.03,0-0.04,0c-0.09-0.01-0.17-0.01-0.25-0.01c-0.07,0-0.14,0.01-0.19,0.02c-0.01,0-0.02,0-0.02,0.01
				c-0.05,0.01-0.08,0.03-0.09,0.05c0,0.01,0,0.01,0,0.02c0,0.01,0,0.02,0.01,0.04c0,0,0.01,0.01,0.01,0.01
				c0.02,0.02,0.04,0.04,0.07,0.06c0.08,0.06,0.17,0.13,0.25,0.21c0.02,0.02,0.04,0.04,0.06,0.07c0.06,0.06,0.12,0.13,0.17,0.19
				c0.04,0.05,0.07,0.09,0.1,0.13c0.03,0.04,0.06,0.07,0.08,0.1c0.05,0.07,0.09,0.13,0.11,0.16c0,0,0.15,0.17,0.23,0.18
				c0.09,0.02,0.27,0.17,0.28,0.27c0,0.04,0.03,0.12,0.04,0.2c0,0.02,0.01,0.04,0.01,0.07c0.01,0.06,0,0.12-0.03,0.15
				c0,0,0,0,0,0.01c-0.02,0.03-0.06,0.04-0.11,0.04c-0.01,0-0.01,0-0.02,0c-0.26-0.02-0.59-0.03-0.72,0.09c-0.01,0-0.08,0-0.15-0.06
				c0,0,0,0-0.01,0c-0.01-0.01-0.01-0.02-0.02-0.03c-0.02-0.02-0.03-0.04-0.05-0.07c-0.04-0.07-0.07-0.16-0.1-0.26
				c-0.04-0.12-0.06-0.24-0.04-0.32c0-0.02-0.02-0.07-0.05-0.13c0-0.01-0.01-0.02-0.02-0.03c-0.03-0.05-0.07-0.11-0.12-0.18
				c-0.01-0.02-0.02-0.03-0.04-0.05c-0.07-0.09-0.15-0.18-0.23-0.27c-0.01-0.01-0.02-0.03-0.04-0.04c-0.09-0.1-0.19-0.19-0.3-0.27
				c-0.03-0.03-0.06-0.05-0.1-0.07c-0.08-0.06-0.17-0.12-0.25-0.16c-0.03-0.02-0.07-0.04-0.1-0.05c-0.12-0.06-0.24-0.1-0.35-0.12
				c-0.15-0.02-0.28,0-0.41,0.02c-0.05,0.01-0.1,0.01-0.14,0.02c-0.02,0.01-0.03,0.02-0.05,0.02c-0.11,0.04-0.21,0.09-0.29,0.17
				c-0.05,0.05-0.09,0.1-0.12,0.15c-0.01,0.02-0.03,0.04-0.04,0.06c-0.03,0.08-0.05,0.16-0.04,0.23c0.01,0.07,0.01,0.14,0,0.2
				c0,0,0,0.01,0,0.01c-0.01,0.06-0.04,0.11-0.07,0.15c0,0,0,0,0,0.01c-0.02,0.02-0.04,0.03-0.05,0.04
				c-0.02,0.01-0.03,0.03-0.05,0.04c-0.04,0.02-0.08,0.03-0.13,0.03c-0.01,0-0.02,0-0.03,0c-0.02,0-0.05,0-0.08-0.01
				c-0.02,0-0.04-0.01-0.06-0.02c-0.03-0.01-0.06-0.02-0.09-0.03c-0.02-0.01-0.04-0.02-0.07-0.03c-0.03-0.02-0.06-0.04-0.1-0.06
				c-0.02-0.02-0.04-0.03-0.06-0.05c-0.03-0.02-0.05-0.05-0.07-0.08c-0.01-0.02-0.03-0.03-0.04-0.04c-0.01-0.01-0.01-0.03-0.01-0.04
				c-0.01-0.02-0.02-0.05-0.03-0.08c-0.01-0.04-0.02-0.08-0.03-0.13c0-0.03,0-0.06,0-0.08c0-0.06,0.01-0.12,0.02-0.18
				c0.01-0.03,0.01-0.06,0.02-0.09c0.03-0.08,0.06-0.17,0.11-0.27c0.01-0.02,0.01-0.03,0.02-0.05c0,0,0.1-0.2,0.49-0.32
				c0.13-0.04,0.29-0.07,0.49-0.07c0.12,0,0.21-0.02,0.29-0.04c0.02-0.01,0.03-0.01,0.05-0.02c0.06-0.03,0.11-0.06,0.12-0.11
				c0,0,0-0.01,0-0.01c0.01-0.03,0.01-0.07,0-0.1c0-0.01-0.01-0.02-0.01-0.03c-0.01-0.03-0.03-0.06-0.05-0.09
				c0-0.01-0.01-0.01-0.01-0.02c-0.02-0.03-0.05-0.06-0.07-0.09c0,0,0,0,0,0C47.71,62.24,47.68,62.22,47.67,62.21z M45.72,58.76
				c0.03,0.05,0.06,0.09,0.08,0.14c0.05,0.09,0.11,0.19,0.16,0.27c0.01,0.02,0.03,0.03,0.04,0.05c0.08,0.11,0.15,0.21,0.23,0.31
				c0,0,0.05,0.08,0.09,0.18c0.01,0.01,0.01,0.02,0.01,0.03c0,0.01,0.01,0.02,0.01,0.03c0.04,0.12,0.08,0.26,0.06,0.4
				c-0.01,0.08-0.05,0.17-0.12,0.26c-0.01,0.01-0.02,0.02-0.02,0.02c-0.03,0.03-0.06,0.07-0.09,0.09c-0.02,0.01-0.04,0.02-0.06,0.03
				c-0.03,0.02-0.06,0.04-0.1,0.05c-0.01,0-0.01,0.01-0.02,0.01c-0.03,0.01-0.07,0.01-0.12,0.02c-0.01,0-0.02,0-0.03,0c0,0,0,0,0,0
				c0,0,0,0,0,0c-0.01,0-0.03,0-0.05-0.01c-0.04,0-0.08-0.01-0.12-0.02c-0.02-0.01-0.05-0.02-0.07-0.03
				c-0.04-0.02-0.09-0.04-0.14-0.07c-0.03-0.02-0.05-0.03-0.08-0.05c-0.08-0.06-0.15-0.13-0.24-0.22c-0.01-0.01-0.69-0.77-1.24-1.03
				c0.01-0.01,0.46-0.76,0.81-1.7c0.08-0.21,0.15-0.43,0.22-0.66l0,0c0,0,0,0,0,0c0,0.01,0.12,0.41,0.32,0.91
				c0.01,0.04,0.03,0.07,0.04,0.11c0.03,0.07,0.06,0.15,0.09,0.22c0.03,0.07,0.06,0.14,0.09,0.21c0.03,0.06,0.06,0.12,0.09,0.18
				C45.63,58.59,45.67,58.68,45.72,58.76z M48.69,53.15c0,0-0.14-0.01-0.35-0.04c-0.02,0-0.04-0.01-0.06-0.01
				c-0.02,0-0.04-0.01-0.06-0.01c-0.25-0.04-0.57-0.1-0.94-0.21c-0.26-0.07-0.54-0.17-0.81-0.28c0.01,0.01,1.22,1.33,1.59,1.81
				c0.06,0.08,0.1,0.14,0.11,0.16l0,0c0,0,0,0,0,0c0,0-0.19,0.06-0.63,0.02c-0.02,0-0.04,0-0.06-0.01c-0.1-0.01-0.21-0.03-0.33-0.05
				c-0.04-0.01-0.08-0.01-0.12-0.02c-0.04-0.01-0.08-0.01-0.12-0.02c-0.08-0.02-0.18-0.05-0.27-0.08c-0.06-0.02-0.1-0.03-0.16-0.05
				c-0.2-0.06-0.42-0.13-0.66-0.23c0,0,0,0,0,0c0,0,0,0,0,0c0.02-0.15,0.04-0.32,0.06-0.49c0.01-0.06,0.01-0.14,0.01-0.21
				c0.01-0.12,0.02-0.23,0.02-0.36c0-0.04,0-0.08,0-0.11c0.04-1.17-0.05-2.6-0.31-3.77c0,0,0,0,0,0c0,0,0,0,0,0
				c0.33,0.04,0.65,0.05,0.99,0.03c0.01,0,0.9-0.01,1.41-0.69c0.09-0.12,0.18-0.24,0.26-0.36c0.03-0.05,0.07-0.1,0.1-0.15
				c0,0,0-0.01,0.01-0.01c0.05-0.08,0.1-0.16,0.15-0.23c0-0.01,0.01-0.01,0.01-0.02c0.04-0.07,0.08-0.13,0.12-0.19
				c0.16-0.27,0.26-0.45,0.26-0.45c0,0,0-0.01,0-0.01c0,0,0-0.01,0.01-0.02c0,0,0,0,0,0c0.04-0.09,0.25-0.37,1.13-0.57
				c0.12-0.03,0.28-0.05,0.43-0.07c0.06-0.01,0.11-0.02,0.18-0.03c0.24-0.03,0.51-0.05,0.81-0.07c0.71-0.04,1.38-0.09,2.02-0.14
				c0.42-0.03,0.83-0.06,1.23-0.09c0.11-0.01,0.23-0.01,0.34-0.02c0.36-0.02,0.71-0.03,1.06-0.04c0.16,0,0.31,0,0.47,0
				c0.09,0,0.18,0,0.27,0c0.34,0.01,0.67,0.03,1,0.06c0.03,0,0.05,0,0.08,0l0,0c0,0,0,0,0,0c0,0-0.01,0.02-0.01,0.03c0,0,0,0,0,0.01
				c0,0.01-0.01,0.02-0.01,0.02c-0.11,0.21-0.6,0.9-2.19,1.05l0.58,0.24l0.54,0.22l0,0l0,0c0,0-0.05,0.07-0.15,0.17
				c-0.02,0.02-0.03,0.03-0.05,0.05c0,0-0.01,0.01-0.01,0.01c-0.25,0.22-0.78,0.55-1.83,0.82c0,0,0.21,0.19,0.47,0.31
				c0.09,0.04,0.18,0.07,0.28,0.08l0,0c0,0,0,0,0,0c0,0-0.03,0.03-0.06,0.07c0,0,0,0,0,0c-0.01,0.01-0.03,0.03-0.04,0.04
				c-0.32,0.34-1.35,1.32-2.95,1.6c-0.28,0.05-0.57,0.08-0.87,0.08c0,0,0.26,0.45,0.19,0.9c0,0.01,0,0.02,0,0.04
				c0,0-0.09,0.03-0.22,0.06c-0.02,0-0.03,0.01-0.04,0.01c-0.01,0-0.03,0.01-0.04,0.01c-0.53,0.12-1.7,0.32-3.14,0.13
				c0,0,0.03,0.05,0.06,0.13c0.01,0.02,0.02,0.05,0.03,0.07c0.01,0.02,0.01,0.03,0.02,0.05c0,0,0,0,0,0.01c0,0,0,0,0,0
				c0.01,0.02,0.02,0.04,0.02,0.06C48.6,52.63,48.72,52.96,48.69,53.15C48.69,53.15,48.69,53.15,48.69,53.15z M51.52,54.37
				c-0.14,0.07-0.29,0.12-0.43,0.14c-0.06,0.01-0.11,0.01-0.16,0.02c-0.06,0.01-0.12,0.02-0.18,0.02c-0.04,0-0.08-0.01-0.11-0.01
				c-0.06,0-0.13-0.01-0.19-0.02c-0.08-0.01-0.16-0.03-0.24-0.05c-0.07-0.02-0.13-0.03-0.19-0.05c-0.06-0.02-0.12-0.05-0.19-0.07
				c-0.15-0.06-0.28-0.12-0.41-0.19c-0.03-0.02-0.06-0.03-0.08-0.04c-0.08-0.04-0.14-0.09-0.2-0.13c-0.02-0.02-0.05-0.03-0.07-0.05
				c-0.06-0.04-0.11-0.08-0.15-0.11c-0.01-0.01-0.02-0.02-0.04-0.03c-0.09-0.07-0.15-0.12-0.15-0.12c0,0,0,0,0,0l0,0
				c0.24,0.06,0.43,0.08,0.56,0.07c0.13-0.01,0.21-0.03,0.21-0.03c0.04-0.26,0.04-0.55,0.04-0.55c0.18,0.2,0.88,0.6,1.4,0.88
				c0.02,0.01,0.03,0.02,0.05,0.03c0.01,0.01,0.02,0.01,0.03,0.01c0.3,0.16,0.53,0.28,0.53,0.28
				C51.54,54.36,51.53,54.36,51.52,54.37z M54.5,53.59c-0.01,0.01-0.03,0.02-0.05,0.03c-0.08,0.06-0.16,0.12-0.24,0.16
				c-0.09,0.05-0.19,0.09-0.29,0.12c-0.01,0-0.01,0.01-0.02,0.01c-1.4,0.45-3.32-0.76-3.7-1.01c-0.04-0.03-0.07-0.04-0.07-0.05
				c0,0,0,0,0,0c0,0,0,0,0,0c0,0,0,0,0,0c0,0,0,0,0,0h0h0c0.71,0.13,1.66-0.17,1.67-0.17C52.82,53.2,54.48,53.59,54.5,53.59
				C54.5,53.59,54.5,53.59,54.5,53.59L54.5,53.59z M57.49,52.22c-0.15,0.15-0.31,0.27-0.49,0.38c-0.05,0.03-0.1,0.06-0.15,0.08
				c-0.13,0.06-0.27,0.12-0.41,0.16c-0.06,0.02-0.11,0.04-0.17,0.05c-0.14,0.03-0.3,0.05-0.45,0.06c-0.05,0-0.09,0.01-0.14,0.01
				c-0.01,0-0.02,0-0.03,0c-0.02,0-0.03,0-0.04,0c-0.16,0-0.32-0.01-0.47-0.03c-0.04,0-0.08-0.01-0.12-0.02
				c-0.17-0.03-0.33-0.06-0.48-0.1c-0.02-0.01-0.04-0.01-0.07-0.02c-0.14-0.04-0.26-0.08-0.38-0.13c-0.02-0.01-0.05-0.02-0.07-0.03
				c-0.12-0.05-0.23-0.1-0.32-0.15c-0.01-0.01-0.03-0.01-0.04-0.02c-0.08-0.05-0.15-0.09-0.19-0.13c-0.3-0.3-0.81-0.64-0.81-0.64
				c0,0,0,0,0,0c0.14-0.02,0.27-0.02,0.4-0.02c0.01,0,0.01,0,0.02,0c0.02,0,0.03,0,0.05,0c0.18,0,0.34,0.02,0.49,0.04
				c0.01,0,0.03,0,0.04,0c0.16,0.03,0.3,0.06,0.42,0.09c0.01,0,0.03,0.01,0.04,0.01c0.12,0.03,0.21,0.06,0.27,0.09
				c0.01,0,0.01,0,0.01,0.01c0.06,0.02,0.1,0.04,0.1,0.04c0.05,0.01,0.09,0.02,0.14,0.03c1.58,0.35,2.5,0.28,2.77,0.24
				c0.03,0,0.05-0.01,0.06-0.01C57.48,52.22,57.5,52.22,57.49,52.22C57.5,52.22,57.5,52.22,57.49,52.22L57.49,52.22
				C57.5,52.22,57.49,52.22,57.49,52.22z M60.54,50.12C60.54,50.12,60.54,50.12,60.54,50.12c-0.02,0.03-0.04,0.06-0.06,0.08
				C60.5,50.18,60.52,50.15,60.54,50.12c-0.3,0.43-0.68,0.72-1.09,0.94c0.02-0.01,0.03-0.01,0.05-0.02
				c-0.02,0.01-0.05,0.02-0.07,0.03c-0.09,0.04-0.18,0.09-0.27,0.12c-0.03,0.01-0.06,0.02-0.09,0.03c-0.03,0.01-0.05,0.02-0.08,0.03
				c-0.08,0.03-0.15,0.05-0.23,0.08c-0.04,0.01-0.09,0.02-0.13,0.04c0,0-0.01,0-0.01,0c-0.02,0.01-0.05,0.01-0.07,0.02
				c-0.08,0.02-0.15,0.03-0.23,0.05c-0.05,0.01-0.1,0.02-0.15,0.03c-0.01,0-0.02,0-0.03,0.01c-0.01,0-0.02,0-0.03,0.01
				c-0.13,0.02-0.25,0.03-0.37,0.04c-0.02,0-0.03,0-0.05,0.01c-0.02,0-0.04,0-0.06,0c-0.14,0.01-0.28,0.01-0.41,0.02
				c-0.02,0-0.04,0-0.05,0c-0.02,0-0.04,0-0.06,0c-0.17,0-0.34-0.01-0.49-0.02c-0.01,0-0.02,0-0.03,0c-0.15-0.01-0.28-0.03-0.4-0.04
				c-0.03,0-0.05-0.01-0.07-0.01c-0.11-0.02-0.2-0.03-0.28-0.05c-0.03-0.01-0.06-0.01-0.08-0.02c-0.04-0.01-0.07-0.02-0.09-0.02
				c-0.01,0-0.04-0.01-0.05-0.01c-0.15-0.06-0.4-0.13-0.64-0.2c-0.29-0.08-0.56-0.15-0.56-0.15c0,0,0,0,0,0l0,0
				c0.15-0.14,0.3-0.26,0.46-0.37c0.02-0.01,0.04-0.02,0.06-0.03c0.14-0.09,0.28-0.16,0.43-0.22c0.03-0.01,0.05-0.02,0.08-0.03
				c0.14-0.05,0.28-0.1,0.42-0.13c0.03-0.01,0.07-0.01,0.1-0.02c0.13-0.03,0.27-0.05,0.4-0.06c0.05,0,0.09-0.01,0.13-0.01
				c0.12-0.01,0.24-0.02,0.36-0.02c0.06,0,0.12,0,0.18,0c0.1,0,0.2,0.01,0.3,0.01c0.08,0.01,0.15,0.01,0.23,0.02
				c0.07,0.01,0.15,0.01,0.22,0.02c0.14,0.02,0.27,0.03,0.4,0.05l0.08,0.01c0.19,0.02,0.38,0.03,0.57,0.03c0.07,0,0.14,0,0.2,0
				c0.02,0,0.04,0,0.07,0c0.11,0,0.22-0.01,0.33-0.02c0.01,0,0.02,0,0.03,0C60.07,50.22,60.53,50.12,60.54,50.12
				C60.54,50.12,60.54,50.12,60.54,50.12L60.54,50.12z M63.22,48.12c-0.02,0.08-0.04,0.15-0.08,0.22c-0.01,0.03-0.04,0.05-0.06,0.08
				c-0.04,0.06-0.07,0.11-0.12,0.16c-0.02,0.02-0.05,0.04-0.07,0.06c-0.05,0.05-0.11,0.1-0.17,0.14c-0.03,0.02-0.06,0.03-0.08,0.05
				c-0.07,0.04-0.13,0.09-0.21,0.12c-0.03,0.02-0.07,0.03-0.1,0.05c-0.07,0.03-0.15,0.07-0.22,0.1c-0.04,0.02-0.09,0.03-0.14,0.05
				c-0.07,0.02-0.14,0.05-0.21,0.07c-0.08,0.02-0.15,0.04-0.23,0.06c-0.04,0.01-0.08,0.02-0.13,0.03c-0.13,0.03-0.25,0.05-0.38,0.08
				c-0.15,0.03-0.3,0.05-0.46,0.07c-0.03,0-0.06,0.01-0.1,0.01c-0.12,0.01-0.24,0.03-0.36,0.03c-0.03,0-0.06,0-0.09,0.01
				c-0.13,0.01-0.26,0.02-0.38,0.02c-0.01,0-0.03,0-0.04,0c-0.29,0.01-0.55,0.01-0.75,0c-0.02,0-0.04,0-0.05,0
				c-0.1-0.01-0.18-0.01-0.24-0.02c-0.63-0.08-2.04-0.21-2.05-0.21c0,0,0,0,0,0l0,0c0.01-0.01,0.02-0.02,0.04-0.04
				c0.09-0.12,0.19-0.22,0.29-0.31c0.04-0.04,0.09-0.08,0.13-0.11c0.07-0.06,0.14-0.11,0.22-0.16c0.03-0.02,0.07-0.05,0.1-0.07
				c0,0,0,0,0,0c0.02-0.01,0.03-0.02,0.05-0.02c0.08-0.05,0.16-0.08,0.24-0.12c0.04-0.02,0.08-0.04,0.13-0.06c0,0,0,0,0.01,0
				c0.12-0.05,0.25-0.08,0.38-0.11c0.02,0,0.04-0.01,0.06-0.01c0.03-0.01,0.06-0.01,0.09-0.01c0.1-0.02,0.2-0.03,0.3-0.04
				c0.02,0,0.05-0.01,0.07-0.01c0.03,0,0.05,0,0.08-0.01c0.13-0.01,0.26-0.01,0.4-0.02c0,0,0.01,0,0.01,0c0.01,0,0.02,0,0.03,0
				c0,0,0.01,0,0.01,0c0,0,0.01,0,0.01,0c0.01,0,0.03,0,0.04,0c0.12,0,0.24,0,0.36,0.01c0.03,0,0.06,0,0.09,0
				c0.09,0,0.18,0.01,0.27,0.01c0.09,0,0.19,0.01,0.28,0.01c0.06,0,0.11,0,0.17,0c1.47,0.05,2.86-0.18,2.87-0.18
				C63.23,48.09,63.22,48.1,63.22,48.12z M64.62,46.44c-0.02,0.04-0.04,0.07-0.06,0.11c-0.03,0.05-0.08,0.1-0.13,0.15
				c-0.04,0.04-0.08,0.09-0.13,0.13c-0.01,0.01-0.03,0.02-0.05,0.03c-0.32,0.24-0.77,0.41-1.3,0.52c-0.04,0.01-0.09,0.02-0.13,0.02
				c-0.18,0.03-0.36,0.06-0.54,0.08c-0.07,0.01-0.14,0.02-0.21,0.02c-0.26,0.03-0.52,0.05-0.78,0.06c-0.01,0-0.01,0-0.02,0
				c-0.2,0.01-0.4,0.01-0.59,0.01c-0.19,0-0.38,0-0.56-0.01c-0.06,0-0.11,0-0.17-0.01c-0.12,0-0.23-0.01-0.34-0.01
				c-0.07,0-0.14-0.01-0.21-0.01c-0.09-0.01-0.17-0.01-0.25-0.02c-0.07-0.01-0.14-0.01-0.2-0.02c-0.07-0.01-0.13-0.01-0.19-0.02
				c-0.06-0.01-0.12-0.01-0.17-0.02c-0.06-0.01-0.11-0.01-0.16-0.02c-0.04,0-0.08-0.01-0.11-0.01c-0.06-0.01-0.1-0.01-0.14-0.02
				c-0.01,0-0.02,0-0.03,0c-0.04,0-0.06-0.01-0.07-0.01c0.09-0.15,0.2-0.29,0.32-0.41c0.01-0.01,0.02-0.03,0.03-0.04
				c0.03-0.03,0.08-0.06,0.11-0.09c0.08-0.07,0.17-0.14,0.27-0.21c0,0,0.01-0.01,0.01-0.01c0.02-0.02,0.04-0.03,0.06-0.05
				c0.04-0.02,0.08-0.04,0.11-0.06c0.1-0.06,0.2-0.11,0.3-0.15c0.01-0.01,0.03-0.01,0.04-0.02c0.02-0.01,0.04-0.02,0.07-0.03
				c0.02-0.01,0.05-0.02,0.07-0.03c0.16-0.06,0.32-0.12,0.49-0.16c0.01,0,0.01,0,0.02,0c0.04-0.01,0.09-0.02,0.13-0.03
				c0.13-0.03,0.26-0.06,0.4-0.08c0.03,0,0.05-0.01,0.08-0.01c0.03,0,0.06,0,0.09-0.01c0.13-0.02,0.25-0.03,0.38-0.03
				c0.04,0,0.08-0.01,0.12-0.01c0,0,0,0,0.01,0c0.01,0,0.02,0,0.03,0c0.04,0,0.09-0.01,0.13-0.01c0.09,0,0.16,0.01,0.25,0.01
				c0.04,0,0.08,0,0.12,0c0.01,0,0.01,0,0.02,0c0.16,0.01,0.31,0.03,0.45,0.06c1.1,0.21,2.51,0.08,2.52,0.08
				C64.72,46.24,64.68,46.34,64.62,46.44z"/>
		</g>
	</g>
	<g>
		<path class="st0" d="M77.91,36.56c0-0.43,0.33-0.8,0.8-0.8h2.94c0.43,0,0.8,0.37,0.8,0.8v9.02l8.42-9.49
			c0.13-0.17,0.33-0.33,0.63-0.33h3.34c0.63,0,0.97,0.7,0.54,1.2l-8.72,9.82l9.36,11.19c0.33,0.43,0.07,1.17-0.6,1.17h-3.64
			c-0.33,0-0.53-0.13-0.6-0.23l-8.72-10.76v10.19c0,0.43-0.37,0.8-0.8,0.8h-2.94c-0.47,0-0.8-0.37-0.8-0.8V36.56z"/>
		<path class="st0" d="M99.73,36.4c0-0.33,0.27-0.63,0.63-0.63h9.56c4.01,0,7.28,3.21,7.28,7.18c0,3.07-2.04,5.58-4.95,6.75
			l4.58,8.49c0.23,0.43,0,0.97-0.57,0.97h-3.51c-0.3,0-0.47-0.17-0.53-0.3L107.78,50h-3.71v8.52c0,0.33-0.3,0.63-0.63,0.63h-3.07
			c-0.37,0-0.63-0.3-0.63-0.63V36.4z M109.55,46.42c1.77,0,3.31-1.54,3.31-3.41c0-1.77-1.54-3.24-3.31-3.24h-5.45v6.65H109.55z"/>
		<path class="st0" d="M119.94,58.28l10.39-22.49c0.1-0.2,0.27-0.37,0.57-0.37h0.33c0.33,0,0.47,0.17,0.57,0.37l10.29,22.49
			c0.2,0.43-0.07,0.87-0.57,0.87h-2.91c-0.5,0-0.74-0.2-0.97-0.67l-1.64-3.61h-9.99l-1.64,3.61c-0.13,0.33-0.43,0.67-0.97,0.67
			h-2.91C120.01,59.15,119.74,58.72,119.94,58.28z M134.38,51.17l-3.34-7.35h-0.1l-3.27,7.35H134.38z"/>
		<path class="st0" d="M148.57,35.93c0.03-0.27,0.23-0.5,0.6-0.5h0.53c0.27,0,0.47,0.13,0.57,0.33l7.35,15.77c0.07,0,0.07,0,0.1,0
			l7.35-15.77c0.1-0.2,0.27-0.33,0.57-0.33h0.53c0.37,0,0.57,0.23,0.6,0.5l3.94,22.46c0.1,0.47-0.17,0.77-0.6,0.77h-3.04
			c-0.3,0-0.57-0.27-0.63-0.5l-1.97-12.67c-0.03,0-0.1,0-0.1,0l-5.85,13.13c-0.07,0.2-0.27,0.37-0.57,0.37h-0.6
			c-0.3,0-0.47-0.17-0.57-0.37l-5.92-13.13c0,0-0.07,0-0.1,0l-1.94,12.67c-0.03,0.23-0.3,0.5-0.6,0.5h-3.01
			c-0.43,0-0.7-0.3-0.63-0.77L148.57,35.93z"/>
		<path class="st0" d="M175.03,36.4c0-0.33,0.27-0.63,0.63-0.63h13.6c0.37,0,0.63,0.3,0.63,0.63v2.74c0,0.33-0.27,0.63-0.63,0.63
			h-9.89v6.28h8.25c0.33,0,0.64,0.3,0.64,0.63v2.74c0,0.33-0.3,0.64-0.64,0.64h-8.25v8.45c0,0.33-0.3,0.63-0.63,0.63h-3.07
			c-0.37,0-0.63-0.3-0.63-0.63V36.4z"/>
		<path class="st0" d="M204.21,35.43c6.68,0,12.03,5.38,12.03,12.06c0,6.68-5.35,12-12.03,12c-6.68,0-12-5.31-12-12
			C192.21,40.81,197.52,35.43,204.21,35.43z M204.21,55.14c4.21,0,7.69-3.44,7.69-7.65c0-4.21-3.48-7.72-7.69-7.72
			c-4.21,0-7.65,3.51-7.65,7.72C196.55,51.7,199.99,55.14,204.21,55.14z"/>
		<path class="st0" d="M220.61,36.4c0-0.33,0.27-0.63,0.63-0.63h9.56c4.01,0,7.28,3.21,7.28,7.18c0,3.07-2.04,5.58-4.95,6.75
			l4.58,8.49c0.23,0.43,0,0.97-0.57,0.97h-3.51c-0.3,0-0.47-0.17-0.53-0.3L228.66,50h-3.71v8.52c0,0.33-0.3,0.63-0.63,0.63h-3.07
			c-0.37,0-0.63-0.3-0.63-0.63V36.4z M230.43,46.42c1.77,0,3.31-1.54,3.31-3.41c0-1.77-1.54-3.24-3.31-3.24h-5.45v6.65H230.43z"/>
		<path class="st0" d="M241.49,55.88l1.2-2.07c0.27-0.47,0.83-0.47,1.14-0.23c0.17,0.1,2.87,2.07,5.05,2.07
			c1.74,0,3.04-1.14,3.04-2.57c0-1.7-1.44-2.87-4.24-4.01c-3.14-1.27-6.28-3.27-6.28-7.22c0-2.97,2.21-6.42,7.52-6.42
			c3.41,0,6.02,1.74,6.68,2.24c0.33,0.2,0.43,0.77,0.2,1.1l-1.27,1.9c-0.27,0.4-0.77,0.67-1.17,0.4c-0.27-0.17-2.81-1.84-4.65-1.84
			c-1.9,0-2.94,1.27-2.94,2.34c0,1.57,1.24,2.64,3.94,3.74c3.24,1.3,6.98,3.24,6.98,7.55c0,3.44-2.97,6.62-7.69,6.62
			c-4.21,0-6.68-1.97-7.35-2.61C241.36,56.58,241.19,56.41,241.49,55.88z"/>
	</g>
	<g>
		<path class="st0" d="M77.91,68.21c0-0.43,0.33-0.8,0.8-0.8h2.94c0.43,0,0.8,0.37,0.8,0.8v9.02l8.42-9.49
			c0.13-0.17,0.33-0.33,0.63-0.33h3.34c0.63,0,0.97,0.7,0.54,1.2l-8.72,9.82l9.36,11.19c0.33,0.43,0.07,1.17-0.6,1.17h-3.64
			c-0.33,0-0.53-0.13-0.6-0.23L82.45,79.8V90c0,0.43-0.37,0.8-0.8,0.8h-2.94c-0.47,0-0.8-0.37-0.8-0.8V68.21z"/>
		<path class="st0" d="M107.82,67.07c6.68,0,12.03,5.38,12.03,12.06c0,6.68-5.35,12-12.03,12c-6.68,0-12-5.31-12-12
			C95.82,72.45,101.13,67.07,107.82,67.07z M107.82,86.79c4.21,0,7.69-3.44,7.69-7.65c0-4.21-3.48-7.72-7.69-7.72
			c-4.21,0-7.65,3.51-7.65,7.72C100.16,83.34,103.61,86.79,107.82,86.79z"/>
		<path class="st0" d="M126.03,67.57c0.03-0.27,0.23-0.5,0.6-0.5h0.53c0.27,0,0.47,0.13,0.57,0.33l7.35,15.77c0.07,0,0.07,0,0.1,0
			l7.35-15.77c0.1-0.2,0.27-0.33,0.57-0.33h0.53c0.37,0,0.57,0.23,0.6,0.5l3.94,22.46c0.1,0.47-0.17,0.77-0.6,0.77h-3.04
			c-0.3,0-0.57-0.27-0.63-0.5l-1.97-12.67c-0.03,0-0.1,0-0.1,0l-5.85,13.13c-0.07,0.2-0.27,0.37-0.57,0.37h-0.6
			c-0.3,0-0.47-0.17-0.57-0.37l-5.92-13.13c0,0-0.07,0-0.1,0l-1.94,12.67c-0.03,0.23-0.3,0.5-0.6,0.5h-3.01
			c-0.43,0-0.7-0.3-0.63-0.77L126.03,67.57z"/>
		<path class="st0" d="M155.2,67.57c0.03-0.27,0.23-0.5,0.6-0.5h0.53c0.27,0,0.47,0.13,0.57,0.33l7.35,15.77c0.07,0,0.07,0,0.1,0
			l7.35-15.77c0.1-0.2,0.27-0.33,0.57-0.33h0.53c0.37,0,0.57,0.23,0.6,0.5l3.94,22.46c0.1,0.47-0.17,0.77-0.6,0.77h-3.04
			c-0.3,0-0.57-0.27-0.63-0.5l-1.97-12.67c-0.03,0-0.1,0-0.1,0l-5.85,13.13c-0.07,0.2-0.27,0.37-0.57,0.37h-0.6
			c-0.3,0-0.47-0.17-0.57-0.37l-5.92-13.13c0,0-0.07,0-0.1,0l-1.94,12.67c-0.03,0.23-0.3,0.5-0.6,0.5h-3.01
			c-0.43,0-0.7-0.3-0.63-0.77L155.2,67.57z"/>
		<path class="st0" d="M180.59,68.04c0-0.33,0.3-0.63,0.63-0.63h3.17c0.37,0,0.63,0.3,0.63,0.63v13.67c0,2.84,1.94,5.08,4.85,5.08
			c2.91,0,4.88-2.24,4.88-5.05v-13.7c0-0.33,0.27-0.63,0.64-0.63h3.17c0.33,0,0.64,0.3,0.64,0.63v13.9c0,5.08-4.04,9.19-9.32,9.19
			c-5.25,0-9.29-4.11-9.29-9.19V68.04z"/>
		<path class="st0" d="M204.95,67.67c0-0.33,0.3-0.6,0.63-0.6h0.84l13.9,14.77h0.03v-13.8c0-0.33,0.27-0.63,0.63-0.63h3.07
			c0.33,0,0.63,0.3,0.63,0.63v22.49c0,0.33-0.3,0.6-0.63,0.6h-0.8L209.3,75.79h-0.03v14.37c0,0.33-0.27,0.63-0.63,0.63h-3.04
			c-0.33,0-0.63-0.3-0.63-0.63V67.67z"/>
	</g>
</g>
</svg>
