<svg xmlns="http://www.w3.org/2000/svg" xmlns:xlink="http://www.w3.org/1999/xlink" version="1.1" id="Lager_1" x="0px" y="0px" viewBox="0 0 264.14 102.65" style="enable-background:new 0 0 264.14 102.65;" xml:space="preserve">
<style type="text/css">
	.st0{fill:#D0D0D0;}
	.st1{fill:#0098D3;}
	.st2{fill:#D7B46A;}
	.st3{fill:#C29E4C;}
	.st4{fill:#BD733A;}
</style>
<g>
	<g>
		<path d="M21.32,89.21l1.58,0.26c5.95,0.98,14.93,2.47,17.86,5.94c0.21,0.24,0.43,0.51,0.64,0.82c0.62-0.87,1.34-1.59,2.05-2.04    c3.71-2.61,11.09-3.82,16.48-4.71l1.6-0.26c6.68-1.13,6.81-7.45,6.81-7.51V30.05H14.51V81.7C14.52,81.95,14.77,88.1,21.32,89.21"/>
	</g>
	<g>
		<polygon points="66.11,6.56 64.91,6.56 64.38,7.65 63.63,7.65 63.63,6.87 61.13,6.87 61.13,10.29 61.96,11.09 61.96,12.48     60.71,12.48 60.71,13.78 58.23,13.78 58.23,12.48 57.07,12.48 57.08,10.89 57.81,10.29 57.81,6.86 55.41,6.86 55.41,7.65     54.51,7.65 53.99,6.56 52.79,6.56 52.26,7.65 51.49,7.65 51.49,6.87 49.02,6.87 49.02,10.29 49.85,11.09 49.85,12.48 48.6,12.48     48.6,13.78 46.06,13.78 46.06,12.48 44.9,12.48 44.9,10.89 45.63,10.29 45.63,6.86 43.25,6.86 43.25,7.65 42.35,7.65 41.82,6.56     40.62,6.56 40.09,7.65 39.29,7.65 39.29,6.87 36.85,6.87 36.85,10.29 37.68,11.09 37.68,12.48 36.42,12.48 36.42,13.78     33.91,13.78 33.91,12.48 32.75,12.48 32.75,10.89 33.48,10.29 33.48,6.86 30.98,6.86 30.98,7.65 30.2,7.65 29.67,6.56 28.47,6.56     27.94,7.65 27.16,7.65 27.16,6.87 24.69,6.87 24.69,10.29 25.53,11.09 25.53,12.48 24.27,12.48 24.27,13.78 21.75,13.78     21.75,12.48 20.58,12.48 20.58,10.89 21.31,10.29 21.31,6.86 18.75,6.86 18.75,7.65 18.03,7.65 17.5,6.56 16.3,6.56 15.77,7.65     15.02,7.65 15.02,6.87 12.52,6.87 12.52,10.29 13.35,11.09 13.35,14.6 16.65,19.25 16.7,25.23 15.16,25.23 15.16,28.98     67.77,28.98 67.77,25.19 65.81,25.19 65.85,19.34 69.1,14.5 69.09,10.97 69.92,10.29 69.92,6.86 67.34,6.86 67.34,7.65     66.64,7.65   "/>
	</g>
	<g>
		<g>
			<path class="st0" d="M59.77,88.38c-6.4,1.06-14.96,2.47-18.35,6.12c-3.38-3.65-11.94-5.06-18.34-6.12l-1.09-0.18     c3.43-7.57,10.58-12.92,19.44-12.92c8.85,0,16.48,5.27,19.91,12.85L59.77,88.38z"/>
		</g>
		<g>
			<path class="st0" d="M41.43,75.27L41.43,75.27c-4.24,0-8.31,1.25-11.76,3.62c-3.3,2.27-5.95,5.48-7.69,9.3l1.16,0.2     c6.29,1.04,14.9,2.47,18.27,6.11c3.38-3.64,12-5.07,18.29-6.11l0.06-0.01l1.57-0.26c-1.71-3.78-4.45-6.98-7.92-9.26     C49.86,76.51,45.71,75.27,41.43,75.27 M41.42,94.5c-3.37-3.63-11.99-5.06-18.27-6.11l-1.16-0.2c1.73-3.82,4.39-7.04,7.69-9.3     c3.45-2.37,7.51-3.62,11.76-3.62h0c4.28,0,8.43,1.24,11.99,3.58c3.47,2.28,6.21,5.49,7.92,9.26l-1.63,0.27     C53.42,89.44,44.81,90.87,41.42,94.5"/>
		</g>
	</g>
	<g>
		<rect x="15.61" y="31.14" class="st0" width="51.63" height="34.22"/>
	</g>
	<g>
		<path class="st0" d="M15.61,65.36h51.63V31.14H15.61V65.36z M15.61,31.14h51.63v34.22H15.61V31.14z"/>
	</g>
	<g>
		<g>
			<path d="M66.17,38.67c-0.02,0.01-1.87,0.77-3.03,0.56c-1.13-0.2-2.84-0.22-3.61-0.04c0.02-0.07,0.05-0.28,0.05-0.28     c-0.28,0.02-7.48,0.03-10.4,0.75c-0.04,0.01-1.12,0.23-1.69,1.2l-0.31,0.58c-0.23,0.46-0.27,0.56-0.89,0.53     c0,0-0.78-0.09-0.99-0.12c-0.03-0.08-0.13-0.35-0.13-0.35c-0.17-0.37-0.52-2.55-0.59-3.73c-0.1-1.6-0.42-2.14-0.44-2.17     c-1.34-2.25-4.56-1.61-4.88-1.47c-0.39,0.18-0.73,0.47-0.74,0.48c-2.25,0.85-2.79,2.17-2.82,2.23l-0.06,0.17     c0,0,2.15-0.28,2.44,0.04c-1.31,0.42-3.46,0.42-3.46,0.42c0.39,1.08,2.93,0.46,3.5,0.3c0.27-0.04,0.07,0.12,0.07,0.13     c-0.9,0.54-2.13,0.78-2.13,0.78c0.17,0.39,0.64,0.56,0.72,0.59c0.71,0.77,1.88,0.92,2.24,0.94c-0.23,1.23-0.78,1.54-1.2,1.67     C37.5,41.98,36.57,42,36.57,42h0c-0.62,0.03-0.66-0.07-0.89-0.53l-0.31-0.58c-0.57-0.97-1.64-1.19-1.69-1.2     c-2.93-0.72-10.39-0.74-10.47-0.74c0,0,0.1,0.2,0.11,0.27c-0.76-0.17-2.47-0.17-3.6,0.04c-1.16,0.2-2.88-0.5-2.9-0.51l-0.14-0.06     l0.01,0.15c0.13,2.39,1.42,2.95,1.61,3.03c0.97,1.93,2.62,2.2,2.88,2.24c0.92,1.86,2.89,2.12,3.09,2.14     c1.3,1.45,2.57,1.54,2.75,1.55c1.2,1.02,2.79,1.11,2.85,1.12c1.66,0.82,3.22,0.42,3.64,0.29c0.02,0.12,0.12,0.4,0.12,0.4     c1.02,0.13,2.68-0.12,3.47-0.47c0.44-0.19,0.46-0.17,0.54,0.08c0,0,0.21,0.71,0.21,0.96c0,1.44-1.18,2.75-1.75,3.3     c-0.29,0.28-0.44,0.58-0.45,0.88c-1.01,0.7-1.86,1.26-1.86,1.26c-0.24,0.13-0.44,0.22-0.66,0.15c-0.33-0.1-0.47-0.19-0.47-0.19     c-0.13-0.17-0.48-0.56-1.05-0.62c-0.28-0.04-0.71,0-1.17,0.37l-0.03,0.03c0,0-0.08,0.1-0.15,0.19c-0.11,0.01-0.22,0.02-0.32,0.07     c-0.93,0.39-1.13,1.51-1.14,1.64c-0.01,0.04-0.01,0.07-0.01,0.11c0,0.29,0.18,0.56,0.48,0.71c0.08,0.04,0.18,0.05,0.27,0.06     c-0.03,0.15-0.04,0.3-0.04,0.44c0,0.36,0.07,0.68,0.11,0.84c0.09,0.34,0.38,0.58,0.74,0.61c0.35,0.02,0.67-0.19,0.79-0.52     c0,0,0.15-0.08,0.22-0.11c0.01,0.07,0.05,0.13,0.08,0.2c-0.03,0.15-0.06,0.31-0.06,0.31c0,1.02,1.02,1.54,1.62,1.69     c0.31,0.08,0.64-0.04,0.84-0.3c0.11-0.14,0.16-0.3,0.16-0.48l-0.11-0.42c0,0-0.03-0.06-0.05-0.1c0.03-0.15,0.07-0.3,0.07-0.45     l0.05-0.27c0.05-0.1,0.19-0.41,0.23-0.75c0.14-0.22,0.64-0.74,0.9-0.77c0.09-0.01,0.15-0.01,0.18,0.01     c0.01,0.04-0.09,0.63,0.07,1.06c-0.01,0.01-0.02,0.03-0.02,0.03c-0.15,0.15-0.26,0.41-0.26,0.62l0.11,0.34     c0.17,0.32,0.54,0.48,0.89,0.4c0.71-0.17,1.22-0.5,1.51-1c0.19-0.33,0.24-0.66,0.24-0.91c0-0.2-0.04-0.36-0.05-0.41     c0.05-0.14,0.1-0.28,0.1-0.43c0-0.31-0.09-0.64-0.28-0.99c-0.05-0.09-0.22-0.34-0.59-0.54c0.05-0.03,0.08-0.06,0.12-0.08     c0.33,0.07,0.74-0.01,1.17-0.24c0.42-0.23,1.21-0.72,1.57-0.95c-0.34,1.61-0.93,4.84-0.93,4.87l-0.01,0.03l0.02,0.03     c0.56,1,2.48,2.09,2.56,2.14l0.05,0.02l0.05-0.02c1.21-0.65,2.22-2.41,2.26-2.48c0.04-0.21,0.05-0.53,0.05-0.93     c0-1.4-0.18-3.66-0.24-4.33c0.37,0.24,0.88,0.74,0.89,0.74c0.5,0.41,0.88,0.59,1.2,0.63c0.07,0.17,0.18,0.31,0.33,0.42     c0.01,0,0.1,0.07,0.21,0.14c-0.36,0.2-0.54,0.45-0.59,0.55c-0.18,0.33-0.27,0.67-0.27,0.98c0,0.15,0.06,0.29,0.1,0.43v0.01v0     c-0.02,0.07-0.04,0.22-0.04,0.41c0,0.25,0.05,0.58,0.24,0.91c0.29,0.5,0.8,0.83,1.5,1c0.35,0.08,0.71-0.08,0.89-0.39l0.1-0.39     c0-0.22-0.09-0.43-0.24-0.58l0.03-0.41c0,0-0.03-0.4-0.04-0.42c0.02-0.12,0.05-0.22,0.05-0.26c0.04-0.01,0.09-0.02,0.18-0.01     c0.26,0.03,0.75,0.54,0.9,0.77c0.03,0.34,0.18,0.66,0.23,0.75l0.05,0.08c0,0.01-0.01,0.2-0.01,0.2c0,0.2,0.03,0.35,0.06,0.47     c-0.02,0.05-0.02,0.05-0.1,0.26c0.01-0.01-0.05,0.23-0.05,0.23c-0.04,0.18,0.05,0.34,0.16,0.48c0.2,0.26,0.53,0.37,0.84,0.3     c0.6-0.15,1.62-0.67,1.62-1.69c0,0-0.04-0.15-0.06-0.31c0.03-0.07,0.07-0.13,0.08-0.2c0.06,0.03,0.21,0.11,0.21,0.11     c0.13,0.33,0.45,0.53,0.8,0.52c0.35-0.02,0.64-0.26,0.73-0.6c0.04-0.16,0.11-0.48,0.11-0.84c0-0.14-0.02-0.29-0.05-0.44     c0.1-0.01,0.19-0.02,0.28-0.06c0.3-0.15,0.47-0.42,0.47-0.71c0-0.04-0.01-0.07-0.01-0.11c-0.04-0.21-0.25-1.26-1.15-1.64     c-0.1-0.04-0.21-0.06-0.32-0.07c-0.07-0.09-0.18-0.22-0.18-0.22c-0.46-0.37-0.89-0.41-1.17-0.37c-0.55,0.07-0.91,0.45-1.04,0.62     c0,0.01-0.14,0.1-0.47,0.2c-0.23,0.07-0.42-0.02-0.66-0.15c0,0-2-1.36-2.01-1.36c0.01-0.06,0.03-0.25,0.03-0.28     c0-0.31-0.11-0.59-0.32-0.84c-0.57-0.65-1.46-3.26-1.52-3.41c0.04-0.12,0.07-0.32,0.11-0.61c0.83,0.28,2.44,0.6,3.45,0.47     c0,0,0.11-0.27,0.12-0.39c0.42,0.13,1.98,0.52,3.68-0.3c0.03,0.01,1.61-0.09,2.82-1.1c0.18-0.01,1.45-0.1,2.75-1.55     c0.19-0.02,2.17-0.28,3.09-2.14c0.25-0.03,1.91-0.3,2.88-2.24c0.2-0.07,1.49-0.65,1.62-3.03V38.67z"/>
		</g>
		<g>
			<path class="st1" d="M20.25,82.47c-0.87,1.32-1.59,2.73-2.18,4.21c0.64,0.51,1.42,0.98,2.43,1.22c0.52-1.37,1.25-2.68,2.06-3.91     L20.25,82.47z"/>
		</g>
		<g>
			<path class="st1" d="M20.25,82.47c-0.85,1.29-1.58,2.71-2.18,4.21c0.79,0.63,1.56,1.01,2.43,1.22c0.48-1.25,1.15-2.53,2.06-3.91     L20.25,82.47z M20.5,87.9c-0.87-0.21-1.64-0.59-2.43-1.22c0.6-1.5,1.33-2.92,2.18-4.21l2.31,1.52     C21.65,85.37,20.98,86.65,20.5,87.9"/>
		</g>
		<g>
			<path class="st1" d="M21.25,81.06l2.2,1.68c0.93-1.2,1.98-2.32,3.16-3.32l-1.79-2.11C23.49,78.44,22.3,79.7,21.25,81.06"/>
		</g>
		<g>
			<path class="st1" d="M21.25,81.06l2.2,1.68c0.93-1.2,1.99-2.32,3.16-3.32l-1.79-2.11C23.5,78.44,22.3,79.7,21.25,81.06      M23.45,82.74l-2.2-1.68c1.05-1.37,2.24-2.63,3.56-3.74l1.79,2.11C25.44,80.42,24.37,81.54,23.45,82.74"/>
		</g>
		<g>
			<path class="st1" d="M26.16,76.25l1.64,2.22c1.22-0.9,2.55-1.69,3.96-2.34l-1.16-2.51C29.02,74.35,27.53,75.23,26.16,76.25"/>
		</g>
		<g>
			<path class="st1" d="M26.16,76.25l1.64,2.22c1.24-0.91,2.57-1.7,3.96-2.33l-1.16-2.52C29.03,74.34,27.54,75.22,26.16,76.25      M27.8,78.47l-1.64-2.22c1.38-1.02,2.87-1.9,4.44-2.63l1.16,2.52C30.37,76.77,29.04,77.56,27.8,78.47"/>
		</g>
		<g>
			<path class="st1" d="M32.18,72.95l0.99,2.59c1.41-0.54,2.9-0.95,4.44-1.2l-0.46-2.73C35.42,71.89,33.76,72.35,32.18,72.95"/>
		</g>
		<g>
			<path class="st1" d="M32.18,72.95l0.99,2.59c1.43-0.55,2.93-0.95,4.44-1.2l-0.46-2.73C35.48,71.88,33.81,72.34,32.18,72.95      M33.17,75.54l-0.99-2.59c1.63-0.62,3.3-1.07,4.97-1.35l0.46,2.73C36.1,74.59,34.6,74.99,33.17,75.54"/>
		</g>
		<g>
			<path class="st1" d="M45.26,74.29c1.54,0.25,3.03,0.64,4.44,1.17l0.97-2.59c-1.59-0.59-3.25-1.04-4.98-1.31L45.26,74.29z"/>
		</g>
		<g>
			<path class="st1" d="M45.26,74.29c1.55,0.25,3.05,0.65,4.44,1.17l0.97-2.59c-1.62-0.6-3.3-1.04-4.98-1.31L45.26,74.29z      M49.71,75.47c-1.39-0.53-2.89-0.92-4.44-1.17l0.44-2.73c1.68,0.27,3.36,0.71,4.98,1.31L49.71,75.47z"/>
		</g>
		<g>
			<path class="st1" d="M52.27,73.54l-1.14,2.51c1.41,0.64,2.73,1.42,3.96,2.32l1.64-2.23C55.34,75.13,53.85,74.25,52.27,73.54"/>
		</g>
		<g>
			<path class="st1" d="M52.27,73.54l-1.14,2.52c1.42,0.65,2.75,1.43,3.96,2.32l1.64-2.23C55.35,75.13,53.85,74.25,52.27,73.54      M55.08,78.37c-1.21-0.89-2.54-1.67-3.96-2.32l1.14-2.52c1.58,0.72,3.08,1.59,4.45,2.6L55.08,78.37z"/>
		</g>
		<g>
			<path class="st1" d="M58.07,77.2l-1.79,2.11c1.17,0.99,2.23,2.1,3.16,3.31l2.2-1.68C60.59,79.58,59.4,78.32,58.07,77.2"/>
		</g>
		<g>
			<path class="st1" d="M58.07,77.2l-1.79,2.11c1.17,0.98,2.23,2.1,3.16,3.31l2.2-1.68C60.6,79.58,59.39,78.32,58.07,77.2      M59.44,82.62c-0.93-1.21-1.99-2.32-3.16-3.31l1.79-2.11c1.32,1.12,2.52,2.38,3.57,3.74L59.44,82.62z"/>
		</g>
		<g>
			<path class="st1" d="M60.33,83.87c0.83,1.25,1.64,2.61,2.16,4.03c1.04-0.26,1.76-0.76,2.35-1.26c-0.58-1.51-1.32-2.94-2.19-4.28     L60.33,83.87z"/>
		</g>
		<g>
			<path class="st1" d="M60.33,83.87c0.71,1.07,1.6,2.5,2.16,4.03c1.09-0.28,1.83-0.82,2.35-1.26c-0.58-1.5-1.32-2.94-2.2-4.28     L60.33,83.87z M62.49,87.9c-0.57-1.53-1.45-2.95-2.16-4.03l2.31-1.52c0.88,1.34,1.62,2.78,2.2,4.28     C64.32,87.08,63.58,87.62,62.49,87.9"/>
		</g>
	</g>
	<g>
		<rect x="15.61" y="66.94" class="st1" width="5.75" height="2.58"/>
	</g>
	<g>
		<path class="st1" d="M15.61,69.52h5.75v-2.58h-5.75V69.52z M15.61,66.94h5.75v2.58h-5.75V66.94z"/>
	</g>
	<g>
		<rect x="23.02" y="66.94" class="st1" width="6.04" height="2.58"/>
	</g>
	<g>
		<path class="st1" d="M23.02,69.52h6.04v-2.58h-6.04V69.52z M23.02,66.94h6.04v2.58h-6.04V66.94z"/>
	</g>
	<g>
		<rect x="30.73" y="66.94" class="st1" width="6.04" height="2.58"/>
	</g>
	<g>
		<path class="st1" d="M30.73,69.52h6.04v-2.58h-6.04V69.52z M30.73,66.94h6.04v2.58h-6.04V66.94z"/>
	</g>
	<g>
		<g>
			<path class="st1" d="M38.44,69.47l0.69,4.66c0.45-0.05,0.9-0.08,1.35-0.1C40.84,74.01,41.2,74,41.55,74     c0.74,0,1.47,0.04,2.18,0.1l0.74-4.63v-2.53h-6.04V69.47z"/>
		</g>
		<g>
			<path class="st1" d="M38.44,69.47l0.69,4.65c0.4-0.04,0.83-0.07,1.35-0.1c0.33-0.02,0.68-0.02,1.07-0.02     c0.68,0,1.39,0.03,2.18,0.1l0.74-4.63v-2.54h-6.04V69.47z M39.13,74.12l-0.69-4.65v-2.54h6.04v2.54l-0.74,4.63     c-0.79-0.07-1.5-0.1-2.18-0.1c-0.39,0-0.74,0.01-1.07,0.02C39.97,74.05,39.53,74.08,39.13,74.12"/>
		</g>
	</g>
	<g>
		<rect x="46.14" y="66.94" class="st1" width="6.05" height="2.58"/>
	</g>
	<g>
		<path class="st1" d="M46.14,69.52h6.05v-2.58h-6.05V69.52z M46.14,66.94h6.05v2.58h-6.05V66.94z"/>
	</g>
	<g>
		<rect x="53.85" y="66.94" class="st1" width="6.04" height="2.58"/>
	</g>
	<g>
		<path class="st1" d="M53.85,69.52h6.04v-2.58h-6.04V69.52z M53.85,66.94h6.04v2.58h-6.04V66.94z"/>
	</g>
	<g>
		<rect x="61.56" y="66.94" class="st1" width="5.68" height="2.58"/>
	</g>
	<g>
		<path class="st1" d="M61.56,69.52h5.68v-2.58h-5.68V69.52z M61.56,66.94h5.68v2.58h-5.68V66.94z"/>
	</g>
	<g>
		<rect x="15.61" y="75.53" class="st1" width="5.75" height="2.57"/>
	</g>
	<g>
		<path class="st1" d="M15.61,78.1h5.75v-2.57h-5.75V78.1z M15.61,75.53h5.75v2.57h-5.75V75.53z"/>
	</g>
	<g>
		<g>
			<path class="st1" d="M24.82,75.53h-1.8v1.52C23.59,76.52,24.19,76.01,24.82,75.53"/>
		</g>
		<g>
			<path class="st1" d="M23.02,75.53v1.52c0.54-0.51,1.13-1.01,1.8-1.52H23.02z M23.02,77.05v-1.52h1.8     C24.15,76.04,23.56,76.54,23.02,77.05"/>
		</g>
		<g>
			<path class="st1" d="M58.19,75.53c0.6,0.46,1.16,0.94,1.7,1.45v-1.45H58.19z"/>
		</g>
		<g>
			<path class="st1" d="M58.19,75.53c0.59,0.46,1.17,0.94,1.7,1.45v-1.45H58.19z M59.89,76.98c-0.54-0.5-1.11-0.99-1.7-1.45h1.7     V76.98z"/>
		</g>
	</g>
	<g>
		<rect x="61.56" y="75.53" class="st1" width="5.68" height="2.57"/>
	</g>
	<g>
		<path class="st1" d="M61.56,78.1h5.68v-2.57h-5.68V78.1z M61.56,75.53h5.68v2.57h-5.68V75.53z"/>
	</g>
	<g>
		<g>
			<path class="st1" d="M16.39,84.61c0.2,0.39,0.45,0.78,0.76,1.16c0.15-0.39,0.32-0.78,0.49-1.16H16.39z"/>
		</g>
		<g>
			<path class="st1" d="M16.39,84.61c0.21,0.41,0.47,0.8,0.76,1.16c0.15-0.37,0.3-0.75,0.49-1.16H16.39z M17.15,85.77     c-0.29-0.36-0.55-0.75-0.76-1.16h1.24C17.45,85.02,17.29,85.4,17.15,85.77"/>
		</g>
		<g>
			<path class="st1" d="M65.8,85.65c0.27-0.34,0.49-0.69,0.66-1.04h-1.1C65.52,84.95,65.66,85.3,65.8,85.65"/>
		</g>
		<g>
			<path class="st1" d="M66.47,84.61h-1.1c0.14,0.31,0.27,0.63,0.4,0.94l0.04,0.09C66.06,85.33,66.28,84.98,66.47,84.61 M65.8,85.65     L65.8,85.65l-0.04-0.1c-0.13-0.31-0.26-0.63-0.4-0.94h1.1C66.28,84.98,66.06,85.33,65.8,85.65z"/>
		</g>
	</g>
	<g>
		<rect x="15.61" y="71.11" class="st1" width="2.04" height="2.58"/>
	</g>
	<g>
		<path class="st1" d="M15.61,73.69h2.04v-2.58h-2.04V73.69z M15.61,71.11h2.04v2.58h-2.04V71.11z"/>
	</g>
	<g>
		<rect x="65.49" y="71.11" class="st1" width="1.75" height="2.58"/>
	</g>
	<g>
		<path class="st1" d="M65.49,71.11v2.58h1.75h-1.75V71.11z M65.49,71.11h1.75v2.58v-2.58H65.49z"/>
	</g>
	<g>
		<rect x="19.32" y="71.11" class="st1" width="6.04" height="2.58"/>
	</g>
	<g>
		<path class="st1" d="M19.32,73.69h6.04v-2.58h-6.04V73.69z M19.32,71.11h6.04v2.58h-6.04V71.11z"/>
	</g>
	<g>
		<g>
			<path class="st1" d="M27.03,73.69h0.53l0.1-0.06c3.25-1.72,5.4-2.33,5.4-2.33v-0.19h-6.04V73.69z"/>
		</g>
		<g>
			<path class="st1" d="M27.03,73.69h0.54l0.1-0.06c3.21-1.7,5.38-2.32,5.4-2.33v-0.19h-6.04V73.69z M27.03,73.69v-2.58h6.04v0.19     c-0.02,0.01-2.19,0.63-5.4,2.33l-0.1,0.06H27.03z"/>
		</g>
		<g>
			<path class="st1" d="M50.15,71.37c0,0,1.87,0.52,5.18,2.26l0.1,0.06h0.75v-2.58h-6.04V71.37z"/>
		</g>
		<g>
			<path class="st1" d="M50.15,71.37c0.02,0.01,1.91,0.54,5.18,2.26l0.1,0.06h0.75v-2.58h-6.04V71.37z M55.44,73.69l-0.1-0.06     c-3.28-1.72-5.17-2.25-5.18-2.26v-0.26h6.04v2.58H55.44z"/>
		</g>
	</g>
	<g>
		<rect x="57.86" y="71.11" class="st1" width="6.04" height="2.58"/>
	</g>
	<g>
		<path class="st1" d="M57.86,73.69h6.04v-2.58h-6.04V73.69z M57.86,71.11h6.04v2.58h-6.04V71.11z"/>
	</g>
	<g>
		<g>
			<path class="st1" d="M17.65,79.95h-2.04v1.75c0,0.05,0.01,0.36,0.09,0.83h1.96V79.95z"/>
		</g>
		<g>
			<path class="st1" d="M15.61,79.95v1.75c0,0,0,0.33,0.09,0.83h1.96v-2.58H15.61z M15.7,82.53c-0.08-0.5-0.09-0.82-0.09-0.83v-1.75     h2.04v2.58H15.7z"/>
		</g>
		<g>
			<path class="st1" d="M65.49,82.53h1.66c0.08-0.47,0.09-0.78,0.09-0.83v-1.75h-1.75V82.53z"/>
		</g>
		<g>
			<path class="st1" d="M65.49,82.53h1.66c0.09-0.5,0.09-0.82,0.09-0.83v-1.75h-1.75V82.53z M65.49,82.53v-2.58h1.75v1.75     c0,0,0,0.32-0.09,0.83H65.49z"/>
		</g>
		<g>
			<path class="st1" d="M19.32,81.49c0.34-0.53,0.7-1.05,1.09-1.55h-1.09V81.49z"/>
		</g>
		<g>
			<path class="st1" d="M20.41,79.95h-1.09v1.54C19.65,80.97,20.02,80.46,20.41,79.95 M19.32,81.49v-1.55h1.09     C20.02,80.46,19.65,80.97,19.32,81.49z"/>
		</g>
		<g>
			<path class="st1" d="M63.9,79.95h-1.31c0.47,0.61,0.9,1.24,1.31,1.9V79.95z"/>
		</g>
		<g>
			<path class="st1" d="M62.59,79.95c0.47,0.61,0.9,1.23,1.31,1.9v-1.9H62.59z M63.9,81.85c-0.42-0.67-0.85-1.29-1.31-1.9h1.31     V81.85z"/>
		</g>
		<g>
			<path class="st1" d="M44.71,43.81c0,0-0.9-2.61-1.16-5.35c-0.26-2.74-0.51-3.97-3.84-3.37c0,0-0.9,0.23-0.14,1.11     c0.58,0.66,1.29,1.41,0.81,3.38c-0.31,1.29-0.38,3.05-2.53,3.52c-0.43,0.09-0.93,0.14-1.54,0.12c0,0-0.9,0-1.42-0.68     c-0.51-0.69-0.9-1.41-0.9-1.41s-0.13-0.64-2.56-0.77c-2.44-0.13-4.47-0.44-6.48-0.23c0,0,0.34,0.94,2.22,1.12l-1.12,0.45     c0,0,0.33,0.62,2.05,1.05c0,0-0.36,0.35-0.75,0.39c0,0,1.47,1.8,3.93,1.8c0,0-0.28,0.47-0.19,0.94c0,0,1.47,0.45,3.44,0.2     c0,0-0.39,0.73-0.34,1.07c0,0,1.12-0.09,2.23-0.56c0,0-1.65,1.81-1.7,1.98c0,0,0.68,0.26,2.65-0.56c0,0,0.23-0.16,0.47-0.16     c0.18-0.01,0.33,0.1,0.47,0.42c0.24,0.54,0.57,1.43,0.52,2.31c-0.03,0.52-0.34,2.44-1.84,3.56c0,0,0.69,0.21,0.69,0.65     c0,0,2.52-1.16,2.95-1.24c0,0,0.82,0.94,1.37,0.47C42.57,53.53,45.92,49.79,44.71,43.81 M27.19,40.81c0,0,1.02,0.09,1.82-0.06     c0.8-0.15,2.38,0,2.96,0.99C31.97,41.74,27.43,42.33,27.19,40.81 M28.27,42.2c0,0,1.08,0.19,2.19,0.13     c1.12-0.06,1.98-0.09,2.65,0.77c0,0-1.02,0.09-1.48,0.15C31.17,43.32,28.48,43.32,28.27,42.2 M30.21,43.68     c0,0,0.87,0.19,1.64,0.09c0.77-0.09,1.91-0.28,2.78,0.56c0,0-0.62,0.15-0.87,0.25C33.51,44.67,31.2,45.11,30.21,43.68 M32.4,45.2     c0,0,0.71,0.16,2.16-0.18c0,0,0.59-0.28,1.32-0.18c0,0-0.37,0.24-0.58,0.46C35.08,45.51,33.39,46.22,32.4,45.2 M35.11,46.1     c0,0,1.45-0.72,1.7-1.01c0,0,0,0.25,0.04,0.47c0,0,0.25,0.08,0.64-0.03C37.49,45.52,36.23,46.68,35.11,46.1 M41.15,37.34     c-0.44,0-0.79-0.36-0.79-0.79c0-0.43,0.36-0.79,0.79-0.79c0.43,0,0.78,0.36,0.78,0.79C41.93,36.99,41.58,37.34,41.15,37.34"/>
		</g>
		<g>
			<path class="st1" d="M41.15,35.77c-0.44,0-0.79,0.35-0.79,0.79c0,0.43,0.36,0.79,0.79,0.79c0.43,0,0.78-0.35,0.78-0.79     C41.93,36.12,41.58,35.77,41.15,35.77 M41.15,37.34c-0.44,0-0.79-0.35-0.79-0.79c0-0.44,0.36-0.79,0.79-0.79     c0.43,0,0.78,0.35,0.78,0.79C41.93,36.99,41.58,37.34,41.15,37.34 M27.19,40.81c0.24,1.49,4.73,0.93,4.78,0.93     c-0.56-0.95-2.1-1.15-2.96-0.99C28.22,40.9,27.21,40.82,27.19,40.81 M30.13,41.85c-1.29,0-2.8-0.18-2.94-1.04     c0.01,0,1.03,0.09,1.82-0.06c0.86-0.16,2.4,0.04,2.96,0.99C31.95,41.75,31.1,41.85,30.13,41.85 M28.27,42.2     c0.21,1.09,2.82,1.12,3.36,1.05c0.45-0.06,1.47-0.15,1.48-0.15c-0.69-0.88-1.6-0.83-2.65-0.77     C29.37,42.39,28.29,42.21,28.27,42.2 M31.15,43.28c-0.94,0-2.71-0.19-2.88-1.07c0.01,0,1.09,0.18,2.19,0.13     c1.05-0.06,1.96-0.11,2.65,0.77c-0.01,0-1.02,0.09-1.48,0.15C31.53,43.27,31.36,43.28,31.15,43.28 M30.21,43.68     c0.98,1.4,3.28,1,3.55,0.9c0.24-0.09,0.86-0.24,0.87-0.25c-0.83-0.8-1.9-0.66-2.67-0.57l-0.1,0.01     C31.09,43.87,30.23,43.69,30.21,43.68 M32.65,44.71c-0.81,0-1.86-0.2-2.44-1.03c0.01,0,0.87,0.19,1.64,0.09l0.1-0.01     c0.78-0.1,1.85-0.23,2.67,0.57c-0.01,0-0.62,0.15-0.87,0.25C33.65,44.62,33.2,44.71,32.65,44.71 M32.4,45.2     c0.34,0.35,0.79,0.53,1.35,0.54h0.02c0.72,0,1.39-0.31,1.53-0.44c0.21-0.22,0.58-0.46,0.58-0.46c-0.11-0.01-0.21-0.02-0.31-0.02     c-0.58,0-1.01,0.2-1.02,0.2C33.14,45.34,32.42,45.2,32.4,45.2 M33.77,45.73h-0.02c-0.55,0-1.01-0.18-1.35-0.54     c0.01,0,0.72,0.15,2.16-0.18c0.01,0,0.6-0.28,1.32-0.18c0,0-0.37,0.25-0.58,0.46C35.17,45.43,34.49,45.73,33.77,45.73      M35.11,46.1c1.11,0.57,2.37-0.57,2.38-0.58c-0.39,0.11-0.64,0.04-0.64,0.04c-0.04-0.21-0.04-0.47-0.04-0.47     C36.56,45.38,35.14,46.09,35.11,46.1 M35.78,46.26c-0.22,0-0.45-0.05-0.67-0.16c0.02-0.01,1.45-0.72,1.7-1.01     c0,0,0,0.26,0.04,0.47c0,0,0.26,0.07,0.64-0.04C37.48,45.53,36.67,46.26,35.78,46.26 M37.87,47.84c0.19,0,0.33,0.13,0.45,0.42     c0.39,0.86,0.56,1.64,0.52,2.31c0,0.02-0.14,2.29-1.84,3.56c0.01,0,0.69,0.22,0.69,0.65c0.02-0.01,2.53-1.16,2.95-1.24     c0.01,0.01,0.82,0.94,1.37,0.47c0.28-0.24,1.26-1.31,2.01-3.03c0.97-2.23,1.2-4.64,0.68-7.16c-0.01-0.03-0.9-2.64-1.16-5.35     c-0.14-1.56-0.29-2.62-0.98-3.14c-0.55-0.42-1.43-0.49-2.86-0.23c0,0-0.32,0.08-0.41,0.33c-0.08,0.21,0.01,0.47,0.27,0.78     l0.04,0.05c0.58,0.66,1.23,1.41,0.77,3.33c-0.04,0.16-0.07,0.33-0.11,0.5c-0.26,1.22-0.54,2.6-2.42,3.02     c-0.45,0.1-0.96,0.14-1.54,0.12c-0.01,0-0.91-0.01-1.42-0.68c-0.51-0.68-0.9-1.41-0.9-1.41c0-0.01-0.16-0.64-2.56-0.77     c-0.71-0.04-1.38-0.09-2.03-0.14c-1.55-0.12-3.02-0.24-4.45-0.08c0,0.01,0.36,0.94,2.22,1.12l-1.12,0.45     c0,0.01,0.35,0.63,2.05,1.05c0,0-0.37,0.35-0.75,0.39c0.01,0.02,1.5,1.8,3.93,1.8c0,0-0.28,0.47-0.19,0.95     c0.02,0,1.5,0.45,3.44,0.2c0,0.01-0.39,0.73-0.34,1.07c0.01,0,1.13-0.09,2.23-0.56c-0.02,0.02-1.65,1.81-1.7,1.98     c0.01,0,0.71,0.25,2.65-0.56c0,0,0.23-0.16,0.47-0.16C37.86,47.84,37.87,47.84,37.87,47.84 M37.69,54.77     c0-0.43-0.68-0.64-0.69-0.65c1.7-1.27,1.84-3.53,1.84-3.56c0.04-0.67-0.13-1.44-0.52-2.31c-0.12-0.29-0.26-0.42-0.45-0.42h-0.01     C37.62,47.85,37.39,48,37.39,48c-1.94,0.8-2.65,0.56-2.65,0.56c0.05-0.17,1.68-1.97,1.7-1.98c-1.1,0.47-2.22,0.56-2.23,0.56     c-0.04-0.34,0.34-1.06,0.34-1.07c-1.95,0.25-3.42-0.2-3.44-0.2c-0.09-0.47,0.19-0.94,0.19-0.95c-2.44,0-3.92-1.79-3.93-1.8     c0.38-0.04,0.74-0.38,0.75-0.39c-1.69-0.42-2.05-1.04-2.05-1.05l1.12-0.45c-1.86-0.18-2.22-1.11-2.22-1.12     c1.43-0.15,2.89-0.04,4.45,0.08c0.65,0.05,1.32,0.1,2.03,0.14C33.85,40.47,34,41.1,34,41.11c0,0.01,0.39,0.73,0.9,1.41     c0.51,0.68,1.41,0.68,1.42,0.68c0.58,0.02,1.09-0.02,1.54-0.12c1.87-0.42,2.16-1.8,2.42-3.02c0.04-0.18,0.07-0.34,0.11-0.5     c0.46-1.92-0.19-2.67-0.77-3.33l-0.04-0.05c-0.3-0.34-0.38-0.63-0.24-0.85c0.12-0.19,0.37-0.26,0.38-0.26     c1.42-0.26,2.31-0.19,2.86,0.23c0.69,0.52,0.84,1.58,0.98,3.14c0.25,2.71,1.15,5.32,1.16,5.35c0.52,2.53,0.28,4.94-0.68,7.16     c-0.75,1.72-1.73,2.79-2.01,3.03c-0.55,0.47-1.36-0.46-1.37-0.47C40.22,53.61,37.71,54.76,37.69,54.77"/>
		</g>
		<g>
			<path class="st1" d="M44.92,50.83c-0.34,1.24-1.03,2.35-1.03,2.35c0.56,0.26,1.24,1.03,1.24,1.03c0.73,0.81,1.2,0.21,1.24-0.09     c0.04-0.3-0.17-0.64-0.17-0.64C45.44,52.63,44.92,50.83,44.92,50.83"/>
		</g>
		<g>
			<path class="st1" d="M44.92,50.83c-0.34,1.23-1.02,2.34-1.03,2.35c0.55,0.26,1.23,1.02,1.24,1.03c0.38,0.42,0.66,0.44,0.84,0.39     c0.24-0.07,0.38-0.32,0.4-0.47c0.04-0.29-0.17-0.64-0.17-0.64C45.45,52.65,44.93,50.87,44.92,50.83 M45.83,54.62     c-0.17,0-0.41-0.09-0.7-0.41c-0.01-0.01-0.69-0.77-1.24-1.03c0.01-0.01,0.69-1.13,1.03-2.35c0.01,0.02,0.52,1.81,1.28,2.65     c0,0,0.21,0.35,0.17,0.64c-0.02,0.15-0.16,0.4-0.4,0.47C45.93,54.61,45.89,54.62,45.83,54.62"/>
		</g>
		<g>
			<path class="st1" d="M24.8,41.41c-0.82-1.37-3-1.58-4.11-1.37c-1.11,0.21-2.53,0.08-2.53,0.08C18.51,42.23,24.8,41.41,24.8,41.41     "/>
		</g>
		<g>
			<path class="st1" d="M18.16,40.12c0.1,0.6,0.78,1.33,3.45,1.43c0.2,0.01,0.41,0.01,0.6,0.01c1.36,0,2.56-0.15,2.58-0.15     c-0.79-1.32-2.92-1.6-4.11-1.37C19.59,40.25,18.18,40.13,18.16,40.12 M22.22,41.57c-0.2,0-0.4,0-0.6-0.01     c-2.67-0.1-3.35-0.83-3.45-1.43c0.01,0,1.43,0.13,2.53-0.08c1.19-0.23,3.32,0.05,4.11,1.37C24.79,41.41,23.59,41.57,22.22,41.57"/>
		</g>
		<g>
			<path class="st1" d="M24.33,43.51c0.64-0.08,2.06-0.21,2.06-0.21c-0.94-1.2-2.14-1.16-3.68-1.07c-1.54,0.08-3.04-0.17-3.04-0.17     C19.96,43.6,23.69,43.6,24.33,43.51"/>
		</g>
		<g>
			<path class="st1" d="M19.66,42.06c0.3,1.51,3.92,1.56,4.67,1.45c0.63-0.08,2.05-0.21,2.06-0.21c-0.96-1.22-2.22-1.15-3.68-1.07     C21.18,42.31,19.67,42.06,19.66,42.06 M23.63,43.54c-1.31,0-3.73-0.26-3.97-1.49c0.02,0,1.52,0.25,3.04,0.17     c1.46-0.08,2.72-0.15,3.68,1.07c-0.01,0-1.42,0.13-2.06,0.21C24.18,43.53,23.94,43.54,23.63,43.54"/>
		</g>
		<g>
			<path class="st1" d="M27.28,45.35c0.34-0.13,1.2-0.34,1.2-0.34c-1.2-1.16-2.79-0.9-3.85-0.77c-1.07,0.13-2.27-0.13-2.27-0.13     C23.73,46.08,26.94,45.48,27.28,45.35"/>
		</g>
		<g>
			<path class="st1" d="M22.36,44.11c1.35,1.94,4.54,1.38,4.92,1.24c0.34-0.13,1.19-0.34,1.2-0.34c-1.14-1.11-2.63-0.92-3.71-0.79     l-0.15,0.02C23.57,44.36,22.37,44.11,22.36,44.11 M25.74,45.53c-1.13,0-2.58-0.27-3.38-1.43c0.01,0,1.21,0.25,2.27,0.13     l0.15-0.02c1.08-0.14,2.56-0.32,3.71,0.79c-0.01,0-0.86,0.21-1.2,0.34C27.13,45.41,26.51,45.53,25.74,45.53"/>
		</g>
		<g>
			<path class="st1" d="M30.24,45.69c-1.03-0.13-1.84,0.26-1.84,0.26c-2.01,0.47-3,0.26-3,0.26c1.37,1.41,3.72,0.43,4.02,0.13     C29.72,46.04,30.24,45.69,30.24,45.69"/>
		</g>
		<g>
			<path class="st1" d="M25.4,46.21c0.47,0.49,1.11,0.74,1.88,0.74h0.02c1,0,1.95-0.43,2.13-0.62c0.3-0.29,0.8-0.63,0.81-0.64     c-1.01-0.12-1.83,0.26-1.84,0.26C26.4,46.42,25.41,46.21,25.4,46.21 M27.29,46.95h-0.02c-0.77,0-1.4-0.25-1.88-0.74     c0.01,0,1.01,0.21,3-0.26c0.01-0.01,0.82-0.39,1.84-0.26c-0.01,0-0.52,0.35-0.81,0.64C29.24,46.52,28.3,46.95,27.29,46.95"/>
		</g>
		<g>
			<path class="st1" d="M31.09,46.68c-1.03,0.52-2.7,0.9-2.7,0.9c1.5,1.29,4.37-0.73,4.37-0.73C32.04,46.98,31.09,46.68,31.09,46.68     "/>
		</g>
		<g>
			<path class="st1" d="M31.09,46.68c-1.02,0.51-2.68,0.89-2.7,0.89c1.48,1.27,4.34-0.71,4.37-0.73c-0.13,0.02-0.26,0.03-0.4,0.03     C31.74,46.88,31.11,46.68,31.09,46.68 M29.66,48c-0.46,0-0.9-0.12-1.26-0.43c0.02,0,1.68-0.39,2.7-0.89c0.01,0,0.65,0.2,1.27,0.2     c0.14,0,0.27-0.01,0.4-0.03C32.74,46.86,31.1,48,29.66,48"/>
		</g>
		<g>
			<path class="st1" d="M33.41,47.7c-0.04-0.25-0.04-0.55-0.04-0.55c-0.3,0.34-2.02,1.2-2.02,1.2c1.33,0.69,2.83-0.68,2.83-0.68     C33.7,47.79,33.41,47.7,33.41,47.7"/>
		</g>
		<g>
			<path class="st1" d="M33.37,47.15c-0.3,0.34-2,1.19-2.02,1.2c1.31,0.68,2.81-0.67,2.83-0.68c-0.47,0.12-0.77,0.04-0.77,0.04     C33.37,47.45,33.37,47.15,33.37,47.15 M32.15,48.54c-0.27,0-0.54-0.05-0.8-0.19c0.02-0.01,1.72-0.86,2.02-1.2     c0,0,0,0.31,0.04,0.55c0.01,0,0.31,0.08,0.77-0.04C34.16,47.67,33.21,48.54,32.15,48.54"/>
		</g>
		<g>
			<path class="st1" d="M39.95,59.65c0.33,0.37,0.75,0.81,1.06,0.94l0.26-5.45c-0.23-0.22-0.38-0.51-0.38-0.51     C40.3,56.96,39.95,59.65,39.95,59.65"/>
		</g>
		<g>
			<path class="st1" d="M41.01,60.6c-0.3-0.13-0.73-0.57-1.06-0.94C40.29,60.02,40.71,60.47,41.01,60.6l0.26-5.45     c-0.23-0.22-0.38-0.5-0.38-0.51c-0.58,2.25-0.93,4.9-0.95,5.01v0v0c0.02-0.11,0.36-2.76,0.95-5.01c0,0,0.15,0.29,0.38,0.51     L41.01,60.6z"/>
		</g>
		<g>
			<path class="st1" d="M42.03,55.19l-0.15,5.44c0.46-0.43,1.01-1.34,1.01-1.34c0.17-2.61-0.15-4.86-0.15-4.86     C42.68,54.54,42.36,54.95,42.03,55.19"/>
		</g>
		<g>
			<path class="st1" d="M42.03,55.19l-0.15,5.44c0.46-0.42,1.01-1.33,1.01-1.34c0.17-2.58-0.14-4.83-0.15-4.86     C42.69,54.53,42.36,54.95,42.03,55.19 M41.88,60.63l0.15-5.44c0.33-0.24,0.66-0.66,0.71-0.76c0,0.02,0.31,2.28,0.15,4.86     C42.88,59.3,42.34,60.2,41.88,60.63"/>
		</g>
		<g>
			<path class="st1" d="M62.18,40.01c-1.12-0.21-3.3,0-4.11,1.37c0,0,6.29,0.82,6.63-1.28C64.71,40.1,63.29,40.23,62.18,40.01"/>
		</g>
		<g>
			<path class="st1" d="M61.35,39.94c-1.18,0-2.65,0.39-3.28,1.44c0.01,0,1.22,0.16,2.59,0.16c0.2,0,0.4,0,0.59-0.01     c2.67-0.1,3.35-0.83,3.45-1.43c-0.01,0-1.43,0.12-2.52-0.08C61.94,39.96,61.65,39.94,61.35,39.94 M60.67,41.54     c-1.37,0-2.58-0.15-2.59-0.16c0.78-1.32,2.92-1.6,4.11-1.37c1.1,0.21,2.51,0.08,2.52,0.08c-0.1,0.6-0.77,1.33-3.45,1.43     C61.06,41.53,60.86,41.54,60.67,41.54"/>
		</g>
		<g>
			<path class="st1" d="M60.17,42.2c-1.54-0.09-2.74-0.13-3.68,1.07c0,0,1.41,0.13,2.05,0.21c0.64,0.08,4.37,0.08,4.67-1.45     C63.21,42.02,61.71,42.28,60.17,42.2"/>
		</g>
		<g>
			<path class="st1" d="M59.13,42.16c-1.02,0-1.92,0.19-2.64,1.11c0.01,0,1.42,0.13,2.05,0.21c0.35,0.05,1.44,0.06,2.46-0.12     c0.92-0.16,2.05-0.52,2.21-1.34c-0.02,0-1.52,0.26-3.04,0.17C59.81,42.17,59.46,42.16,59.13,42.16 M59.2,43.51     c-0.29,0-0.52-0.01-0.66-0.03c-0.63-0.08-2.04-0.21-2.05-0.21c0.96-1.23,2.22-1.15,3.68-1.07c1.53,0.08,3.03-0.17,3.04-0.17     c-0.16,0.82-1.29,1.18-2.21,1.34C60.36,43.47,59.69,43.51,59.2,43.51"/>
		</g>
		<g>
			<path class="st1" d="M58.24,44.21c-1.07-0.13-2.65-0.39-3.85,0.77c0,0,0.86,0.21,1.2,0.34c0.34,0.13,3.56,0.73,4.92-1.24     C60.51,44.08,59.31,44.34,58.24,44.21"/>
		</g>
		<g>
			<path class="st1" d="M57.14,45.51c-0.79,0-1.42-0.14-1.56-0.18c-0.33-0.13-1.19-0.34-1.2-0.34c1.14-1.11,2.63-0.92,3.71-0.79     l0.14,0.02c1.06,0.13,2.26-0.13,2.27-0.13c-0.02,0.03-0.04,0.06-0.06,0.08c0.02-0.03,0.04-0.06,0.06-0.08     c-0.01,0-0.78,0.17-1.63,0.17c-0.21,0-0.43-0.01-0.64-0.04l-0.14-0.02c-1.09-0.14-2.57-0.32-3.71,0.79c0.01,0,0.86,0.21,1.2,0.34     C55.72,45.37,56.35,45.51,57.14,45.51c0.17,0,0.34-0.01,0.52-0.02c0.54-0.04,1.2-0.17,1.8-0.49c-0.45,0.24-1.03,0.43-1.8,0.49     C57.48,45.5,57.31,45.51,57.14,45.51"/>
		</g>
		<g>
			<path class="st1" d="M54.47,45.92c0,0-0.81-0.39-1.84-0.26c0,0,0.52,0.34,0.81,0.64c0.3,0.3,2.66,1.29,4.03-0.13     C57.47,46.18,56.49,46.39,54.47,45.92"/>
		</g>
		<g>
			<path class="st1" d="M53.05,45.64c-0.14,0-0.28,0.01-0.42,0.03c0.01,0,0.52,0.35,0.81,0.64c0.19,0.19,1.14,0.61,2.13,0.61h0.04     c0.76-0.01,1.38-0.26,1.85-0.74c-0.01,0-1,0.21-3-0.26C54.47,45.92,53.87,45.64,53.05,45.64 M55.58,46.92     c-1,0-1.94-0.43-2.13-0.61c-0.3-0.3-0.81-0.64-0.81-0.64c0.15-0.02,0.29-0.03,0.42-0.03c0.81,0,1.41,0.28,1.42,0.28     c1.99,0.47,2.99,0.26,3,0.26c-0.47,0.48-1.09,0.73-1.85,0.74C55.61,46.92,55.59,46.92,55.58,46.92"/>
		</g>
		<g>
			<path class="st1" d="M50.11,46.82c0,0,2.86,2.01,4.37,0.73c0,0-1.67-0.38-2.7-0.9C51.77,46.65,50.83,46.95,50.11,46.82"/>
		</g>
		<g>
			<path class="st1" d="M50.11,46.82c0.05,0.04,2.88,1.99,4.37,0.73c-0.02,0-1.68-0.39-2.7-0.9C51.77,46.65,50.82,46.95,50.11,46.82      M53.21,47.97c-1.44,0-3.08-1.14-3.1-1.15h0h0c0.71,0.13,1.66-0.17,1.67-0.17c1.02,0.51,2.68,0.9,2.7,0.9     C54.11,47.85,53.67,47.97,53.21,47.97"/>
		</g>
		<g>
			<path class="st1" d="M49.46,47.68c0,0-0.3,0.09-0.77-0.04c0,0,1.5,1.37,2.83,0.68c0,0-1.71-0.85-2.01-1.19     C49.51,47.12,49.51,47.42,49.46,47.68"/>
		</g>
		<g>
			<path class="st1" d="M48.69,47.63c0.01,0.01,0.97,0.88,2.03,0.88c0.27,0,0.54-0.05,0.8-0.19c-0.02-0.01-1.71-0.86-2.01-1.19     c0,0,0,0.3-0.04,0.55C49.46,47.68,49.16,47.76,48.69,47.63 M50.72,48.51c-1.06,0-2.01-0.87-2.03-0.88     c0.47,0.13,0.77,0.05,0.77,0.04c0.04-0.26,0.04-0.55,0.04-0.55c0.3,0.33,1.99,1.19,2.01,1.19     C51.25,48.45,50.98,48.51,50.72,48.51"/>
		</g>
		<g>
			<path class="st1" d="M48.32,46.04c1.97,0.26,3.44-0.21,3.44-0.21c0.09-0.47-0.19-0.94-0.19-0.94c2.47,0,3.94-1.8,3.94-1.8     c-0.39-0.04-0.75-0.39-0.75-0.39c1.71-0.43,2.05-1.05,2.05-1.05l-1.12-0.45c1.89-0.17,2.23-1.11,2.23-1.11     c-2.01-0.21-4.04,0.09-6.48,0.22c-2.44,0.13-2.57,0.77-2.57,0.77s-0.39,0.73-0.9,1.41c-0.51,0.69-1.41,0.69-1.41,0.69     c-0.37,0.01-0.7,0-1-0.03c0.36,1.61,0.39,3.71,0.21,4.94c1.75,0.68,2.37,0.44,2.37,0.44c-0.04-0.17-1.7-1.98-1.7-1.98     c1.12,0.47,2.22,0.55,2.22,0.55C48.71,46.77,48.32,46.04,48.32,46.04 M53.86,40.72c0.8,0.16,1.82,0.07,1.82,0.07     c-0.24,1.51-4.78,0.92-4.78,0.92C51.49,40.72,53.06,40.57,53.86,40.72 M52.41,42.3c1.11,0.06,2.19-0.12,2.19-0.12     c-0.22,1.11-2.9,1.11-3.37,1.05c-0.45-0.06-1.48-0.16-1.48-0.16C50.44,42.2,51.3,42.24,52.41,42.3 M51.29,43.68     c0.77,0.1,1.63-0.09,1.63-0.09c-0.99,1.42-3.3,0.99-3.55,0.9c-0.25-0.09-0.87-0.25-0.87-0.25C49.37,43.4,50.51,43.59,51.29,43.68      M46.13,45.42c0.4,0.11,0.53-0.06,0.53-0.06c0.04-0.22,0.04-0.47,0.04-0.47c0.25,0.29,1.35,1.06,1.35,1.06     C47.25,46.33,46.13,45.42,46.13,45.42 M47.51,44.66c0.74-0.09,1.32,0.19,1.32,0.19c1.45,0.34,2.16,0.18,2.16,0.18     c-0.98,1.02-2.63,0.24-2.9,0.09C47.72,44.91,47.51,44.66,47.51,44.66"/>
		</g>
		<g>
			<path class="st1" d="M53.27,40.67c-0.85,0-1.92,0.28-2.37,1.04c0.05,0.01,4.54,0.57,4.78-0.92c-0.01,0-1.03,0.09-1.82-0.06     C53.69,40.69,53.49,40.67,53.27,40.67 M52.76,41.82c-0.98,0-1.84-0.11-1.86-0.11c0.56-0.95,2.1-1.15,2.96-0.98     c0.79,0.15,1.81,0.07,1.82,0.06C55.54,41.63,54.04,41.82,52.76,41.82 M51.67,42.27c-0.74,0-1.38,0.13-1.91,0.8     c0.01,0,1.03,0.09,1.48,0.16c0.37,0.05,3.14,0.1,3.37-1.05c-0.01,0-0.81,0.14-1.73,0.14c-0.15,0-0.31,0-0.47-0.01     C52.15,42.28,51.9,42.27,51.67,42.27 M51.71,43.25c-0.23,0-0.4-0.01-0.47-0.02c-0.45-0.06-1.47-0.15-1.48-0.16     c0.69-0.88,1.6-0.83,2.65-0.77c1.1,0.06,2.18-0.12,2.19-0.12C54.42,43.09,52.61,43.25,51.71,43.25 M50.27,43.6     c-0.59,0-1.23,0.13-1.76,0.64c0.01,0,0.62,0.16,0.87,0.25c0.29,0.11,2.56,0.51,3.55-0.9c-0.01,0-0.87,0.19-1.63,0.09l-0.11-0.01     C50.91,43.63,50.59,43.6,50.27,43.6 M50.5,44.62c-0.56,0-1-0.09-1.12-0.14c-0.24-0.09-0.86-0.25-0.87-0.25     c0.82-0.8,1.89-0.67,2.67-0.57l0.11,0.01c0.76,0.09,1.62-0.09,1.63-0.09C52.34,44.42,51.3,44.62,50.5,44.62 M47.51,44.66     c0.01,0.01,0.22,0.26,0.58,0.47c0.02,0.01,1.84,1,2.9-0.09c-0.01,0-0.72,0.15-2.16-0.18c-0.01,0-0.44-0.21-1.02-0.21     C47.71,44.65,47.61,44.65,47.51,44.66 M49.69,45.55c-0.82,0-1.58-0.42-1.6-0.42c-0.37-0.21-0.58-0.46-0.58-0.47     c0.1-0.01,0.21-0.02,0.3-0.02c0.58,0,1.02,0.21,1.02,0.21c1.44,0.34,2.15,0.18,2.16,0.18C50.62,45.42,50.14,45.55,49.69,45.55      M46.14,45.43c0.03,0.02,0.78,0.62,1.48,0.62c0.15,0,0.3-0.03,0.43-0.09c-0.01-0.01-1.1-0.77-1.35-1.06c0,0,0,0.25-0.04,0.47     C46.67,45.37,46.53,45.53,46.14,45.43 M47.62,46.05c-0.71,0-1.47-0.61-1.48-0.62h0h0c0.39,0.11,0.53-0.05,0.53-0.06     c0.03-0.22,0.04-0.47,0.04-0.47c0.25,0.29,1.34,1.05,1.35,1.06C47.91,46.02,47.77,46.05,47.62,46.05 M45.56,43.15     c0.37,1.65,0.39,3.74,0.21,4.94c1.73,0.67,2.36,0.44,2.37,0.44c-0.04-0.17-1.69-1.96-1.7-1.98c1.1,0.46,2.21,0.55,2.22,0.55     c0.05-0.33-0.33-1.06-0.34-1.07c1.95,0.25,3.43-0.2,3.44-0.2c0.08-0.46-0.19-0.94-0.19-0.94c2.44,0,3.92-1.78,3.94-1.8     c-0.38-0.04-0.75-0.38-0.75-0.39c1.69-0.42,2.04-1.04,2.05-1.05l-1.12-0.46c1.87-0.17,2.22-1.1,2.23-1.11     c-1.43-0.15-2.9-0.04-4.45,0.08c-0.65,0.05-1.32,0.1-2.02,0.14c-2.41,0.13-2.57,0.76-2.57,0.77c0,0.01-0.39,0.74-0.9,1.41     c-0.51,0.68-1.4,0.69-1.41,0.69C46.21,43.19,45.89,43.18,45.56,43.15 M47.8,48.57c-0.35,0-0.99-0.08-2.02-0.48     c0.18-1.2,0.16-3.29-0.21-4.94c0.33,0.04,0.65,0.05,0.99,0.03c0.01,0,0.9-0.01,1.41-0.69c0.51-0.68,0.9-1.41,0.9-1.41     c0-0.01,0.15-0.64,2.57-0.77c0.71-0.04,1.38-0.09,2.02-0.14c1.55-0.12,3.02-0.23,4.45-0.08c0,0.01-0.36,0.94-2.23,1.11l1.12,0.46     c0,0.01-0.35,0.63-2.05,1.05c0,0,0.37,0.34,0.75,0.39c-0.02,0.02-1.5,1.8-3.94,1.8c0,0,0.28,0.48,0.19,0.94     c-0.01,0-1.49,0.46-3.44,0.2c0.01,0.02,0.39,0.74,0.34,1.07c-0.01,0-1.12-0.09-2.22-0.55c0.02,0.02,1.66,1.81,1.7,1.98     C48.14,48.53,48.03,48.57,47.8,48.57"/>
		</g>
	</g>
	<g>
		<polygon class="st2" points="20.21,7.95 19.4,7.95 19.4,8.71 17.78,8.71 17.34,7.65 16.46,7.65 16.01,8.71 14.45,8.71 14.45,7.96     13.61,7.96 13.61,10.01 20.21,10.01   "/>
	</g>
	<g>
		<path class="st2" d="M14.45,7.96h-0.84v2.05h6.6V7.95H19.4l0,0.76h-1.62l-0.44-1.06h-0.88l-0.45,1.06h-1.56V7.96z M13.61,10.01    V7.96h0.84v0.75h1.56l0.45-1.06h0.88l0.44,1.06h1.62l0-0.76h0.81v2.06H13.61z"/>
	</g>
	<g>
		<polygon class="st2" points="32.44,7.95 31.63,7.95 31.63,8.71 30.01,8.71 29.57,7.65 28.69,7.65 28.23,8.71 26.67,8.71     26.67,7.96 25.84,7.96 25.84,10.01 32.44,10.01   "/>
	</g>
	<g>
		<path class="st2" d="M25.96,9.9h6.37V8.07h-0.58l0,0.76h-1.82L29.5,7.77h-0.73l-0.46,1.06h-1.75V8.08h-0.6V9.9z M32.56,10.13    h-6.83V7.85h1.07v0.75h1.36l0.46-1.06h1.04l0.44,1.06h1.43l0-0.76h1.05V10.13z"/>
	</g>
	<g>
		<polygon class="st2" points="44.53,7.95 43.71,7.95 43.71,8.71 42.09,8.71 41.65,7.65 40.77,7.65 40.32,8.71 38.76,8.71     38.76,7.96 37.93,7.96 37.93,10.01 44.53,10.01   "/>
	</g>
	<g>
		<path class="st2" d="M38.76,7.96h-0.83v2.05h6.6V7.95h-0.82v0.76h-1.61l-0.44-1.06h-0.88l-0.45,1.06h-1.57V7.96z M37.93,10.01    V7.96h0.83v0.75h1.57l0.45-1.06h0.88l0.44,1.06h1.61V7.95h0.82v2.06H37.93z"/>
	</g>
	<g>
		<polygon class="st2" points="56.7,7.95 55.88,7.95 55.89,8.71 54.27,8.71 53.83,7.65 52.95,7.65 52.49,8.71 50.93,8.71     50.93,7.96 50.1,7.96 50.1,10.01 56.7,10.01   "/>
	</g>
	<g>
		<path class="st2" d="M50.93,7.96H50.1v2.05h6.6V7.95h-0.82l0.01,0.76h-1.62l-0.44-1.06h-0.88L52.5,8.71h-1.57V7.96z M50.1,10.01    V7.96h0.83v0.75h1.57l0.46-1.06h0.88l0.44,1.06h1.62l-0.01-0.76h0.82v2.06H50.1z"/>
	</g>
	<g>
		<polygon class="st2" points="68.09,7.95 68.09,8.71 66.47,8.71 66.03,7.65 65.15,7.65 64.7,8.71 63.14,8.71 63.14,7.96 62.3,7.96     62.3,10.01 68.91,10.01 68.91,7.95   "/>
	</g>
	<g>
		<path class="st2" d="M63.14,7.96H62.3v2.05h6.6V7.95h-0.82l0.01,0.76h-1.62l-0.44-1.06h-0.88L64.7,8.71h-1.56V7.96z M62.3,10.01    V7.96h0.83v0.75h1.56l0.45-1.06h0.88l0.44,1.06h1.62l-0.01-0.76h0.82v2.06H62.3z"/>
	</g>
	<g>
		<rect x="17.82" y="19.16" class="st2" width="10.33" height="1.81"/>
	</g>
	<g>
		<path class="st2" d="M17.82,20.98h10.33v-1.82H17.82V20.98z M17.82,19.16h10.33v1.82H17.82V19.16z"/>
	</g>
	<g>
		<rect x="30" y="19.16" class="st2" width="10.33" height="1.81"/>
	</g>
	<g>
		<path class="st2" d="M30.01,20.98h10.33v-1.82H30.01V20.98z M30.01,19.16h10.33v1.82H30.01V19.16z"/>
	</g>
	<g>
		<rect x="42.18" y="19.16" class="st2" width="10.33" height="1.81"/>
	</g>
	<g>
		<path class="st2" d="M42.18,20.98h10.33v-1.82H42.18V20.98z M42.18,19.16h10.33v1.82H42.18V19.16z"/>
	</g>
	<g>
		<rect x="54.36" y="19.16" class="st2" width="10.3" height="1.81"/>
	</g>
	<g>
		<path class="st2" d="M54.36,20.98h10.3v-1.82h-10.3V20.98z M54.36,19.16h10.3v1.82h-10.3V19.16z"/>
	</g>
	<g>
		<rect x="24.07" y="22.33" class="st2" width="10.32" height="2.5"/>
	</g>
	<g>
		<path class="st2" d="M24.07,24.83h10.32v-2.5H24.07V24.83z M24.07,22.33h10.32v2.5H24.07V22.33z"/>
	</g>
	<g>
		<rect x="36.25" y="22.33" class="st2" width="10.33" height="2.5"/>
	</g>
	<g>
		<path class="st2" d="M36.24,24.83h10.33v-2.5H36.24V24.83z M36.24,22.33h10.33v2.5H36.24V22.33z"/>
	</g>
	<g>
		<rect x="48.42" y="22.33" class="st2" width="10.32" height="2.5"/>
	</g>
	<g>
		<path class="st2" d="M48.42,24.83h10.32v-2.5H48.42V24.83z M48.42,22.33h10.32v2.5H48.42V22.33z"/>
	</g>
	<g>
		<rect x="60.6" y="22.33" class="st2" width="4.08" height="2.5"/>
	</g>
	<g>
		<path class="st2" d="M64.69,22.33H60.6v2.5h4.08V22.33z M64.69,24.83H60.6v-2.5h4.08V24.83z"/>
	</g>
	<g>
		<rect x="17.81" y="22.33" class="st2" width="4.37" height="2.5"/>
	</g>
	<g>
		<path class="st2" d="M22.18,22.33h-4.37v2.5h4.37V22.33z M22.18,24.83h-4.37v-2.5h4.37V24.83z"/>
	</g>
	<g>
		<rect x="16.13" y="26.2" class="st2" width="12.02" height="1.81"/>
	</g>
	<g>
		<path class="st2" d="M16.13,28.01h12.02V26.2H16.13V28.01z M16.13,26.2h12.02v1.81H16.13V26.2z"/>
	</g>
	<g>
		<rect x="30.01" y="26.2" class="st2" width="10.33" height="1.81"/>
	</g>
	<g>
		<path class="st2" d="M30.01,28.01h10.33V26.2H30.01V28.01z M30.01,26.2h10.33v1.81H30.01V26.2z"/>
	</g>
	<g>
		<rect x="42.18" y="26.2" class="st2" width="10.33" height="1.81"/>
	</g>
	<g>
		<path class="st2" d="M42.18,28.01h10.33V26.2H42.18V28.01z M42.18,26.2h10.33v1.81H42.18V26.2z"/>
	</g>
	<g>
		<rect x="54.36" y="26.2" class="st2" width="12.37" height="1.81"/>
	</g>
	<g>
		<path class="st2" d="M54.36,28.01h12.37V26.2H54.36V28.01z M54.36,26.2h12.37v1.81H54.36V26.2z"/>
	</g>
	<g>
		<rect x="24.74" y="12.96" class="st2" width="0.45" height="0.47"/>
	</g>
	<g>
		<path class="st2" d="M24.74,12.96v0.47h0.46h-0.46V12.96z M24.74,12.96h0.46v0.47v-0.47H24.74z"/>
	</g>
	<g>
		<rect x="20.85" y="12.96" class="st2" width="0.46" height="0.47"/>
	</g>
	<g>
		<path class="st2" d="M20.85,12.96v0.47h0.45h-0.45V12.96z M20.85,12.96h0.45v0.47v-0.47H20.85z"/>
	</g>
	<g>
		<rect x="36.9" y="12.96" class="st2" width="0.46" height="0.47"/>
	</g>
	<g>
		<path class="st2" d="M36.9,12.96v0.47h0.45H36.9V12.96z M36.9,12.96h0.45v0.47v-0.47H36.9z"/>
	</g>
	<g>
		<rect x="33.01" y="12.96" class="st2" width="0.45" height="0.47"/>
	</g>
	<g>
		<path class="st2" d="M33.01,12.96v0.47h0.45h-0.45V12.96z M33.01,12.96h0.45v0.47v-0.47H33.01z"/>
	</g>
	<g>
		<rect x="49.06" y="12.96" class="st2" width="0.46" height="0.47"/>
	</g>
	<g>
		<path class="st2" d="M49.06,12.96v0.47h0.46h-0.46V12.96z M49.06,12.96h0.46v0.47v-0.47H49.06z"/>
	</g>
	<g>
		<rect x="45.16" y="12.96" class="st2" width="0.46" height="0.47"/>
	</g>
	<g>
		<path class="st2" d="M45.16,12.96v0.47h0.46h-0.46V12.96z M45.16,12.96h0.46v0.47v-0.47H45.16z"/>
	</g>
	<g>
		<rect x="61.17" y="12.96" class="st2" width="0.46" height="0.47"/>
	</g>
	<g>
		<path class="st2" d="M61.17,12.96v0.47h0.46h-0.46V12.96z M61.17,12.96h0.46v0.47v-0.47H61.17z"/>
	</g>
	<g>
		<rect x="57.31" y="12.96" class="st2" width="0.46" height="0.47"/>
	</g>
	<g>
		<path class="st2" d="M57.31,12.96v0.47h0.46h-0.46V12.96z M57.31,12.96h0.46v0.47v-0.47H57.31z"/>
	</g>
	<g>
		<polygon class="st2" points="27.33,17.91 24.94,14.73 21.07,14.73 18.66,17.91   "/>
	</g>
	<g>
		<path class="st2" d="M24.94,14.73h-3.88l-2.41,3.17h8.67L24.94,14.73z M27.33,17.91h-8.67l2.41-3.17h3.88L27.33,17.91z"/>
	</g>
	<g>
		<polygon class="st2" points="37.1,14.73 33.24,14.73 30.83,17.9 39.48,17.9   "/>
	</g>
	<g>
		<path class="st2" d="M33.24,14.73l-2.41,3.17h8.65l-2.38-3.17H33.24z M30.83,17.91l2.41-3.17h3.86l2.38,3.17H30.83z"/>
	</g>
	<g>
		<polygon class="st2" points="49.28,14.73 45.39,14.73 42.98,17.9 51.66,17.9   "/>
	</g>
	<g>
		<path class="st2" d="M45.39,14.73l-2.41,3.17h8.67l-2.38-3.17H45.39z M42.98,17.91l2.41-3.17h3.88l2.38,3.17H42.98z"/>
	</g>
	<g>
		<polygon class="st2" points="61.39,14.73 57.57,14.73 55.16,17.9 63.76,17.9   "/>
	</g>
	<g>
		<path class="st2" d="M57.57,14.73l-2.41,3.17h8.6l-2.38-3.17H57.57z M55.16,17.91l2.41-3.17h3.82l2.38,3.17H55.16z"/>
	</g>
	<g>
		<polygon class="st2" points="19.4,14.18 19.4,11.13 14.44,11.13 14.44,14.18 16.91,17.69   "/>
	</g>
	<g>
		<path class="st2" d="M19.4,11.13h-4.95v3.05l2.46,3.52l2.49-3.52V11.13z M16.91,17.69l-2.46-3.52v-3.05h4.95v3.05L16.91,17.69z"/>
	</g>
	<g>
		<polygon class="st2" points="29.13,17.69 31.62,14.17 31.62,11.13 26.67,11.13 26.67,14.17   "/>
	</g>
	<g>
		<path class="st2" d="M31.62,11.13h-4.95v3.05l2.46,3.52l2.49-3.52V11.13z M29.13,17.69l-2.46-3.52v-3.05h4.95v3.05L29.13,17.69z"/>
	</g>
	<g>
		<polygon class="st2" points="41.22,17.69 43.71,14.17 43.71,11.13 38.76,11.13 38.76,14.17   "/>
	</g>
	<g>
		<path class="st2" d="M43.71,11.13h-4.95v3.05l2.46,3.52l2.49-3.52V11.13z M41.22,17.69l-2.46-3.52v-3.05h4.95v3.05L41.22,17.69z"/>
	</g>
	<g>
		<polygon class="st2" points="53.39,17.69 55.88,14.17 55.88,11.13 50.93,11.13 50.93,14.17   "/>
	</g>
	<g>
		<path class="st2" d="M55.88,11.13h-4.95v3.05l2.46,3.52l2.49-3.52V11.13z M53.39,17.69l-2.46-3.52v-3.05h4.95v3.05L53.39,17.69z"/>
	</g>
	<g>
		<polygon class="st2" points="63.13,14.18 65.59,17.69 68.08,14.18 68.08,11.13 63.13,11.13   "/>
	</g>
	<g>
		<path class="st2" d="M63.13,14.17l2.46,3.52l2.49-3.52v-3.05h-4.95V14.17z M65.59,17.69l-2.46-3.52v-3.05h4.95v3.05L65.59,17.69z"/>
	</g>
	<g>
		<g>
			<path class="st2" d="M39.74,37.73c0,0,0.27,0.82-0.33,1.54c0,0-0.62,0.28-1.99-0.36C37.42,38.91,39.66,38.24,39.74,37.73"/>
		</g>
		<g>
			<path class="st2" d="M39.74,37.73c-0.09,0.5-2.3,1.17-2.32,1.18c1.36,0.63,1.98,0.36,1.99,0.36C40,38.56,39.75,37.75,39.74,37.73      M39,39.33c-0.33,0-0.84-0.08-1.58-0.42c0.02-0.01,2.24-0.68,2.32-1.18c0,0.01,0.27,0.82-0.33,1.54     C39.41,39.27,39.27,39.33,39,39.33"/>
		</g>
		<g>
			<path class="st2" d="M38.76,35.31c0,0-0.41,0.59,0.3,1.31c0,0-0.86-0.69-2.04-0.37C37.02,36.24,37.38,35.73,38.76,35.31"/>
		</g>
		<g>
			<path class="st2" d="M37.63,36.16c0.84,0,1.42,0.45,1.43,0.45c-0.7-0.71-0.31-1.29-0.3-1.31c-1.36,0.42-1.74,0.93-1.74,0.93     C37.23,36.18,37.44,36.16,37.63,36.16 M39.06,36.61c-0.01-0.01-0.87-0.68-2.04-0.37c0-0.01,0.38-0.52,1.74-0.94     C38.75,35.31,38.35,35.9,39.06,36.61"/>
		</g>
		<g>
			<path class="st2" d="M52.92,59.25c0,0,0.3-1.14-0.23-1.37c0,0-0.59-0.21-0.68,0.36c-0.07,0.42,0.39,0.49,0.39,0.49     S52.76,58.82,52.92,59.25"/>
		</g>
		<g>
			<path class="st2" d="M52.46,57.84c-0.08,0-0.16,0.01-0.24,0.06c-0.11,0.06-0.18,0.18-0.21,0.34c-0.02,0.12,0,0.22,0.06,0.3     c0.11,0.15,0.33,0.19,0.33,0.19c0,0,0.36,0.09,0.52,0.52c0.01-0.03,0.28-1.14-0.23-1.37C52.69,57.88,52.59,57.84,52.46,57.84      M52.92,59.25L52.92,59.25c-0.16-0.43-0.52-0.52-0.52-0.52c0,0-0.22-0.04-0.33-0.19c-0.06-0.08-0.08-0.18-0.06-0.3     c0.03-0.16,0.1-0.28,0.21-0.34c0.2-0.12,0.47-0.02,0.48-0.02C53.21,58.11,52.92,59.24,52.92,59.25z"/>
		</g>
		<g>
			<path class="st2" d="M50.12,60.89c0,0,1.01-0.26,1.01-0.91c0-0.48-0.89-0.37-0.92-0.16c-0.03,0.29,0.07,0.52,0.07,0.52     S50.35,60.5,50.12,60.89"/>
		</g>
		<g>
			<path class="st2" d="M50.65,59.63c-0.22,0-0.43,0.08-0.44,0.18c-0.03,0.28,0.07,0.52,0.07,0.52c0,0,0.07,0.17-0.16,0.56     c0.02-0.01,1.01-0.27,1.01-0.91c0-0.2-0.15-0.32-0.41-0.34C50.69,59.63,50.67,59.63,50.65,59.63 M50.12,60.89L50.12,60.89     c0.23-0.38,0.16-0.55,0.16-0.56c0,0-0.1-0.24-0.07-0.52c0.01-0.1,0.22-0.18,0.44-0.18c0.02,0,0.04,0,0.06,0     c0.26,0.02,0.41,0.14,0.41,0.34C51.13,60.62,50.13,60.88,50.12,60.89"/>
		</g>
		<g>
			<path class="st2" d="M53.67,57.36c0,0-0.09-0.78-0.63-1.01c-0.27-0.12-0.34,0.2-0.34,0.2s-0.09,0.34-0.2,0.45     c0,0,0.14,0.19,0.48,0.17C53.17,57.16,53.56,57.19,53.67,57.36"/>
		</g>
		<g>
			<path class="st2" d="M53.67,57.36L53.67,57.36c-0.11-0.17-0.52-0.2-0.69-0.19c-0.01,0-0.03,0-0.04,0c-0.3,0-0.43-0.16-0.44-0.17     c0.02,0.02,0.15,0.17,0.44,0.17c0.01,0,0.03,0,0.04,0C53.15,57.15,53.55,57.19,53.67,57.36c0-0.03-0.1-0.79-0.63-1.01     c-0.08-0.03-0.14-0.04-0.2-0.01c-0.11,0.05-0.14,0.2-0.14,0.2c0,0-0.05,0.19-0.12,0.33c0.07-0.14,0.12-0.32,0.12-0.33     c0,0,0.03-0.15,0.14-0.2c0.06-0.03,0.12-0.03,0.2,0.01C53.57,56.57,53.67,57.35,53.67,57.36z"/>
		</g>
		<g>
			<path class="st2" d="M47.24,58.6c0,0-0.53,0.28-0.94-0.16c0,0-0.27,0.93,1.12,1.26c0,0-0.34-0.33-0.27-0.58     C47.22,58.83,47.26,58.87,47.24,58.6"/>
		</g>
		<g>
			<path class="st2" d="M46.3,58.44c0,0-0.09,0.31,0.1,0.63c0.17,0.3,0.51,0.51,1.01,0.63c0,0-0.34-0.33-0.27-0.58     c0.02-0.1,0.05-0.16,0.06-0.21c0.04-0.1,0.05-0.14,0.03-0.32C47.22,58.6,46.7,58.87,46.3,58.44 M47.41,59.7     c-0.5-0.12-0.84-0.33-1.01-0.63c-0.19-0.32-0.1-0.63-0.1-0.63c0.4,0.43,0.93,0.16,0.94,0.16c0.02,0.18,0,0.23-0.03,0.32     c-0.02,0.05-0.04,0.11-0.06,0.21C47.07,59.37,47.41,59.7,47.41,59.7"/>
		</g>
		<g>
			<path class="st2" d="M47.05,54.92c0,0,1.76,1.23,1.99,1.36c0.23,0.12,0.72,0.43,1.33,0.25c0.61-0.19,0.72-0.27,0.88-0.48     c0.16-0.21,0.5-0.53,1.01-0.12c0,0,0.26,0.24,0.16,0.47c-0.1,0.22-0.07,0.27-0.11,0.34c-0.04,0.06-0.15,0.15-0.3,0.05     c-0.15-0.09-0.57-0.38-0.54-0.14c0.04,0.25,0.34,0.33,0.44,0.36c0.09,0.02,0.33,0.07,0.4,0.36c0,0,0.08,0.19-0.11,0.2     c-0.2,0.01-0.33,0.12-0.38,0.22c-0.05,0.09-0.14,0.28-0.32,0.13c-0.18-0.15-0.4-0.55-0.94-0.63c-0.53-0.07-1.1-0.05-0.77,0.17     s0.69,0.76,0.77,0.87c0,0,0.15,0.17,0.23,0.18c0.09,0.02,0.27,0.17,0.28,0.27c0.01,0.09,0.18,0.49-0.11,0.47     c-0.28-0.02-0.59-0.03-0.72,0.09c0,0-0.14,0-0.22-0.16c-0.09-0.16-0.17-0.42-0.14-0.57c0.02-0.15-0.83-1.27-1.59-1.37     c-0.76-0.1-1.14,0.38-1.09,0.67c0.05,0.29-0.13,0.48-0.31,0.48c-0.19,0-1.05-0.22-0.49-1.26c0,0,0.17-0.36,0.98-0.39     c0.81-0.02,0.35-0.49,0.25-0.56c-0.1-0.07-0.93-0.63-1.07-0.75c-0.15-0.11-0.13-0.36-0.06-0.45     C46.57,54.87,46.76,54.76,47.05,54.92"/>
		</g>
		<g>
			<path class="st2" d="M48.11,57.22c0.06,0,0.13,0,0.19,0.01c0.51,0.07,1.07,0.59,1.39,1.02c0.13,0.17,0.2,0.31,0.2,0.35     c-0.03,0.15,0.06,0.41,0.15,0.57c0.08,0.16,0.21,0.16,0.22,0.16c0.14-0.12,0.46-0.11,0.72-0.09c0.01,0,0.02,0,0.02,0     c0.05,0,0.09-0.02,0.11-0.04c0.07-0.08,0.02-0.24-0.01-0.35c-0.01-0.03-0.02-0.06-0.02-0.08c-0.01-0.1-0.19-0.25-0.28-0.27     c-0.08-0.02-0.23-0.18-0.23-0.18c-0.1-0.15-0.45-0.65-0.77-0.87c-0.08-0.05-0.11-0.09-0.09-0.12c0.04-0.1,0.47-0.1,0.86-0.04     c0.41,0.05,0.63,0.3,0.79,0.48c0.05,0.06,0.1,0.11,0.15,0.15c0.05,0.05,0.1,0.06,0.15,0.05c0.08-0.02,0.13-0.12,0.16-0.19     c0.05-0.1,0.19-0.21,0.38-0.22c0.05,0,0.09-0.02,0.11-0.05c0.04-0.06,0-0.14,0-0.14c-0.06-0.28-0.29-0.33-0.39-0.35l-0.01,0     c-0.15-0.04-0.41-0.14-0.45-0.36c-0.01-0.04,0-0.07,0.02-0.08c0.08-0.05,0.33,0.11,0.47,0.19l0.04,0.03     c0.06,0.04,0.12,0.05,0.17,0.04c0.06-0.01,0.11-0.05,0.13-0.09c0.01-0.03,0.02-0.05,0.02-0.08c0.01-0.05,0.02-0.12,0.08-0.26     c0.1-0.22-0.16-0.46-0.16-0.47c-0.19-0.15-0.37-0.21-0.54-0.19c-0.17,0.02-0.33,0.13-0.47,0.32c-0.16,0.2-0.27,0.29-0.88,0.48     c-0.56,0.17-1.03-0.08-1.27-0.21c-0.02-0.01-0.04-0.02-0.06-0.03c-0.23-0.12-1.97-1.34-1.99-1.36c-0.28-0.15-0.47-0.05-0.54,0.05     c-0.07,0.09-0.09,0.34,0.06,0.45c0.09,0.07,0.43,0.3,0.71,0.49c0.18,0.12,0.33,0.23,0.37,0.25c0.05,0.04,0.26,0.24,0.21,0.39     c-0.03,0.11-0.19,0.17-0.46,0.17c-0.8,0.03-0.98,0.39-0.98,0.39c-0.21,0.38-0.24,0.69-0.11,0.93c0.15,0.25,0.47,0.33,0.6,0.33     c0.09,0,0.17-0.04,0.23-0.11c0.08-0.09,0.11-0.22,0.08-0.36c-0.02-0.13,0.04-0.28,0.16-0.41C47.55,57.31,47.81,57.22,48.11,57.22      M50.26,59.33c-0.01,0-0.14,0-0.22-0.16c-0.09-0.16-0.17-0.43-0.15-0.57c0.01-0.05-0.07-0.18-0.2-0.35     c-0.32-0.43-0.88-0.95-1.39-1.02c-0.38-0.05-0.72,0.05-0.93,0.26c-0.12,0.13-0.18,0.28-0.16,0.41c0.02,0.14-0.01,0.27-0.08,0.36     c-0.06,0.07-0.15,0.11-0.23,0.11c-0.12,0-0.45-0.08-0.6-0.33c-0.14-0.23-0.1-0.54,0.11-0.93c0,0,0.18-0.36,0.98-0.39     c0.27-0.01,0.43-0.07,0.46-0.17c0.05-0.15-0.16-0.35-0.21-0.39c-0.04-0.03-0.19-0.13-0.37-0.25c-0.28-0.19-0.62-0.43-0.71-0.49     c-0.15-0.11-0.12-0.36-0.06-0.45c0.07-0.11,0.26-0.21,0.54-0.05c0.02,0.01,1.76,1.23,1.99,1.36c0.02,0.01,0.04,0.02,0.06,0.03     c0.25,0.13,0.71,0.38,1.27,0.21c0.61-0.18,0.72-0.27,0.88-0.48c0.14-0.19,0.3-0.3,0.47-0.32c0.17-0.02,0.35,0.04,0.54,0.19     c0,0,0.26,0.25,0.16,0.47c-0.06,0.14-0.07,0.21-0.08,0.26c-0.01,0.03-0.01,0.05-0.02,0.08c-0.02,0.04-0.07,0.08-0.13,0.09     c-0.05,0.01-0.11,0-0.17-0.04l-0.04-0.03c-0.12-0.08-0.33-0.2-0.43-0.2c-0.02,0-0.03,0-0.04,0.01c-0.02,0.01-0.03,0.04-0.02,0.08     c0.04,0.23,0.3,0.32,0.45,0.36l0.01,0c0.1,0.02,0.33,0.08,0.39,0.35c0,0,0.04,0.09,0,0.14c-0.02,0.03-0.06,0.05-0.11,0.05     c-0.2,0.01-0.33,0.12-0.38,0.22c-0.03,0.06-0.08,0.17-0.16,0.19c-0.05,0.01-0.1-0.01-0.15-0.05c-0.05-0.04-0.09-0.09-0.15-0.15     c-0.16-0.18-0.39-0.42-0.79-0.48c-0.39-0.05-0.82-0.06-0.86,0.04c-0.01,0.03,0.02,0.07,0.09,0.12c0.32,0.21,0.67,0.72,0.77,0.87     c0,0,0.15,0.17,0.23,0.18c0.09,0.02,0.27,0.17,0.28,0.27c0,0.02,0.01,0.04,0.02,0.08c0.03,0.11,0.07,0.27,0.01,0.35     c-0.03,0.03-0.07,0.04-0.13,0.04C50.72,59.22,50.39,59.21,50.26,59.33"/>
		</g>
		<g>
			<path class="st2" d="M36.09,58.58c0,0,0.39,0.37,0.9-0.05c0,0,0.26,0.84-1.12,1.18c0,0,0.34-0.33,0.27-0.58     C36.07,58.83,36.06,58.84,36.09,58.58"/>
		</g>
		<g>
			<path class="st2" d="M36.09,58.58c-0.03,0.24-0.02,0.26,0.03,0.46l0.02,0.09c0.07,0.24-0.27,0.57-0.27,0.58     c0.52-0.13,0.87-0.34,1.04-0.63c0.16-0.28,0.09-0.55,0.09-0.55C36.5,58.93,36.1,58.59,36.09,58.58 M35.87,59.7     c0,0,0.34-0.33,0.27-0.58l-0.02-0.09c-0.05-0.2-0.06-0.22-0.03-0.46c0,0,0.4,0.36,0.91-0.05c0,0,0.08,0.26-0.09,0.55     C36.74,59.37,36.39,59.58,35.87,59.7"/>
		</g>
		<g>
			<path class="st2" d="M30.37,59.24c0,0-0.29-1.14,0.23-1.37c0,0,0.58-0.21,0.68,0.36c0.07,0.42-0.39,0.49-0.39,0.49     S30.54,58.8,30.37,59.24"/>
		</g>
		<g>
			<path class="st2" d="M30.84,57.83c-0.13,0-0.24,0.04-0.24,0.04c-0.51,0.22-0.24,1.34-0.23,1.37c0.17-0.43,0.52-0.52,0.52-0.52     c0,0,0.22-0.04,0.33-0.19c0.06-0.08,0.08-0.18,0.06-0.3c-0.03-0.16-0.1-0.27-0.21-0.34C31,57.85,30.92,57.83,30.84,57.83      M30.37,59.24L30.37,59.24c0-0.01-0.29-1.14,0.23-1.37c0,0,0.27-0.1,0.47,0.02c0.11,0.06,0.18,0.18,0.21,0.34     c0.02,0.12,0,0.22-0.06,0.3c-0.11,0.15-0.33,0.19-0.33,0.19C30.89,58.72,30.54,58.81,30.37,59.24z"/>
		</g>
		<g>
			<path class="st2" d="M33.2,60.78c0,0-1.01-0.26-1.01-0.91c0-0.65,0.88-0.53,0.91-0.15c0.03,0.28-0.07,0.51-0.07,0.51     S32.97,60.4,33.2,60.78"/>
		</g>
		<g>
			<path class="st2" d="M32.64,59.41c-0.01,0-0.02,0-0.03,0c-0.2,0.01-0.42,0.14-0.42,0.46c0,0.63,0.99,0.9,1.01,0.91     c-0.23-0.38-0.17-0.55-0.17-0.55c0,0,0.1-0.23,0.07-0.51C33.09,59.53,32.86,59.41,32.64,59.41 M33.2,60.78L33.2,60.78     c-0.01,0-1.01-0.27-1.01-0.91c0-0.32,0.22-0.45,0.42-0.46c0.01,0,0.02,0,0.03,0c0.21,0,0.44,0.12,0.46,0.31     c0.03,0.28-0.07,0.51-0.07,0.51C33.04,60.23,32.97,60.41,33.2,60.78"/>
		</g>
		<g>
			<path class="st3" d="M29.62,57.36c0,0,0.12-0.79,0.66-1.02c0.28-0.12,0.27,0.21,0.27,0.21s0.12,0.32,0.31,0.43     c0,0-0.21,0.21-0.56,0.2C30.11,57.16,29.72,57.19,29.62,57.36"/>
		</g>
		<g>
			<path class="st2" d="M30.39,56.43c-0.01,0-0.03,0-0.06,0.02c-0.29,0.12-0.44,0.44-0.52,0.67c0.19-0.06,0.4-0.06,0.51-0.06     c0.17,0.01,0.28-0.04,0.36-0.09c-0.14-0.15-0.22-0.35-0.23-0.38l-0.01-0.04c0-0.04-0.01-0.1-0.03-0.11     C30.4,56.43,30.4,56.43,30.39,56.43 M29.42,57.87l0.08-0.53c0.01-0.04,0.14-0.86,0.73-1.11c0.15-0.06,0.25-0.03,0.3,0.01     c0.11,0.08,0.13,0.22,0.13,0.28c0.04,0.09,0.14,0.28,0.26,0.35l0.13,0.08l-0.11,0.11c-0.01,0.01-0.24,0.23-0.6,0.23     c-0.01,0-0.03,0-0.04,0c-0.22-0.02-0.52,0.04-0.59,0.14L29.42,57.87z"/>
		</g>
		<g>
			<path class="st2" d="M36.24,54.92c0,0-1.75,1.23-1.99,1.36c-0.23,0.12-0.72,0.43-1.33,0.25c-0.61-0.19-0.72-0.27-0.88-0.48     c-0.16-0.21-0.48-0.56-1-0.15c0,0-0.26,0.25-0.15,0.47c0.09,0.22,0.11,0.28,0.15,0.33c0.05,0.05,0.09,0.16,0.24,0.06     c0.15-0.1,0.56-0.35,0.52-0.11c-0.03,0.25-0.34,0.33-0.44,0.36c-0.1,0.02-0.33,0.08-0.39,0.36c0,0-0.08,0.18,0.11,0.19     c0.2,0.02,0.33,0.12,0.38,0.22c0.05,0.09,0.14,0.28,0.32,0.13c0.18-0.15,0.39-0.56,0.93-0.63c0.54-0.07,1.1-0.05,0.77,0.17     c-0.33,0.22-0.7,0.76-0.77,0.87c0,0-0.15,0.17-0.23,0.18c-0.08,0.02-0.27,0.17-0.28,0.27c-0.01,0.09-0.12,0.42,0.17,0.4     c0.28-0.02,0.59-0.06,0.72,0.06c0,0,0.15-0.02,0.23-0.18c0.08-0.16,0.1-0.3,0.08-0.44c-0.03-0.15,0.83-1.27,1.59-1.37     c0.76-0.1,1.14,0.38,1.09,0.67c-0.05,0.29,0.13,0.48,0.32,0.48c0.18,0,1.06-0.22,0.49-1.26c0,0-0.17-0.36-0.98-0.39     c-0.81-0.02-0.36-0.49-0.26-0.56c0.09-0.07,0.93-0.63,1.07-0.75c0.14-0.11,0.12-0.36,0.06-0.45     C36.72,54.87,36.52,54.76,36.24,54.92"/>
		</g>
		<g>
			<path class="st2" d="M32.75,59.02c0.14,0,0.26,0.02,0.36,0.07c0.03-0.02,0.08-0.05,0.11-0.11c0.07-0.12,0.09-0.23,0.07-0.37     c-0.01-0.03-0.02-0.11,0.17-0.38c0.25-0.35,0.9-1.04,1.51-1.12c0.42-0.05,0.79,0.05,1.03,0.3c0.15,0.15,0.22,0.34,0.19,0.51     c-0.02,0.11,0,0.21,0.06,0.27c0.04,0.04,0.09,0.07,0.14,0.07c0.09,0,0.37-0.07,0.5-0.28c0.11-0.19,0.08-0.46-0.11-0.81     c0-0.01-0.17-0.31-0.88-0.33c-0.12,0-0.5-0.01-0.57-0.26c-0.08-0.26,0.25-0.51,0.25-0.51c0.04-0.03,0.24-0.17,0.46-0.32     c0.25-0.17,0.53-0.36,0.61-0.42c0.09-0.07,0.07-0.24,0.04-0.29c-0.04-0.06-0.17-0.13-0.38-0.02c-0.12,0.08-1.76,1.24-2,1.36     l-0.05,0.03c-0.26,0.14-0.75,0.41-1.37,0.22c-0.61-0.19-0.76-0.28-0.94-0.52c-0.1-0.12-0.23-0.27-0.4-0.29     c-0.13-0.01-0.27,0.04-0.43,0.16c0,0-0.18,0.19-0.12,0.33l0.06,0.15c0.04,0.09,0.05,0.12,0.07,0.14     c0.01,0.01,0.02,0.02,0.03,0.04c0.01,0.01,0.02,0.02,0.03,0.03c0,0,0.01-0.01,0.03-0.02c0.29-0.18,0.5-0.28,0.62-0.2     c0.04,0.02,0.09,0.08,0.08,0.21c-0.03,0.21-0.21,0.37-0.52,0.46c-0.13,0.03-0.27,0.08-0.31,0.27c-0.01,0.02-0.01,0.04-0.02,0.05     c0.01,0,0.01,0,0.02,0c0.26,0.02,0.42,0.17,0.48,0.29c0.04,0.08,0.07,0.12,0.08,0.12h0c0,0,0.02,0,0.05-0.03     c0.04-0.03,0.08-0.08,0.13-0.14c0.16-0.18,0.41-0.46,0.86-0.52c0.41-0.06,0.92-0.08,0.99,0.12c0.03,0.09-0.01,0.18-0.14,0.26     c-0.28,0.19-0.63,0.67-0.74,0.83c-0.06,0.07-0.2,0.21-0.31,0.23c-0.04,0.01-0.18,0.13-0.19,0.18c0,0.01,0,0.03-0.01,0.06     c-0.01,0.04-0.03,0.17-0.01,0.19c0,0,0.02,0.01,0.06,0.01l0.07-0.01C32.53,59.04,32.64,59.02,32.75,59.02 M33.05,59.35L33,59.31     c-0.08-0.08-0.35-0.05-0.56-0.04l-0.07,0.01c-0.13,0.01-0.21-0.04-0.25-0.08c-0.1-0.11-0.07-0.28-0.05-0.39     c0-0.02,0.01-0.04,0.01-0.05c0.02-0.17,0.25-0.34,0.36-0.38c0.04-0.01,0.12-0.08,0.18-0.15c0,0,0.39-0.6,0.77-0.87     c-0.13-0.02-0.36-0.01-0.66,0.03c-0.36,0.05-0.56,0.27-0.71,0.44c-0.06,0.06-0.11,0.12-0.16,0.16c-0.08,0.07-0.16,0.09-0.25,0.08     c-0.13-0.03-0.2-0.16-0.24-0.23c-0.04-0.08-0.15-0.16-0.29-0.17c-0.12-0.01-0.18-0.07-0.21-0.11c-0.06-0.11-0.01-0.23,0-0.25     c0.07-0.33,0.37-0.4,0.47-0.43c0.11-0.03,0.29-0.09,0.34-0.21c-0.05,0.02-0.15,0.07-0.33,0.18c-0.21,0.13-0.33-0.01-0.37-0.06     c-0.07-0.07-0.09-0.13-0.14-0.24l-0.06-0.14c-0.14-0.29,0.17-0.58,0.18-0.6c0.21-0.17,0.42-0.24,0.61-0.22     c0.26,0.03,0.44,0.22,0.56,0.38c0.13,0.17,0.21,0.25,0.82,0.44c0.52,0.16,0.94-0.07,1.19-0.21l0.05-0.03     c0.18-0.1,1.37-0.93,1.98-1.35l0.01-0.01c0.35-0.2,0.61-0.05,0.7,0.09c0.09,0.14,0.11,0.46-0.09,0.6     c-0.08,0.06-0.36,0.26-0.62,0.43c-0.21,0.15-0.41,0.28-0.45,0.32c-0.08,0.06-0.19,0.2-0.17,0.26c0,0,0.03,0.08,0.36,0.09     c0.87,0.03,1.07,0.44,1.08,0.46c0.23,0.42,0.26,0.77,0.1,1.03c-0.18,0.3-0.55,0.39-0.7,0.39c-0.12,0-0.24-0.05-0.32-0.15     c-0.1-0.12-0.14-0.28-0.11-0.46c0.01-0.09-0.04-0.21-0.13-0.31c-0.18-0.19-0.48-0.27-0.83-0.23c-0.68,0.09-1.45,1.09-1.48,1.25     c0.02,0.17-0.01,0.33-0.09,0.5c-0.11,0.21-0.3,0.24-0.32,0.25L33.05,59.35z"/>
		</g>
		<g>
			<path class="st4" d="M41.15,36.11c-0.25,0-0.45,0.2-0.45,0.45c0,0.24,0.2,0.44,0.45,0.44c0.25,0,0.44-0.2,0.44-0.44     C41.59,36.31,41.4,36.11,41.15,36.11 M41.09,36.87c-0.15,0-0.28-0.12-0.28-0.27c0-0.16,0.12-0.28,0.28-0.28     c0.15,0,0.28,0.12,0.28,0.28C41.37,36.74,41.24,36.87,41.09,36.87"/>
		</g>
		<g>
			<path class="st2" d="M41.29,36.25c0.09,0.05,0.16,0.14,0.18,0.25C41.46,36.39,41.39,36.3,41.29,36.25 M41.09,36.43     c-0.09,0-0.16,0.07-0.16,0.16c0,0.08,0.07,0.16,0.16,0.16c0.09,0,0.16-0.07,0.16-0.16C41.25,36.5,41.18,36.43,41.09,36.43      M41.15,37.11c-0.31,0-0.57-0.25-0.57-0.56c0-0.31,0.26-0.56,0.57-0.56c0.31,0,0.56,0.25,0.56,0.56     C41.71,36.86,41.46,37.11,41.15,37.11"/>
		</g>
	</g>
	<g>
		<path d="M77.88,30.52c0-0.43,0.33-0.8,0.8-0.8h2.94c0.43,0,0.8,0.37,0.8,0.8v9.02l8.42-9.49c0.13-0.17,0.33-0.33,0.63-0.33h3.34    c0.63,0,0.97,0.7,0.54,1.2l-8.72,9.82l9.36,11.19c0.33,0.43,0.07,1.17-0.6,1.17h-3.64c-0.33,0-0.53-0.13-0.6-0.23l-8.72-10.76    v10.19c0,0.43-0.37,0.8-0.8,0.8h-2.94c-0.47,0-0.8-0.37-0.8-0.8V30.52z"/>
		<path d="M99.7,30.35c0-0.33,0.27-0.63,0.63-0.63h9.56c4.01,0,7.28,3.21,7.28,7.18c0,3.07-2.04,5.58-4.95,6.75l4.58,8.49    c0.23,0.43,0,0.97-0.57,0.97h-3.51c-0.3,0-0.47-0.17-0.53-0.3l-4.44-8.86h-3.71v8.52c0,0.33-0.3,0.63-0.63,0.63h-3.07    c-0.37,0-0.63-0.3-0.63-0.63V30.35z M109.52,40.38c1.77,0,3.31-1.54,3.31-3.41c0-1.77-1.54-3.24-3.31-3.24h-5.45v6.65H109.52z"/>
		<path d="M119.91,52.24l10.39-22.49c0.1-0.2,0.27-0.37,0.57-0.37h0.33c0.33,0,0.47,0.17,0.57,0.37l10.29,22.49    c0.2,0.43-0.07,0.87-0.57,0.87h-2.91c-0.5,0-0.74-0.2-0.97-0.67l-1.64-3.61h-9.99l-1.64,3.61c-0.13,0.33-0.43,0.67-0.97,0.67    h-2.91C119.98,53.11,119.71,52.67,119.91,52.24z M134.35,45.12l-3.34-7.35h-0.1l-3.27,7.35H134.35z"/>
		<path d="M148.55,29.88c0.03-0.27,0.23-0.5,0.6-0.5h0.53c0.27,0,0.47,0.13,0.57,0.33l7.35,15.77c0.07,0,0.07,0,0.1,0l7.35-15.77    c0.1-0.2,0.27-0.33,0.57-0.33h0.53c0.37,0,0.57,0.23,0.6,0.5l3.94,22.46c0.1,0.47-0.17,0.77-0.6,0.77h-3.04    c-0.3,0-0.57-0.27-0.63-0.5l-1.97-12.67c-0.03,0-0.1,0-0.1,0l-5.85,13.13c-0.07,0.2-0.27,0.37-0.57,0.37h-0.6    c-0.3,0-0.47-0.17-0.57-0.37l-5.92-13.13c0,0-0.07,0-0.1,0l-1.94,12.67c-0.03,0.23-0.3,0.5-0.6,0.5h-3.01    c-0.43,0-0.7-0.3-0.63-0.77L148.55,29.88z"/>
		<path d="M175.01,30.35c0-0.33,0.27-0.63,0.63-0.63h13.6c0.37,0,0.63,0.3,0.63,0.63v2.74c0,0.33-0.27,0.63-0.63,0.63h-9.89v6.28    h8.25c0.33,0,0.64,0.3,0.64,0.63v2.74c0,0.33-0.3,0.64-0.64,0.64h-8.25v8.45c0,0.33-0.3,0.63-0.63,0.63h-3.07    c-0.37,0-0.63-0.3-0.63-0.63V30.35z"/>
		<path d="M204.18,29.38c6.68,0,12.03,5.38,12.03,12.06c0,6.68-5.35,12-12.03,12c-6.68,0-12-5.31-12-12    C192.18,34.76,197.49,29.38,204.18,29.38z M204.18,49.1c4.21,0,7.69-3.44,7.69-7.65c0-4.21-3.48-7.72-7.69-7.72    c-4.21,0-7.65,3.51-7.65,7.72C196.52,45.66,199.97,49.1,204.18,49.1z"/>
		<path d="M220.58,30.35c0-0.33,0.27-0.63,0.63-0.63h9.56c4.01,0,7.28,3.21,7.28,7.18c0,3.07-2.04,5.58-4.95,6.75l4.58,8.49    c0.23,0.43,0,0.97-0.57,0.97h-3.51c-0.3,0-0.47-0.17-0.53-0.3l-4.44-8.86h-3.71v8.52c0,0.33-0.3,0.63-0.63,0.63h-3.07    c-0.37,0-0.63-0.3-0.63-0.63V30.35z M230.41,40.38c1.77,0,3.31-1.54,3.31-3.41c0-1.77-1.54-3.24-3.31-3.24h-5.45v6.65H230.41z"/>
		<path d="M241.47,49.83l1.2-2.07c0.27-0.47,0.83-0.47,1.14-0.23c0.17,0.1,2.87,2.07,5.05,2.07c1.74,0,3.04-1.14,3.04-2.57    c0-1.7-1.44-2.87-4.24-4.01c-3.14-1.27-6.28-3.27-6.28-7.22c0-2.97,2.21-6.42,7.52-6.42c3.41,0,6.02,1.74,6.68,2.24    c0.33,0.2,0.43,0.77,0.2,1.1l-1.27,1.9c-0.27,0.4-0.77,0.67-1.17,0.4c-0.27-0.17-2.81-1.84-4.65-1.84c-1.9,0-2.94,1.27-2.94,2.34    c0,1.57,1.24,2.64,3.94,3.74c3.24,1.3,6.98,3.24,6.98,7.55c0,3.44-2.97,6.62-7.69,6.62c-4.21,0-6.68-1.97-7.35-2.61    C241.33,50.54,241.17,50.37,241.47,49.83z"/>
	</g>
	<g>
		<path d="M77.88,62.16c0-0.43,0.33-0.8,0.8-0.8h2.94c0.43,0,0.8,0.37,0.8,0.8v9.02l8.42-9.49c0.13-0.17,0.33-0.33,0.63-0.33h3.34    c0.63,0,0.97,0.7,0.54,1.2l-8.72,9.82l9.36,11.19c0.33,0.43,0.07,1.17-0.6,1.17h-3.64c-0.33,0-0.53-0.13-0.6-0.23l-8.72-10.76    v10.19c0,0.43-0.37,0.8-0.8,0.8h-2.94c-0.47,0-0.8-0.37-0.8-0.8V62.16z"/>
		<path d="M107.79,61.03c6.68,0,12.03,5.38,12.03,12.06c0,6.68-5.35,12-12.03,12c-6.68,0-12-5.31-12-12    C95.79,66.41,101.1,61.03,107.79,61.03z M107.79,80.74c4.21,0,7.69-3.44,7.69-7.65c0-4.21-3.48-7.72-7.69-7.72    c-4.21,0-7.65,3.51-7.65,7.72C100.13,77.3,103.58,80.74,107.79,80.74z"/>
		<path d="M126,61.53c0.03-0.27,0.23-0.5,0.6-0.5h0.53c0.27,0,0.47,0.13,0.57,0.33l7.35,15.77c0.07,0,0.07,0,0.1,0l7.35-15.77    c0.1-0.2,0.27-0.33,0.57-0.33h0.53c0.37,0,0.57,0.23,0.6,0.5l3.94,22.46c0.1,0.47-0.17,0.77-0.6,0.77h-3.04    c-0.3,0-0.57-0.27-0.63-0.5l-1.97-12.67c-0.03,0-0.1,0-0.1,0l-5.85,13.13c-0.07,0.2-0.27,0.37-0.57,0.37h-0.6    c-0.3,0-0.47-0.17-0.57-0.37l-5.92-13.13c0,0-0.07,0-0.1,0l-1.94,12.67c-0.03,0.23-0.3,0.5-0.6,0.5h-3.01    c-0.43,0-0.7-0.3-0.63-0.77L126,61.53z"/>
		<path d="M155.17,61.53c0.03-0.27,0.23-0.5,0.6-0.5h0.53c0.27,0,0.47,0.13,0.57,0.33l7.35,15.77c0.07,0,0.07,0,0.1,0l7.35-15.77    c0.1-0.2,0.27-0.33,0.57-0.33h0.53c0.37,0,0.57,0.23,0.6,0.5l3.94,22.46c0.1,0.47-0.17,0.77-0.6,0.77h-3.04    c-0.3,0-0.57-0.27-0.63-0.5l-1.97-12.67c-0.03,0-0.1,0-0.1,0l-5.85,13.13c-0.07,0.2-0.27,0.37-0.57,0.37h-0.6    c-0.3,0-0.47-0.17-0.57-0.37l-5.92-13.13c0,0-0.07,0-0.1,0l-1.94,12.67c-0.03,0.23-0.3,0.5-0.6,0.5h-3.01    c-0.43,0-0.7-0.3-0.63-0.77L155.17,61.53z"/>
		<path d="M180.57,62c0-0.33,0.3-0.63,0.63-0.63h3.17c0.37,0,0.63,0.3,0.63,0.63v13.67c0,2.84,1.94,5.08,4.85,5.08    c2.91,0,4.88-2.24,4.88-5.05V62c0-0.33,0.27-0.63,0.64-0.63h3.17c0.33,0,0.64,0.3,0.64,0.63v13.9c0,5.08-4.04,9.19-9.32,9.19    c-5.25,0-9.29-4.11-9.29-9.19V62z"/>
		<path d="M204.92,61.63c0-0.33,0.3-0.6,0.63-0.6h0.84l13.9,14.77h0.03V62c0-0.33,0.27-0.63,0.63-0.63h3.07    c0.33,0,0.63,0.3,0.63,0.63v22.49c0,0.33-0.3,0.6-0.63,0.6h-0.8l-13.97-15.34h-0.03v14.37c0,0.33-0.27,0.63-0.63,0.63h-3.04    c-0.33,0-0.63-0.3-0.63-0.63V61.63z"/>
	</g>
</g>
</svg>